<?xml version="1.0" standalone="no"?>
<!DOCTYPE svg PUBLIC "-//W3C//DTD SVG 1.1//EN" "http://www.w3.org/Graphics/SVG/1.1/DTD/svg11.dtd" >
<svg>
<metadata>
Created by FontForge 20090622 at Wed Feb 21 10:09:31 2018
 By deploy user
Copyright (c) 2011, Pablo Impallari (www.impallari.com|impallari@gmail.com),Copyright (c) 2011, Igino Marini. (www.ikern.com|mail@iginomarini.com),with Reserved Font Name Kaushan Script.
</metadata>
<defs>
<font id="KaushanScript-Regular" horiz-adv-x="723" >
  <font-face 
    font-family="Kaushan Script"
    font-weight="400"
    font-stretch="normal"
    units-per-em="1000"
    panose-1="3 6 6 2 4 7 5 8 2 5"
    ascent="800"
    descent="-200"
    x-height="469"
    cap-height="714"
    bbox="-208 -367 1156 1084"
    underline-thickness="47"
    underline-position="-49"
    unicode-range="U+000D-U+FB04"
  />
<missing-glyph horiz-adv-x="444" 
d="M60 0v714h324v-714h-324zM96 684v-654h252v654h-252z" />
    <glyph glyph-name="f_f" unicode="ff" horiz-adv-x="596" 
d="M793 722q-33 0 -79.5 -79t-88.5 -205q62 -2 92 -7q2 -4 2 -14q0 -31 -10 -44q-97 9 -100 9l-90 -276.5t-72.5 -198t-63 -138.5t-58.5 -81.5t-62.5 -44t-71.5 -10.5q-75 0 -132 50q-54 -50 -135 -50q-71 0 -121 48q0 19 13 26q31 -36 85 -36q51 0 89 50t86 180
q54 146 149 475q-42 -3 -86 -8q-9 9 -9 24q32 9 106 21q102 327 260 327q59 0 140 -63q72 77 141 77q8 0 22.5 -1.5t17.5 -1.5q24 18 50 18q12 0 31 -13q-18 -31 -32 -85q-25 -74 -53 -96q-11 0 -12 29q-1 14 -7 37.5t-6 37.5q0 11 5 43zM335 -99q62 171 152 485h-19
q-34 0 -116 -2q-96 -310 -156.5 -463.5t-117.5 -218.5q33 -31 82 -31q51 0 89 50t86 180zM501 437q36 118 110 211q-37 24 -68 24q-49 0 -87 -56.5t-89 -186.5q70 7 134 8z" />
    <glyph glyph-name="f_i" unicode="fi" horiz-adv-x="582" 
d="M529 439q92 0 138 -9q11 -10 15 -21q-61 -80 -110 -212t-55 -182q-1 -5 -1 -9.5t-0.5 -7.5t-0.5 -6v-4.5t-0.5 -3t-1.5 -2t-2 -0.5q-15 0 -44 23.5t-29 61.5q0 59 29.5 160.5t64.5 151.5q-70 5 -128 5q-30 0 -44 -1l-89.5 -275.5t-73 -198t-64 -138.5t-61 -82.5
t-65 -44.5t-74.5 -11q-71 0 -121 48q0 19 13 26q31 -36 85 -36q51 0 89 50t86 180q52 142 149 476q-15 -1 -96 -9q-9 9 -9 24q50 14 117 25q106 315 271 315q24 0 73.5 -20.5t56.5 -20.5q32 18 70 18q12 0 31 -13q-20 -32 -32 -85q-25 -74 -53 -96q-12 0 -12 29
q0 15 -16.5 38.5t-16.5 36.5q0 11 5 43q-32 2 -46 2q-37 0 -68.5 -18.5t-56 -53t-42 -72t-34.5 -87.5q92 6 153 6z" />
    <glyph glyph-name="f_l" unicode="fl" horiz-adv-x="587" 
d="M447 64q0 89 80 309q63 172 116 281q-34 10 -66 10q-37 0 -68.5 -18.5t-56 -53t-42 -72t-34.5 -87.5q54 4 90 5q-23 -20 -32 -54h-30q-30 0 -44 -1l-89.5 -275.5t-73 -198t-64 -138.5t-61 -82.5t-65 -44.5t-74.5 -11q-71 0 -121 48q0 19 13 26q31 -36 85 -36q51 0 89 50
t86 180q52 142 149 476q-15 -1 -96 -9q-9 9 -9 24q59 17 117 26q106 314 271 314q27 0 142 -46q47 92 91 144q24 -4 64 -27t48 -36q-150 -177 -245 -441q-86 -240 -86 -370q0 -24 1 -29q-30 3 -37 19q-7 15 -27 29q-21 14 -21 89z" />
    <glyph glyph-name="f_f_i" unicode="ffi" horiz-adv-x="858" 
d="M125 375q44 10 112 21q51 167 115 255.5t150 88.5q58 0 138 -62q59 76 133 76q27 0 84 -31.5t66 -31.5q32 18 70 18q12 0 31 -13q-20 -32 -32 -85q-25 -74 -53 -96q-12 0 -12 29q0 15 -16.5 38.5t-16.5 36.5q0 11 5 43q-36 24 -66 24q-57 0 -100 -67.5t-80 -180.5
q76 2 116 2q95 0 174 -10q11 -10 15 -21q-61 -80 -110 -212t-55 -182q-1 -5 -1 -9.5t-0.5 -7.5t-0.5 -6v-4.5t-0.5 -3t-1.5 -2t-2 -0.5q-15 0 -44 23.5t-29 61.5q0 59 29.5 160.5t64.5 151.5q-59 4 -172 4q-49 -163 -86 -275t-72.5 -199.5t-64.5 -138t-62.5 -83t-66 -43.5
t-75.5 -11q-79 0 -133 60q-59 -60 -146 -60q-71 0 -121 48q0 19 13 26q31 -36 85 -36q51 0 89 50t86 180q50 135 144 457q-48 -7 -92 -17q-9 9 -9 34zM511 381q-76 -1 -157 -8q-91 -295 -149.5 -445t-112.5 -216q35 -41 94 -41q51 0 89 50t86 180q49 135 150 480zM368 415
q92 11 158 16q43 141 92 216q-39 25 -69 25q-51 0 -89 -59t-92 -198z" />
    <glyph glyph-name="f_f_l" unicode="ffl" horiz-adv-x="861" 
d="M721 64q0 89 80 309q62 170 118 284q-43 29 -86 29q-57 0 -100 -67.5t-80 -180.5q66 2 102 2l-33 -58q-29 1 -86 1q-49 -163 -86 -275t-72.5 -199.5t-64.5 -138t-62.5 -83t-66 -43.5t-75.5 -11q-79 0 -133 60q-59 -60 -146 -60q-71 0 -121 48q0 19 13 26q31 -36 85 -36
q51 0 89 50t86 180q50 135 144 457q-48 -7 -92 -17q-9 9 -9 34q60 14 112 22q51 166 115 254.5t150 88.5q58 0 138 -62q59 76 133 76q32 0 78.5 -20t81.5 -49q47 92 91 145q24 -4 64 -27t48 -36q-150 -177 -245 -441q-86 -240 -86 -370q0 -24 1 -29q-30 3 -37 19
q-7 15 -27 29q-21 14 -21 89zM511 381q-76 -1 -157 -8q-91 -295 -149.5 -445t-112.5 -216q35 -41 94 -41q51 0 89 50t86 180q49 135 150 480zM368 415q92 11 158 16q43 141 92 216q-39 25 -69 25q-51 0 -89 -59t-92 -198z" />
    <glyph glyph-name=".notdef" horiz-adv-x="444" 
d="M60 0v714h324v-714h-324zM96 684v-654h252v654h-252z" />
    <glyph glyph-name=".null" horiz-adv-x="0" 
 />
    <glyph glyph-name="nonmarkingreturn" horiz-adv-x="333" 
 />
    <glyph glyph-name="NULL" horiz-adv-x="0" 
 />
    <glyph glyph-name="NULL" horiz-adv-x="0" 
 />
    <glyph glyph-name="CR" unicode="&#xd;" horiz-adv-x="444" 
 />
    <glyph glyph-name="space" unicode=" " horiz-adv-x="238" 
 />
    <glyph glyph-name="exclam" unicode="!" horiz-adv-x="300" 
d="M143 188q0 53 50 188.5t114.5 261.5t101.5 153q31 -7 68.5 -40.5t42.5 -58.5q-107 -88 -196 -247.5t-120 -334.5q-21 6 -31.5 11.5t-20 22t-9.5 44.5zM121 -77q-21 0 -41 18t-20 30q0 32 13.5 71t33.5 39q27 0 56 -19t43 -44q-11 -12 -25.5 -38t-28 -41.5t-31.5 -15.5z
" />
    <glyph glyph-name="quotedbl" unicode="&#x22;" horiz-adv-x="367" 
d="M245 507q-16 14 -16 38q33 95 33 182q0 55 -12 106q48 -3 87.5 -20.5t52.5 -42.5q-35 -192 -145 -263zM425 507q-16 14 -16 38q33 95 33 182q0 55 -12 106q48 -3 87.5 -20.5t52.5 -42.5q-35 -192 -145 -263z" />
    <glyph glyph-name="numbersign" unicode="#" horiz-adv-x="676" 
d="M250 344q-59 0 -59 47q0 16 7 34q42 -6 70 -6q60 0 95 2q68 212 110 380q63 0 90 -58l-117 -319l90 5q61 192 107 372q63 0 90 -58l-113 -309q82 5 98 5q43 0 47 -71q-41 5 -69 5q-50 0 -101 -4q-37 -94 -41 -102q17 1 38.5 2l32.5 1.5t16 0.5q42 0 46 -71q-40 5 -68 5
q-46 0 -91 -4q-105 -253 -176 -356q-22 12 -26 43q52 96 130 308q-38 -2 -104 -8q-100 -241 -170 -343q-22 12 -26 43q50 91 125 294q-69 -6 -108 -6q-60 0 -60 47q0 11 7 34q44 -6 71 -6q73 0 116 2l17 49.5t15 45.5q-49 -4 -89 -4zM419 355l-39 -98q38 1 100 5
q3 8 15.5 44.5t18.5 56.5q-64 -6 -95 -8z" />
    <glyph glyph-name="dollar" unicode="$" horiz-adv-x="668" 
d="M621 786l-26 -83q63 -21 131 -61q3 -28 3 -34q0 -35 -16 -65.5t-40 -40.5q-33 59 -112 93l-71 -219l12 -6q87 -47 128 -98t41 -123q0 -99 -63.5 -158.5t-165.5 -59.5q-51 0 -109 20q-34 -75 -63 -125q-25 5 -32 36q20 29 51 106q-78 35 -131 87t-53 106q0 59 56 119
q0 -33 25 -76t72 -78q35 -27 73 -44q44 129 73 235q-85 48 -123.5 94.5t-38.5 104.5q0 88 65 147.5t171 59.5q9 0 29 -2q17 82 22 112q71 -20 92 -47zM618 138q0 67 -157 150q-45 -131 -81 -223q48 -15 99 -15q74 0 106.5 29t32.5 59zM292 556q0 -56 138 -144q32 118 53 205
q-33 5 -58 5q-55 0 -94 -18.5t-39 -47.5z" />
    <glyph glyph-name="percent" unicode="%" horiz-adv-x="619" 
d="M563 265q36 0 55.5 -28.5t19.5 -65.5q0 -28 -24.5 -49.5t-49.5 -21.5q-28 0 -53.5 25t-25.5 56q0 26 24.5 55t53.5 29zM305 649q36 0 55.5 -29t19.5 -66q0 -28 -24.5 -49t-49.5 -21q-29 0 -54 24.5t-25 56.5q0 27 24.5 55.5t53.5 28.5zM739 713q-142 -211 -319.5 -427.5
t-290.5 -324.5q-12 2 -25 16t-17 30q115 104 288.5 340.5t267.5 413.5q24 0 56.5 -16t39.5 -32z" />
    <glyph glyph-name="ampersand" unicode="&#x26;" horiz-adv-x="667" 
d="M591 332q-68 0 -68 48q0 16 6 37q31 -5 79 -5q52 0 90 2l38 2q23 0 34.5 -17t21.5 -60q-49 5 -80 5q-7 0 -18 -0.5t-15 -0.5q-53 -86 -111.5 -163.5t-139.5 -150.5t-151 -96q-77 9 -127 56.5t-54 115.5q2 90 64.5 176.5t141.5 126.5q-68 29 -68 86q0 69 86.5 146.5
t163.5 91.5q22 -3 66 -38.5t48 -56.5q-4 -24 -25 -56.5t-43 -48.5q-10 3 -12 10q13 13 23.5 35.5t10.5 41.5q0 18 -21 18q-56 0 -125.5 -77.5t-69.5 -138.5q23 -2 57.5 -20t40.5 -33q-92 -22 -158.5 -122.5t-66.5 -186.5q0 -80 62 -80q117 0 364 357q-24 -4 -44 -4z" />
    <glyph glyph-name="quotesingle" unicode="'" horiz-adv-x="187" 
d="M245 507q-16 14 -16 38q33 95 33 182q0 55 -12 106q48 -3 87.5 -20.5t52.5 -42.5q-35 -192 -145 -263z" />
    <glyph glyph-name="parenleft" unicode="(" horiz-adv-x="319" 
d="M252 -131l-12 -13q-101 119 -101 321q0 156 52 298.5t129.5 236.5t165.5 140q25 -10 56.5 -50t34.5 -56q-76 -13 -145 -72t-116 -141t-75 -179.5t-28 -189.5q0 -84 10.5 -168t28.5 -127z" />
    <glyph glyph-name="parenright" unicode=")" horiz-adv-x="322" 
d="M283 789l12 13q101 -119 101 -321q0 -156 -52 -298.5t-129.5 -236.5t-165.5 -140q-25 10 -56.5 50t-34.5 56q76 13 145 72t116 141t75 179.5t28 189.5q0 84 -10.5 168t-28.5 127z" />
    <glyph glyph-name="asterisk" unicode="*" horiz-adv-x="455" 
d="M435 832q87 -1 87 -59q0 -49 -49 -100q50 1 123 33q3 -15 3 -40q0 -20 -1.5 -30.5t-12 -21.5t-31.5 -11q-55 0 -97 18q16 -44 69 -107q-38 -23 -75 -23q-50 0 -50 111q0 12 1 19q-42 -34 -79 -100q-48 40 -48 83q0 20 41.5 41.5t68.5 27.5q-42 27 -119 44q20 68 63 68
q27 0 54.5 -24.5t44.5 -57.5q12 31 12 71q0 8 -5 58z" />
    <glyph glyph-name="plus" unicode="+" horiz-adv-x="557" 
d="M321 39q-36 6 -83 47q12 46 32 114q-31 -4 -68 -4q-36 0 -57.5 17.5t-21.5 48.5q0 6 7 31q31 -5 82 -5q61 0 89 2q51 136 93 191q24 -5 68.5 -27.5t52.5 -35.5q-42 -46 -83 -119q18 2 42 4t38.5 3.5t22.5 1.5q22 0 39 -23.5t25 -65.5q-49 5 -80 5q-60 0 -130 -9
q-37 -81 -68 -176z" />
    <glyph glyph-name="comma" unicode="," horiz-adv-x="240" 
d="M17 -169q-16 14 -16 38q93 80 93 167q0 52 -12 101q51 -3 94 -24.5t48 -46.5q-47 -166 -207 -235z" />
    <glyph glyph-name="hyphen" unicode="-" horiz-adv-x="526" 
d="M204 186q-31 0 -49.5 17.5t-18.5 48.5q0 9 6 30q22 -4 71 -4q80 0 176 10t102 10q19 0 33.5 -23.5t21.5 -65.5q-41 5 -69 5q-62 0 -149.5 -14t-123.5 -14z" />
    <glyph glyph-name="period" unicode="." horiz-adv-x="241" 
d="M125 -38q-16 2 -34 14t-22 25q0 11 4 32t8 37.5t10 38t7 25.5q25 0 69.5 -23.5t62.5 -50.5q-16 -38 -51 -68t-54 -30z" />
    <glyph glyph-name="slash" unicode="/" horiz-adv-x="545" 
d="M740 743q-168 -295 -362 -546.5t-347 -370.5q-12 2 -25 16t-17 30q91 54 232.5 242t254.5 384.5t148 302.5q24 0 66.5 -21t49.5 -37z" />
    <glyph glyph-name="zero" unicode="0" horiz-adv-x="646" 
d="M298 -36q-78 15 -121.5 65t-43.5 151q0 90 38 189.5t98 180.5t142 134t163 53t122.5 -57t41.5 -151q0 -72 -20 -149.5t-59.5 -150.5t-91.5 -132t-122.5 -95t-146.5 -38zM258 139q0 -65 23 -94.5t71 -37.5q52 3 101.5 47.5t85.5 110t64 140.5t42 141t14 109q0 118 -54 131
q-65 -8 -131 -70t-112 -146.5t-75 -174.5t-29 -156z" />
    <glyph glyph-name="one" unicode="1" horiz-adv-x="438" 
d="M374 72q33 0 51.5 -16.5t18.5 -45.5q0 -18 -5 -31q-28 5 -67 5q-43 0 -123.5 -12.5t-109.5 -12.5q-39 0 -67 15t-38 41q16 15 167 39q54 228 146 496q-61 -28 -133 -92q-11 6 -11 27q53 71 159 172q31 29 53 71q5 -1 26.5 -6t34.5 -9t30.5 -10t28.5 -14t16 -17
q-29 -24 -42 -49q-78 -141 -205 -555q37 4 70 4z" />
    <glyph glyph-name="two" unicode="2" horiz-adv-x="564" 
d="M645 558q0 -38 -15.5 -76.5t-35.5 -69t-64.5 -75.5t-75 -72.5l-94.5 -82.5q-54 -46 -79.5 -77.5t-45.5 -71.5q80 5 160 36.5t136 80.5q10 -11 21 -41.5t11 -57.5q0 -25 -11 -43q-12 -14 -44.5 -21t-60 -8t-81.5 -2q-162 -2 -208 -36q-24 11 -44 32.5t-27 46.5
q12 53 54 97t161 142q133 109 192.5 180t59.5 143q0 48 -25 76.5t-66 28.5q-58 0 -104.5 -51t-46.5 -118q0 -46 31 -84q-13 -3 -26 -3q-47 0 -78 30t-31 75q0 75 79 132.5t175 57.5q82 0 132.5 -46.5t50.5 -121.5z" />
    <glyph glyph-name="three" unicode="3" horiz-adv-x="555" 
d="M232 662q29 20 95.5 35.5t116.5 15.5q76 0 113.5 -38.5t37.5 -91.5q0 -51 -37.5 -110t-99.5 -101q126 -14 126 -126q0 -73 -40.5 -129.5t-105 -88.5t-134.5 -48t-139 -16q-36 7 -55.5 38t-19.5 77q0 2 0.5 6t0.5 7q31 -10 80 -10q73 0 147.5 20t131 63.5t56.5 99.5
q0 70 -89 82q-55 -33 -99 -33q-24 0 -39.5 21t-15.5 60q49 0 96 10.5t91.5 33.5t72 66.5t29.5 101.5q-10 38 -68 38q-49 0 -110 -27t-100 -67q-43 25 -43 93q0 12 1 18z" />
    <glyph glyph-name="four" unicode="4" horiz-adv-x="570" 
d="M620 688q80 -18 110 -64q-96 -132 -187 -312l49 10q9 -10 10 -22l-79 -29q-74 -151 -107 -302q-75 2 -107 37q35 116 88 233q-58 -7 -88 -7q-149 0 -205 68q155 175 264 410q83 -25 133 -67q-188 -215 -273 -333q45 -20 109 -20q35 0 85 4z" />
    <glyph glyph-name="five" unicode="5" horiz-adv-x="538" 
d="M175 381q27 71 82 176t90 152q53 -20 88 -54q27 2 91 15t89 21q31 -15 50.5 -45t37.5 -81q-131 34 -263 34q-63 -55 -130 -186q35 14 72 14q67 0 109.5 -48.5t42.5 -120.5q0 -71 -57 -139.5t-144.5 -111t-173.5 -43.5q-26 6 -50.5 30t-34.5 61q77 1 166 33t156 90.5
t67 123.5q0 61 -69 61q-68 0 -130 -40q-66 25 -89 58z" />
    <glyph glyph-name="six" unicode="6" horiz-adv-x="565" 
d="M550 732q23 0 67.5 -26.5t64.5 -54.5q-49 -7 -123 -51t-152.5 -121t-123.5 -160q51 53 108.5 89.5t104.5 38.5q46 -25 82.5 -69t36.5 -87q0 -58 -58.5 -139t-137.5 -139.5t-134 -58.5q-82 16 -129.5 59.5t-47.5 110.5q0 111 70.5 243t173.5 232.5t198 132.5zM494 400
q-120 -40 -199 -126.5t-79 -170.5q0 -30 19.5 -61.5t45.5 -40.5q82 40 165 145.5t83 180.5q0 49 -35 73z" />
    <glyph glyph-name="seven" unicode="7" horiz-adv-x="557" 
d="M241 364q48 8 92 8q15 0 43 -2q78 134 176 248q-72 26 -130 26q-94 0 -119 -72q-37 7 -64.5 30.5t-36.5 56.5q36 73 133 73q90 0 248 -80l42 44q26 -11 48.5 -35t30.5 -50q-115 -61 -217 -262q100 -32 132 -91l-7 -7q-47 26 -152 41q-90 -203 -90 -361q-46 8 -83 27.5
t-49 41.5q3 115 100 302q-69 0 -135 -8q0 1 -0.5 1.5t-0.5 2.5q0 14 13.5 36.5t25.5 29.5z" />
    <glyph glyph-name="eight" unicode="8" horiz-adv-x="569" 
d="M584 207q0 -106 -82 -179t-180 -73q-97 0 -156 41t-59 133q0 154 221 253q-86 80 -86 157q0 80 72.5 136t162.5 67q78 -25 124 -63.5t46 -84.5q0 -48 -52 -96.5t-128 -84.5q30 -29 43.5 -44t34.5 -43t30 -57t9 -62zM212 108q0 -52 28 -80.5t68 -28.5q56 0 100.5 51.5
t44.5 136.5q0 74 -78 150q-85 -49 -124 -109t-39 -120zM557 617q0 31 -15 50.5t-39 23.5q-45 -8 -88 -45.5t-43 -77.5q0 -56 56 -117q45 29 87 78.5t42 87.5z" />
    <glyph glyph-name="nine" unicode="9" horiz-adv-x="554" 
d="M231 -60q-30 8 -72 34t-48 45q73 9 193.5 115.5t187.5 230.5q-49 -52 -107 -91t-100 -41q-43 24 -78 73t-35 93q0 58 59.5 137t138.5 135t133 56q80 -16 126 -62.5t46 -114.5q0 -80 -70 -212.5t-176.5 -250t-197.5 -147.5zM292 290q64 13 130 63.5t108.5 116t42.5 119.5
q0 28 -27 59t-59 40q-74 -38 -147 -141.5t-73 -177.5q0 -54 25 -79z" />
    <glyph glyph-name="colon" unicode=":" horiz-adv-x="285" 
d="M143 -38q-16 2 -34 14t-22 25q0 11 4 32t8 37.5t10 38t7 25.5q25 0 69.5 -23.5t62.5 -50.5q-16 -38 -51 -68t-54 -30zM243 280q-16 2 -34 14t-22 25q0 11 4 32t8 37.5t10 38t7 25.5q25 0 69.5 -23.5t62.5 -50.5q-16 -38 -51 -68t-54 -30z" />
    <glyph glyph-name="semicolon" unicode=";" horiz-adv-x="284" 
d="M39 -169q-16 14 -16 38q93 80 93 167q0 52 -12 101q51 -3 94 -24.5t48 -46.5q-47 -166 -207 -235zM239 280q-16 2 -34 14t-22 25q0 11 4 32t8 37.5t10 38t7 25.5q25 0 69.5 -23.5t62.5 -50.5q-16 -38 -51 -68t-54 -30z" />
    <glyph glyph-name="less" unicode="&#x3c;" horiz-adv-x="516" 
d="M533 191q-141 -33 -224 -33q-151 0 -195 82q4 13 20 31t31 31.5t43 36.5t39 33q54 48 91 96.5t100 147.5q46 0 80.5 -25.5t34.5 -54.5q0 -17 -6 -43q-6 5 -14 5q-18 0 -70.5 -45.5t-135 -128l-91.5 -91.5q30 -22 126 -22q75 0 181 19q1 -3 1 -8q0 -18 -11 -31z" />
    <glyph glyph-name="equal" unicode="=" horiz-adv-x="570" 
d="M196 93q-33 0 -51.5 17t-18.5 44q0 21 8 38q44 -6 70 -6q80 0 177 9t102 9q39 0 54 -87q-44 4 -68 4q-62 0 -149.5 -14t-123.5 -14zM258 288q-31 0 -49.5 17.5t-18.5 46.5q0 9 6 33q44 -6 71 -6q80 0 176 10t102 10q41 0 55 -87q-41 5 -69 5q-62 0 -149.5 -14.5
t-123.5 -14.5z" />
    <glyph glyph-name="greater" unicode="&#x3e;" horiz-adv-x="623" 
d="M318 550q80 -23 144.5 -66t131.5 -109q62 -62 62 -131q0 -14 -3 -28q-22 -13 -79 -13q-19 0 -59.5 1.5t-58.5 1.5q-68 0 -127 -11t-168 -42q-33 46 -33 79q0 58 101 61q213 7 338 9q-4 18 -18 36t-56 60q-99 95 -209 129q3 8 14 15t20 8z" />
    <glyph glyph-name="question" unicode="?" horiz-adv-x="480" 
d="M413 777q79 -6 140.5 -63.5t61.5 -130.5q0 -30 -10.5 -59.5t-22 -50t-45 -57t-53 -55l-72.5 -69.5q-45 -43 -70 -88.5t-25 -83.5q0 -5 2 -21q-34 1 -72.5 26t-50.5 53q0 33 18.5 76.5t63 95.5t105.5 88q77 45 117 89.5t40 80.5q0 31 -23 58t-50 27q-31 0 -68.5 -52
t-37.5 -95q0 -14 3 -18q-11 -2 -23 -2q-39 0 -75 14t-43 32q15 67 76 132.5t114 72.5zM192 -77q-19 0 -40.5 15.5t-21.5 42.5t14 63.5t40 36.5q20 0 50 -20t42 -43q-10 -11 -25 -37.5t-28.5 -42t-30.5 -15.5z" />
    <glyph glyph-name="at" unicode="@" horiz-adv-x="655" 
d="M277 472q98 80 198 80q89 0 159.5 -61t70.5 -131q0 -80 -86 -176.5t-154 -96.5q-41 0 -79.5 37.5t-38.5 78.5q0 52 38 100t106 68q37 -14 64.5 -46t29.5 -64q-19 8 -40 8q-42 0 -71.5 -31.5t-29.5 -70.5q0 -28 28 -28q52 0 124 87t72 150q0 41 -35.5 70t-85.5 29
q-104 0 -204.5 -112.5t-100.5 -230.5q0 -74 42 -125.5t103 -51.5q44 0 97.5 32t131.5 104q8 -14 8 -22q-74 -75 -135.5 -117.5t-126.5 -42.5q-95 0 -167.5 88.5t-72.5 180.5q0 65 40.5 149t114.5 145z" />
    <glyph glyph-name="A" unicode="A" horiz-adv-x="642" 
d="M146 -76q-48 14 -66.5 28t-18.5 35q0 70 133 304q-68 2 -80 2q11 28 108 45q79 130 173 232.5t176 146.5q2 18 2 19q28 0 83.5 -24t59.5 -38q-76 -134 -118 -450q-12 -91 -12 -205q0 -60 2 -93q-3 -1 -12 -1q-28 0 -68.5 15.5t-45.5 28.5q-1 17 -1 52q0 129 20 258
q-53 4 -213 10q-54 -100 -81 -179q-35 -100 -41 -186zM532 525q10 36 20 90q-50 -19 -118 -92.5t-131 -174.5q84 7 191 9q14 76 38 168z" />
    <glyph glyph-name="B" unicode="B" horiz-adv-x="719" 
d="M790 551q0 -60 -33.5 -109.5t-93.5 -81.5q83 -57 83 -146q0 -71 -55 -138.5t-144.5 -109.5t-183.5 -42q-159 0 -228 113q49 152 142 355q77 168 123 230q-121 -36 -166 -80q-18 12 -36.5 44.5t-20.5 56.5q52 37 157.5 63t199.5 26q119 0 187.5 -48t68.5 -133zM409 312
q-19 9 -35 27q-112 -253 -117 -309q28 -16 82 -16q136 0 239 70.5t103 162.5q0 66 -57 95q-78 -32 -176 -32q-26 0 -39 2zM603 659q-37 0 -94 -10q4 -4 11 -18q-36 -48 -120 -232q41 9 90 9q18 0 50 -4q96 17 153.5 59.5t57.5 98.5q0 47 -38.5 72t-109.5 25z" />
    <glyph glyph-name="C" unicode="C" horiz-adv-x="604" 
d="M142 196q0 138 62 263.5t165.5 202t218.5 76.5q68 0 107 -29t39 -81q0 -39 -21.5 -83t-55.5 -72q-25 4 -45 23.5t-24 45.5q76 61 76 118q0 44 -55 44q-45 0 -96.5 -35.5t-92.5 -94.5q-139 -200 -139 -409q0 -73 22.5 -118.5t61.5 -53.5q91 21 253 172q10 -10 12 -21
q-57 -77 -121.5 -137.5t-114.5 -84.5q-123 2 -187.5 72t-64.5 202z" />
    <glyph glyph-name="D" unicode="D" horiz-adv-x="778" 
d="M168 52q43 98 126 319t105 294q-130 -53 -176 -212q-24 8 -42.5 29.5t-24.5 50.5q20 92 108 148.5t214 56.5q160 0 262 -89t102 -232q0 -128 -61.5 -242t-164.5 -182.5t-220 -68.5q-168 0 -228 128zM521 688q-50 0 -95 -14q78 -28 113 -61q-43 -60 -148 -292
q-108 -240 -108 -301q27 -9 77 -9q106 0 198.5 63.5t146 169.5t53.5 227q0 102 -63.5 159.5t-173.5 57.5z" />
    <glyph glyph-name="E" unicode="E" horiz-adv-x="609" 
d="M514 426q33 0 51.5 -18t18.5 -50q0 -18 -5 -31q-28 5 -67 5q-26 0 -54 -3t-66 -9l-51 -8q-44 -103 -73 -190.5t-31 -118.5q179 36 337 47q26 -38 26 -80q0 -18 -2 -27q-74 2 -140 2q-114 0 -261 -26q-46 18 -89 88q42 87 125 306q-45 14 -59 50q9 9 88 28q53 141 71 226
q-34 1 -54.5 19t-20.5 46q0 18 8 38q33 -5 87 -5q99 0 217.5 11t125.5 11q23 0 41 -24t27 -68q-51 5 -85 5q-71 0 -188 -17q-20 -30 -105 -220q81 13 128 13z" />
    <glyph glyph-name="F" unicode="F" horiz-adv-x="551" 
d="M520 417q32 0 50.5 -18t18.5 -50q0 -21 -5 -31q-28 5 -67 5q-26 0 -56 -3.5t-67.5 -9.5t-52.5 -8q-88 -207 -119 -383q-64 14 -109 88q25 52 121 298q-42 14 -55 49q9 9 84 26q59 158 76 238h-5q-38 0 -61.5 18t-23.5 47q0 20 9 38q31 -5 86 -5q99 0 217.5 11t125.5 11
q48 0 69 -92q-52 5 -86 5q-78 0 -174 -15q-20 -30 -110 -233q91 14 134 14z" />
    <glyph glyph-name="G" unicode="G" horiz-adv-x="650" 
d="M655 318q26 0 41 -18t15 -50q0 -20 -4 -31q-21 5 -46 6q-13 -89 -95.5 -184t-167.5 -117q-133 3 -195 70t-62 207q0 134 64 259t169.5 201.5t219.5 76.5q68 0 107 -29.5t39 -81.5q0 -66 -71 -130q-23 7 -40 25t-21 40q35 26 48.5 46.5t13.5 49.5q0 46 -55 46
q-92 0 -200 -130q-74 -88 -108 -183t-34 -213q0 -86 32.5 -142.5t80.5 -61.5q63 14 122.5 91.5t67.5 150.5q-79 -17 -102 -17q-30 0 -52.5 15t-30.5 41q35 20 126 41.5t138 21.5z" />
    <glyph glyph-name="H" unicode="H" horiz-adv-x="675" 
d="M491 58q0 79 51 249q-36 -2 -124 -11.5t-124 -10.5q-82 -193 -113 -366q-64 15 -109 88q30 63 119 295q-33 14 -44 39q9 6 66 18l13 32q42 107 57 161.5t39 189.5q79 -14 136 -107q-22 -28 -123 -256q143 19 238 25q86 249 144 310q21 -2 61 -23.5t49 -38.5
q-67 -63 -138 -267q20 -18 20 -45q0 -19 -8 -35q-13 2 -37 4q-75 -238 -75 -363q0 -16 2 -26q-25 1 -36.5 10.5t-17.5 21.5t-15 16q-13 5 -22 36.5t-9 53.5z" />
    <glyph glyph-name="I" unicode="I" horiz-adv-x="315" 
d="M131 57q0 108 84 353t141 304q21 -2 61 -23.5t48 -38.5q-54 -49 -111.5 -194.5t-92 -293t-34.5 -223.5q0 -17 3 -21q-20 1 -32 7.5t-16 14t-9.5 15.5t-13.5 11q-12 5 -20 36t-8 53z" />
    <glyph glyph-name="J" unicode="J" horiz-adv-x="512" 
d="M476 739q80 0 151 -50q-42 -210 -60 -279q-89 -339 -231 -475q-71 -68 -135 -81q-81 1 -132.5 33.5t-51.5 84.5q0 58 57 171q25 -2 60 -18t48 -32q-31 -33 -51.5 -72.5t-20.5 -68.5q0 -36 29 -55q61 23 119 86t103 155q51 105 85 261.5t34 254.5q0 41 -4 85z" />
    <glyph glyph-name="K" unicode="K" horiz-adv-x="653" 
d="M334 317q129 191 241 306t178 115q27 0 57.5 -36t31.5 -70q-123 -40 -235.5 -127.5t-193.5 -205.5q36 -93 95.5 -184t120.5 -133q-10 -21 -42.5 -39.5t-58.5 -18.5q-48 0 -86.5 85t-107.5 308zM183 -81q-64 15 -109 88q13 28 153 384q43 111 58 166t39 185
q79 -14 136 -107q-8 -10 -18.5 -29t-26.5 -53.5l-27 -59.5l-35.5 -80l-36.5 -82q-99 -222 -133 -412z" />
    <glyph glyph-name="L" unicode="L" horiz-adv-x="500" 
d="M473 57q25 -43 25 -83q0 -15 -5 -32q-31 4 -74 4q-89 0 -256 -27q-47 17 -89 88q4 10 24 54l36.5 81t43.5 106.5t53 145.5q56 163 97 352q75 -16 126 -91q-33 -57 -134 -319l-53 -136t-49.5 -128t-14.5 -58q50 2 126 21q71 17 144 22z" />
    <glyph glyph-name="M" unicode="M" horiz-adv-x="942" 
d="M514 -74q-3 -1 -12 -1q-28 0 -68.5 15.5t-45.5 28.5q-1 19 -1 58q0 231 71 498q9 32 18 82q-49 -39 -125 -155t-142.5 -268t-76.5 -260q-48 14 -66.5 28t-18.5 34q0 69 155 349q91 165 161.5 264.5t135.5 136.5q28 0 83.5 -24t59.5 -38q-30 -62 -73.5 -219.5
t-62.5 -294.5q69 164 187 345.5t186 230.5q28 0 83.5 -24t59.5 -38q-59 -106 -94.5 -299t-35.5 -349q0 -64 2 -100q-30 0 -72.5 13.5t-53.5 29.5q-1 19 -1 58q0 231 71 498q6 22 19 88q-56 -27 -134 -146t-139.5 -273.5t-69.5 -267.5z" />
    <glyph glyph-name="N" unicode="N" horiz-adv-x="683" 
d="M190 -76q-57 17 -77 32.5t-20 42.5q0 88 100.5 343t169.5 352l-7 42q28 0 90 -24.5t66 -37.5q-11 -59 -11 -176q0 -257 48 -426q50 250 114.5 451t100.5 205q22 -4 49 -24t38 -42q-59 -24 -121.5 -174.5t-99.5 -311.5t-39 -247q0 -2 1 -3q-4 -1 -13 -1q-47 0 -82.5 11.5
t-45.5 32.5q-70 282 -82 642q-58 -92 -120 -308.5t-62 -333.5q0 -33 3 -45z" />
    <glyph glyph-name="O" unicode="O" 
d="M562 728q38 -16 76.5 -46t40.5 -46q-32 7 -65 7q-88 0 -172.5 -80.5t-135.5 -202t-51 -239.5q0 -154 102 -154q49 0 109 36t109 94q69 82 110 207.5t41 249.5q0 43 -8 99q18 -9 28 -15.5t25 -23t22.5 -45.5t7.5 -69q0 -136 -60.5 -262.5t-157.5 -210.5
q-60 -52 -128.5 -81.5t-130.5 -29.5q-92 0 -140.5 59t-48.5 172q0 124 49.5 261t136.5 234.5t181 97.5q32 0 60 -12z" />
    <glyph glyph-name="P" unicode="P" horiz-adv-x="642" 
d="M782 539q0 -111 -101.5 -192.5t-241.5 -81.5q-25 0 -39.5 6.5t-32.5 25.5q-95 -208 -131 -378q-64 15 -106 88q32 62 167 384q60 145 81 228q-97 -31 -152 -77q-17 12 -36 45t-21 56q58 40 163.5 66.5t202.5 26.5q114 0 180.5 -54t66.5 -143zM604 659q-38 0 -78 -6
l12 -18q-30 -38 -143 -278q153 0 250.5 54t97.5 133q0 53 -36 84t-103 31z" />
    <glyph glyph-name="Q" unicode="Q" horiz-adv-x="719" 
d="M597 728q34 -15 71 -46t38 -46q-33 7 -62 7q-108 0 -202 -91t-151 -251q-51 -146 -51 -242q0 -56 23 -58q12 0 51.5 -9t60.5 -17q38 2 89 35t100 88q86 96 135.5 226.5t49.5 263.5q0 47 -4 65q40 -20 57.5 -47t17.5 -69q0 -121 -71.5 -267t-179.5 -246q-71 -66 -116 -74
q52 -28 128.5 -61t95.5 -36q10 1 26 13t27 27q13 -17 15 -31q-8 -28 -45 -68.5t-61 -46.5q-35 2 -63.5 15.5t-89.5 55.5q-110 76 -171.5 103t-125.5 27q-112 0 -124 -75q-15 7 -17 19q6 51 38 78t97 35q-46 40 -46 140q0 137 60 276.5t153.5 229t185.5 89.5q31 0 61 -12z
" />
    <glyph glyph-name="R" unicode="R" horiz-adv-x="691" 
d="M781 551q0 -94 -80.5 -165.5t-200.5 -88.5q32 -94 84.5 -187t103.5 -139q-9 -20 -37 -39t-51 -19q-43 0 -82 86t-93 294q-31 0 -39 2q-7 4 -15 14q-101 -222 -136 -390q-64 14 -106 88q26 50 167 384q58 137 80 228q-102 -35 -151 -77q-17 12 -36 45t-21 56
q58 40 164 66.5t197 26.5q119 0 185.5 -49.5t66.5 -135.5zM537 635q-14 -18 -57 -101t-82 -168q150 0 247 53.5t97 136.5q0 103 -147 103q-28 0 -70 -5z" />
    <glyph glyph-name="S" unicode="S" horiz-adv-x="702" 
d="M753 674q6 -34 6 -41q0 -33 -15 -61.5t-39 -40.5q-37 51 -108 77t-148 26q-72 0 -120.5 -21t-49.5 -55q4 -27 47 -60.5t86 -55.5t114 -55q112 -52 154.5 -94.5t42.5 -125.5q0 -105 -68 -174t-180 -69q-75 0 -161.5 28.5t-149.5 79.5t-63 105q0 56 53 116q3 -33 34.5 -74
t86.5 -73q104 -61 223 -61q52 0 90.5 13.5t56.5 35t26.5 38.5t9.5 32q0 13 -7.5 25.5t-24.5 25.5t-33 23t-45.5 24.5t-49 23l-55.5 24.5q-133 58 -186.5 104.5t-53.5 115.5q0 58 35 107t97 75t140 26q111 0 255 -64z" />
    <glyph glyph-name="T" unicode="T" horiz-adv-x="588" 
d="M299 606q-39 0 -61 22t-22 55q0 20 9 38q23 -11 98 -11q81 0 238.5 14t162.5 14q34 0 51.5 -25.5t26.5 -75.5q-57 5 -95 5q-60 0 -130 -8q-55 -110 -122 -313q-79 -240 -105 -405q-67 10 -112 84q29 108 131 390q57 156 76 228q-96 -12 -146 -12z" />
    <glyph glyph-name="U" unicode="U" horiz-adv-x="697" 
d="M485 673q-87 -116 -140.5 -273t-53.5 -285q0 -78 23.5 -113t78.5 -35q62 0 111.5 43.5t94.5 127.5q53 98 79 233t26 268q0 58 -4 86q11 0 46 -8t54 -18q-10 -158 -55 -322.5t-115 -277.5q-112 -183 -275 -183q-93 0 -143.5 54.5t-50.5 161.5q0 124 51 302t120 304
q35 -2 85 -23t68 -42z" />
    <glyph glyph-name="V" unicode="V" horiz-adv-x="617" 
d="M419 -64q-23 -12 -49 -12q-75 9 -105 45q-26 155 -26 305q0 50 3.5 201t3.5 262q27 0 90.5 -25t67.5 -38q-38 -104 -38 -410q0 -159 15 -246q82 250 200 477.5t165 232.5q22 -4 47 -24t34 -42q-69 -24 -163 -173.5t-161 -308.5t-84 -244z" />
    <glyph glyph-name="W" unicode="W" horiz-adv-x="953" 
d="M229 -31q-10 90 -10 180q0 99 18.5 286t25.5 302q27 0 87 -24.5t66 -38.5q-32 -74 -52 -234.5t-20 -308.5q0 -75 4 -120q57 85 160 355t126 371q28 0 89 -25t64 -38q-32 -74 -52 -234.5t-20 -308.5q0 -63 3 -109q88 231 195 447.5t143 254.5q51 -7 91 -51
q-78 -61 -208.5 -320t-186.5 -417q-26 -12 -51 -12q-76 9 -101 45q-10 55 -10 154q0 122 24 380q-139 -406 -233 -567q-25 -12 -51 -12q-76 9 -101 45z" />
    <glyph glyph-name="X" unicode="X" horiz-adv-x="637" 
d="M647 -4q-17 -19 -64 -41.5t-74 -25.5q-14 0 -22.5 9t-21 48t-25.5 100t-37 185q-116 -118 -190.5 -216.5t-74.5 -134.5q-25 3 -47.5 28t-22.5 49q6 24 45 74q80 102 279 256q-65 323 -184 323q12 29 38.5 51t56.5 27q24 0 38 -2.5t29.5 -16t24.5 -32t22.5 -61.5
t24.5 -92.5l30 -136.5q64 68 119.5 140.5t77.5 114.5q11 19 11 39q0 18 -11 47q33 -19 49 -36t28 -45q-5 -48 -53.5 -105.5t-209.5 -204.5q39 -180 74 -253t90 -88z" />
    <glyph glyph-name="Y" unicode="Y" horiz-adv-x="613" 
d="M470 345q147 162 245 381q55 -6 88 -39q-211 -253 -311 -400q-72 -247 -72 -360q-22 0 -84.5 15t-69.5 22q10 18 21.5 44t20 47.5t21.5 59.5t18.5 55.5l19 61.5t16.5 52q-58 180 -99 284.5t-75 142.5q20 8 75.5 16.5t95.5 9.5q0 -73 34 -220.5t56 -171.5z" />
    <glyph glyph-name="Z" unicode="Z" horiz-adv-x="698" 
d="M272 564q-9 32 -9 87q0 64 10 87q245 -43 446 -43q74 0 119 6q24 -33 24 -108q-109 -45 -217 -118.5t-189.5 -153t-142 -154.5t-92.5 -135q59 10 189 18q141 10 213 55q10 -20 20 -68.5t10 -83.5q0 -11 -2 -21q-165 11 -181 11q-133 0 -257.5 -28t-179.5 -83
q-3 11 -10 28.5t-11 31.5t-4 29q0 46 39 67q115 166 294 328.5t372 286.5q-60 3 -127 3q-234 0 -314 -42z" />
    <glyph glyph-name="bracketleft" unicode="[" horiz-adv-x="386" 
d="M522 791q39 0 53.5 -12t14.5 -34q0 -7 -4 -19q-30 3 -62 3q-65 0 -102 -4q-37 -154 -128 -389q-149 -383 -150 -428q113 32 167 32q59 0 59 -45q0 -7 -4 -19q-30 3 -60 3q-71 0 -180 -19q-35 13 -81 91q41 88 167 442q100 280 119 377q110 21 191 21z" />
    <glyph glyph-name="backslash" unicode="\" horiz-adv-x="660" 
d="M265 743q7 16 49.5 37t66.5 21q40 -272 108 -542.5t113 -370.5q-4 -16 -17.5 -30t-24.5 -16q-118 200 -295 901z" />
    <glyph glyph-name="bracketright" unicode="]" horiz-adv-x="385" 
d="M75 -140q-39 0 -53.5 12t-14.5 34q0 7 4 19q30 -3 62 -3q65 0 102 4q37 154 128 389q149 383 150 428q-113 -32 -167 -32q-59 0 -59 45q0 7 4 19q30 -3 60 -3q71 0 180 19q35 -13 81 -91q-41 -88 -167 -442q-100 -280 -119 -377q-110 -21 -191 -21z" />
    <glyph glyph-name="asciicircum" unicode="^" horiz-adv-x="361" 
d="M259 713q8 -118 21.5 -175t40.5 -89l-9 -1q-28 0 -59 39t-54 100q-26 -40 -55 -65.5t-50 -25.5q-28 0 -54 26q76 43 134 153l-4 25q20 14 61 14q21 0 28 -1z" />
    <glyph glyph-name="underscore" unicode="_" horiz-adv-x="569" 
d="M125 -102q-38 0 -61 17.5t-23 48.5q0 6 7 31q35 -5 88 -5q100 0 219.5 10t125.5 10q24 0 42 -23.5t26 -65.5q-51 5 -85 5q-77 0 -185.5 -14t-153.5 -14z" />
    <glyph glyph-name="grave" unicode="`" horiz-adv-x="285" 
d="M78 729q42 -69 92.5 -118.5t94.5 -66.5q-23 -19 -55 -19q-31 0 -72 19.5t-118 70.5q0 28 18.5 64.5t39.5 49.5z" />
    <glyph glyph-name="a" unicode="a" horiz-adv-x="470" 
d="M442 404q21 0 48 -12.5t26 -22.5q-91 -189 -91 -298q0 -59 26 -73q-29 -18 -65 -18q-54 0 -54 74q0 57 38 156q-40 -91 -98.5 -157.5t-105.5 -74.5q-37 1 -60 35t-23 86q0 72 40 156t100 142t112 61q20 -5 46.5 -32.5t28.5 -46.5q-80 -13 -159 -118.5t-79 -198.5
q0 -19 14 -24q55 11 159 184q48 80 97 182z" />
    <glyph glyph-name="b" unicode="b" horiz-adv-x="472" 
d="M189 -7q93 62 170.5 184.5t94.5 234.5q0 12 -13 16q-27 -1 -91 -84t-119 -184.5t-60 -149.5q-10 0 -17 20q-3 9 -23 24q-13 9 -17 19q-4 8 -4 26q0 115 53 280t129 296t138 158q20 -6 52.5 -26.5t44.5 -33.5q-219 -177 -322 -558q56 104 132.5 185.5t118.5 81.5
q32 -8 58 -38.5t30 -65.5q-2 -82 -49 -180.5t-114 -166t-121 -67.5q-23 0 -47 9.5t-24 19.5z" />
    <glyph glyph-name="c" unicode="c" horiz-adv-x="420" 
d="M103 176q0 113 85.5 205.5t190.5 92.5q52 0 80 -26t28 -74q0 -46 -23.5 -83.5t-52.5 -37.5q-26 0 -45 27q67 61 67 111q0 29 -23 29q-20 0 -50.5 -19.5t-57.5 -49.5q-88 -99 -88 -229q0 -80 36 -97q30 4 78.5 28t94.5 58q10 -8 10 -20q-33 -41 -85 -77.5t-86 -42.5
q-66 6 -112.5 66t-46.5 139z" />
    <glyph glyph-name="d" unicode="d" horiz-adv-x="433" 
d="M315 467q20 0 46 -12t46 -31q-9 84 -36 153.5t-97 181.5q7 19 37.5 43.5t55.5 28.5q57 -61 97 -177t40 -220q0 -102 -42 -212.5t-108.5 -187.5t-132.5 -88q-69 8 -105.5 44.5t-36.5 100.5q0 67 37.5 151.5t93 148.5t105.5 76zM213 -14q71 25 133.5 149.5t62.5 241.5
q0 24 -1 29q-72 -31 -156 -158t-84 -205q0 -49 45 -57z" />
    <glyph glyph-name="e" unicode="e" horiz-adv-x="404" 
d="M455 414q-7 -117 -68.5 -179.5t-198.5 -117.5q0 -4 -0.5 -12.5t-0.5 -13.5q0 -80 46 -80q33 0 71.5 22t60 42.5t51.5 52.5q10 -9 17 -17q-45 -59 -98.5 -99t-101.5 -51q-68 7 -107 49.5t-39 103.5q0 80 42.5 164t109 138.5t130.5 54.5q46 -6 86 -57zM386 381
q-56 -8 -111.5 -71.5t-78.5 -154.5q83 41 134.5 100.5t55.5 125.5z" />
    <glyph glyph-name="f" unicode="f" horiz-adv-x="342" 
d="M152 -289q-25 10 -30 38q-4 27 -34 44q33 208 142 591q-59 0 -89 -5q-9 9 -9 24q27 10 109 22q47 152 122 240.5t157 88.5q9 0 23 -1.5t17 -1.5q24 18 50 18q12 0 31 -13q-18 -31 -32 -85q-25 -74 -53 -96q-11 0 -12 29q-1 21 -6 41q-7 17 -7 34q0 11 5 43q-33 0 -80 -80
t-90 -209l84 3q11 -11 13 -59l-110 6q-172 -516 -201 -672z" />
    <glyph glyph-name="g" unicode="g" horiz-adv-x="450" 
d="M-105 -298q0 10 13 21q25 -21 37.5 -27t33.5 -6q103 0 187 106t136 298q-23 -24 -65.5 -53.5t-69.5 -40.5q-34 6 -57 43t-23 84q0 75 51.5 158.5t128.5 139t146 55.5q35 0 53 -14.5t25 -49.5q-11 6 -28 6q-46 0 -117.5 -66t-125 -155t-53.5 -148q0 -10 4 -10
q17 0 59 34.5t81 78.5q88 99 135 223q56 -3 77 -24q-46 -107 -90 -225q-61 -165 -105.5 -255.5t-110.5 -163.5q-33 -36 -80 -57t-86 -21q-49 0 -95.5 20.5t-60.5 48.5z" />
    <glyph glyph-name="h" unicode="h" horiz-adv-x="517" 
d="M96 17q0 70 27.5 183.5t73.5 231.5q40 106 104 213t132 185q32 0 70.5 -14.5t55.5 -33.5q-157 -160 -230 -303q-76 -148 -106 -270q192 245 285 245q26 0 56.5 -17.5t52.5 -45.5q-61 -67 -124 -178t-63 -152q0 -10 3 -13.5t13 -3.5q9 0 17 2t12.5 4t5.5 2q7 -12 7 -16
q0 -7 -40.5 -26.5t-56.5 -19.5q-20 0 -37 20t-17 43q0 29 32 113.5t81 182.5q0 4 -4 4q-8 0 -39 -24q-71 -53 -143.5 -152.5t-117.5 -205.5q-3 -7 -9 -13t-10 -6q-7 0 -18.5 24.5t-12.5 40.5z" />
    <glyph glyph-name="i" unicode="i" horiz-adv-x="236" 
d="M98 67q0 33 34 190q3 15 9 33t17.5 44.5t29.5 49.5t39 33q21 -5 48 -22.5t45 -43.5q-18 -20 -31.5 -40t-25.5 -45.5t-18.5 -42l-19 -50l-18.5 -49.5q-29 -76 -30 -109q0 -33 -6 -33q-15 0 -44 23.5t-29 61.5zM289 501q0 6 3 18q-12 12 -12 33q0 18 9.5 59t21.5 72
q23 0 64.5 -24t56.5 -46q-23 -21 -64.5 -72t-48.5 -67q-12 2 -21 10.5t-9 16.5z" />
    <glyph glyph-name="j" unicode="j" horiz-adv-x="236" 
d="M119 187q38 148 73 216.5t74 68.5q28 0 67 -27q-59 -105 -75 -163q-86 -303 -132 -427q-44 -118 -88 -167.5t-104 -49.5q-43 0 -84 16.5t-58 41.5q1 7 6.5 13.5t10.5 7.5q33 -34 80 -34q33 0 56 17.5t50 76t54 151t70 259.5zM282 551q0 5 3 17q-12 12 -12 34q0 18 10 60
t21 70q23 0 64.5 -24t56.5 -46q-24 -22 -65 -72.5t-48 -66.5q-12 2 -21 10.5t-9 17.5z" />
    <glyph glyph-name="k" unicode="k" horiz-adv-x="516" 
d="M99 94q0 70 65 235.5t149 317t132 185.5q28 -2 61 -38t33 -64q-90 -72 -180 -216.5t-137 -291.5q65 111 137 177t132 68q44 -32 44 -85q0 -64 -47.5 -124.5t-106.5 -72.5q54 -185 174 -253q-9 -21 -39.5 -37.5t-62.5 -16.5q-54 0 -93 105q-31 85 -54 217q31 21 79 67
q88 85 88 147q0 8 -11 8q-40 -2 -104.5 -69.5t-122.5 -167.5q-23 -41 -39 -99.5t-16 -104.5q0 -14 3 -23q-31 3 -38 16q-16 25 -25 32q-21 16 -21 88z" />
    <glyph glyph-name="l" unicode="l" horiz-adv-x="236" 
d="M96 64q0 89 80 309q123 335 223 457q24 -4 64 -27t48 -36q-150 -177 -245 -441q-86 -240 -86 -370q0 -24 1 -29q-30 3 -37 19q-7 15 -27 29q-21 14 -21 89z" />
    <glyph glyph-name="m" unicode="m" horiz-adv-x="765" 
d="M675 307q-29 -2 -82.5 -63t-122.5 -156.5t-82 -111.5q-48 20 -61 70q25 149 126 293q-29 -1 -92.5 -69.5t-126.5 -157.5l-42 -62l-36.5 -53.5t-18.5 -21.5q-39 28 -51 90q2 57 26 134q33 107 130 277q52 -11 98 -57q-9 -29 -71 -132t-71 -165l43.5 60.5l47.5 63.5
t55 67.5l52 53t54 42t46 13.5q22 0 50 -13.5t31 -20.5q-6 -24 -62 -125.5t-61 -131.5q110 150 181 223t124 73q48 0 62 -41q-8 -28 -41 -95.5t-58.5 -131.5t-25.5 -106q0 -20 5.5 -27t17.5 -7q9 0 22.5 4.5t15.5 4.5q8 -5 8 -21q-48 -37 -88 -37q-83 0 -83 101
q0 32 10.5 70.5t19 58.5t29.5 62.5z" />
    <glyph glyph-name="n" unicode="n" horiz-adv-x="540" 
d="M259 485q26 -8 49 -35.5t34 -60.5q-11 -26 -74.5 -133.5t-68.5 -142.5q23 24 73 83t60 70q144 153 210 153q43 0 71 -54q0 -1 -3 -3t-10.5 -7.5t-15.5 -14.5q-33 -43 -68.5 -124t-35.5 -137q0 -23 6 -31t19 -8q8 0 23 5t19 5q9 -5 9 -20q-16 -14 -43 -27.5t-43 -13.5
q-54 0 -74.5 28t-20.5 78q0 53 55 180q-2 0 -13 -6t-30.5 -20t-37.5 -31q-86 -83 -161 -187q-51 -72 -67 -81q-34 20 -46 78q0 39 21 114.5t54 150.5q24 54 48 99.5t39.5 67.5t21.5 25z" />
    <glyph glyph-name="o" unicode="o" horiz-adv-x="441" 
d="M215 -35q-57 6 -91 50t-34 112q0 80 46 166.5t117 138.5q55 41 103 41q32 -17 63 -71q3 0 9 0.5t9 0.5q53 0 53 -94q0 -125 -77.5 -221.5t-197.5 -122.5zM266 280q-34 -46 -57.5 -104.5t-23.5 -98.5q0 -24 8 -46t18 -25q90 20 148 107t58 203q0 47 -13 67
q-76 -22 -138 -103z" />
    <glyph glyph-name="p" unicode="p" horiz-adv-x="498" 
d="M24 -331q-14 4 -16 30q-7 24 -7 72q0 43 27 141t70 207q89 225 116 309q8 25 31.5 65t40.5 55q35 -5 66 -18t38 -25q-28 -26 -66 -99.5t-53 -127.5q21 36 75 92q76 79 126 79q38 0 62.5 -21t24.5 -54q0 -150 -93 -270q-35 -45 -88.5 -78t-91.5 -33q-40 0 -50 26
q78 46 144.5 159t90.5 241q-78 -41 -129 -105q-74 -92 -93 -119.5t-39 -73.5q-65 -146 -147 -487q-11 2 -19 16q-15 17 -20 19z" />
    <glyph glyph-name="q" unicode="q" horiz-adv-x="452" 
d="M497 444q16 0 33.5 -7.5t25.5 -18.5q-114 -231 -167 -353q-102 -240 -130 -428q-4 -4 -18 -4q-16 0 -18 10q-4 12 -21 17q-18 5 -21 26q11 176 105 398q-72 -73 -99 -78q-28 0 -61.5 49.5t-33.5 90.5q0 56 49 156q80 159 238 188q28 -3 55 -25t31 -45q2 6 14 15t18 9z
M318 177q39 53 73 110.5t48 88.5l14 30q-9 9 -41 9q-26 0 -61.5 -26t-63.5 -65q-103 -142 -103 -263q0 -7 9 -7q70 49 125 123z" />
    <glyph glyph-name="r" unicode="r" horiz-adv-x="403" 
d="M73 20q10 59 47 178.5t73 203.5q23 56 45 78q28 -4 58 -19t42 -29q-49 -58 -89 -178q116 105 173 190q6 5 21 5q35 0 45 -17q-18 -48 -18 -95q0 -44 13 -66q-2 -16 -41 -55q-58 29 -79 92q-94 -65 -136.5 -134.5t-71.5 -207.5q-18 2 -46.5 20.5t-35.5 33.5z" />
    <glyph glyph-name="s" unicode="s" horiz-adv-x="346" 
d="M442 398q-2 -38 -20 -76.5t-34 -38.5q-11 1 -13 15q0 3 8 24t8 30q0 14 -7 23.5t-17 9.5q-82 0 -82 -197q0 -10 1 -12q56 2 70 2q1 -2 1 -8q0 -9 -4 -13q-47 -11 -57 -15.5t-10 -15.5q0 -4 0.5 -15.5t0.5 -20.5q0 -83 -46 -134.5t-126 -59.5q-28 2 -57.5 26t-37.5 52
q0 77 59.5 133.5t146.5 62.5q0 36 -15.5 96t-15.5 86q0 53 40 102.5t92 60.5q23 -6 66 -50t49 -67zM112 -58q48 19 83 71.5t35 104.5q-39 -5 -88.5 -55.5t-49.5 -84.5q0 -22 20 -36z" />
    <glyph glyph-name="t" unicode="t" horiz-adv-x="352" 
d="M213 383h-57q-4 6 -8.5 25.5t-4.5 33.5q14 -1 46.5 -3t47.5 -3q30 60 67 114t53 63q21 0 57.5 -12.5t46.5 -23.5q-48 -60 -98 -145q45 0 82 4q11 -11 11 -28q-49 -18 -119 -20q-49 -96 -77.5 -187t-28.5 -153q0 -44 33 -49q60 7 105 43q6 -9 7 -15q-11 -17 -51.5 -44
t-57.5 -29q-49 1 -95.5 36t-46.5 70q0 49 25 139.5t63 183.5z" />
    <glyph glyph-name="u" unicode="u" horiz-adv-x="494" 
d="M369 22q-32 27 -32 81q0 21 5 36q-5 0 -25.5 -25t-46.5 -60t-33 -43q-28 -29 -43 -31q-35 2 -68 23.5t-41 54.5q0 48 8 85q21 89 71 189t108 142q22 0 49 -8t40 -23q-9 -9 -25 -33t-45.5 -79t-56.5 -119q-12 -27 -27 -79.5t-15 -76.5q0 -11 7 -18q14 6 36.5 31.5
t65.5 84.5q1 2 17.5 23.5t23.5 32l20 30t22 37t15 34.5q33 91 78 134q26 0 56 -10.5t39 -21.5q-14 -33 -51.5 -107.5t-56 -127t-18.5 -99.5q0 -34 11 -62.5t11 -29.5l-4 -4q-14 0 -43 12t-52 27z" />
    <glyph glyph-name="v" unicode="v" horiz-adv-x="448" 
d="M152 354q0 42 15 64t57 22t57 -14q-13 -51 -15 -151q-3 -152 -27 -228q0 -4 3 -4q29 22 74.5 79t80.5 116q69 119 101 240q13 0 34.5 -8t27.5 -15q-6 -127 -173 -318q-99 -116 -212 -185q-56 21 -56 61q0 10 9 35.5t18 73.5t9 114q0 24 -1.5 66t-1.5 52z" />
    <glyph glyph-name="w" unicode="w" horiz-adv-x="635" 
d="M106 41q0 40 16.5 134t36.5 165q27 98 109 98q23 0 44 -7t25 -18q-19 -15 -34 -38.5t-23.5 -43t-17 -55.5t-11.5 -52t-9 -58.5t-7 -50.5q74 98 115 136q29 27 40 45t21 46q21 65 43 86q4 1 17 1q64 0 68 -22q-12 -16 -23.5 -47t-22 -77l-17.5 -79t-16.5 -87.5
l-11.5 -66.5q10 4 51 53t70 93q36 55 52 103.5t36 154.5q6 8 26 13.5t38 5.5q15 0 22 -5q-9 -105 -51 -178.5t-141 -180.5q-127 -137 -154 -137q-23 0 -38 18t-15 46q0 52 11 96q19 74 21 98q-23 -11 -99 -108l-60 -86t-52 -74q-59 18 -59 79z" />
    <glyph glyph-name="x" unicode="x" horiz-adv-x="426" 
d="M408 6q-10 -16 -33 -27t-46 -13q-44 52 -78 135q-101 -91 -197 -147q-24 5 -26 38q45 25 107 72t97 87q-33 77 -56 163t-23 126q0 14 4 18.5t16 4.5q47 0 110 -21q-2 -14 -2 -42q0 -80 28 -167q79 91 147 242q56 -10 66 -35q-24 -97 -192 -265q22 -62 78 -169z" />
    <glyph glyph-name="y" unicode="y" horiz-adv-x="489" 
d="M473 155q-46 -149 -95.5 -246t-121.5 -171q-94 -99 -193 -99q-49 0 -95.5 20.5t-61.5 48.5q0 12 14 21q23 -21 36 -27t35 -6q114 0 214.5 128.5t156.5 344.5q-105 -166 -169 -189q-35 2 -68.5 23.5t-41.5 54.5q0 49 9 85q22 89 72 189t107 142q60 0 91 -31
q-16 -14 -53 -75.5t-77 -155.5q-12 -31 -27 -82t-15 -74q0 -11 7 -18q45 8 116 112q35 52 88.5 151t80.5 144q26 0 57 -10.5t40 -21.5q-72 -154 -106 -258z" />
    <glyph glyph-name="z" unicode="z" horiz-adv-x="472" 
d="M61 14q0 33 102.5 132.5t232.5 193.5q-78 17 -106 17q-56 0 -97 -34q-46 40 -46 92q0 16 1 19q37 35 90 35q40 0 114 -28.5t96 -28.5q25 0 47 11q9 -7 16.5 -28.5t7.5 -40.5q-62 -24 -163 -111t-158 -166q21 -9 57 -9q46 0 93.5 15t73.5 37q47 -30 47 -88q0 -7 -2 -25
q-46 -29 -100 -29q-39 0 -106.5 17t-89.5 17q-48 0 -78 -45q-29 12 -32 47z" />
    <glyph glyph-name="braceleft" unicode="{" horiz-adv-x="335" 
d="M448 812q33 0 70 -40q-29 -15 -50 -35.5t-34.5 -50.5t-20.5 -52.5t-16 -63.5q-7 -29 -11.5 -45.5t-13.5 -42.5t-19.5 -43t-25.5 -35.5t-36.5 -32t-47.5 -22.5q75 -45 75 -127q0 -44 -24 -106t-47.5 -116t-23.5 -79q0 -27 22 -42t65 -25l-8 -16q-168 25 -168 121
q0 38 46 142t46 153q0 78 -90 78q-13 7 -15 20l35 16q40 18 65 53t34 69l22.5 89t26.5 90q25 65 62 104t82 39z" />
    <glyph glyph-name="bar" unicode="|" horiz-adv-x="276" 
d="M180 -130l-82 42q4 179 101 494t179 424q24 -4 64 -27t48 -36q-78 -86 -146.5 -259.5t-105.5 -331.5t-58 -306z" />
    <glyph glyph-name="braceright" unicode="}" horiz-adv-x="335" 
d="M98 -162q-32 0 -70 40q29 15 50 35.5t34.5 50.5t20.5 52.5t16 63.5q7 29 11.5 45.5t13.5 42.5t19.5 43t25.5 35.5t36.5 32t47.5 22.5q-75 45 -75 127q0 44 24 106t47.5 116t23.5 79q0 27 -22 42t-65 25l8 16q168 -25 168 -121q0 -38 -46 -142t-46 -153q0 -78 90 -78
q13 -7 15 -20l-35 -16q-40 -18 -65 -53t-34 -69l-22.5 -89t-26.5 -90q-25 -65 -62 -104t-82 -39z" />
    <glyph glyph-name="asciitilde" unicode="~" horiz-adv-x="441" 
d="M138 269q37 22 89 22q20 0 57 -4.5t55 -4.5q62 0 91 18q27 -27 37 -79q-37 -29 -86 -29q-37 0 -92 19.5t-107 19.5q-22 0 -35 -1q-5 8 -9 39z" />
    <glyph glyph-name="uni00A0" unicode="&#xa0;" horiz-adv-x="238" 
 />
    <glyph glyph-name="exclamdown" unicode="&#xa1;" horiz-adv-x="274" 
d="M290 254q0 -53 -50 -188.5t-114.5 -261.5t-101.5 -153q-31 7 -68.5 40.5t-42.5 58.5q107 88 196 247.5t120 334.5q21 -6 31.5 -11.5t20 -22t9.5 -44.5zM301 369q-21 0 -41 18t-20 30q0 32 13.5 71t33.5 39q27 0 56 -19t43 -44q-11 -12 -25.5 -38t-28 -41.5t-31.5 -15.5z
" />
    <glyph glyph-name="cent" unicode="&#xa2;" horiz-adv-x="505" 
d="M554 702l-15 -47l-15 -48q42 -8 69 -34t27 -64q0 -46 -23.5 -83.5t-52.5 -37.5q-25 0 -45 27q67 61 67 111q0 37 -56 37q-87 -275 -137 -396q71 25 143 79q10 -8 10 -20q-27 -33 -80 -66t-97 -48q-32 -71 -77 -147q-15 3 -18 15q25 49 54 128q-72 12 -112 68.5t-40 134.5
q0 112 82 199t218 98q19 79 29 140q42 -12 69 -46zM267 257q0 -74 61 -93q63 180 114 385q-81 -32 -128 -118.5t-47 -173.5z" />
    <glyph glyph-name="sterling" unicode="&#xa3;" horiz-adv-x="648" 
d="M249 286q-73 0 -73 59q0 16 4 29q45 -6 77 -6q33 0 49 1l13 49q21 80 43 133t54.5 95t77.5 63.5t108 26.5q106 -40 106 -116q0 -53 -62 -147q-16 5 -32 21t-23 36q73 50 73 103q0 41 -46 62q-22 -4 -40.5 -14t-35 -32t-27.5 -38.5t-25.5 -53.5l-21 -54t-21.5 -64t-20 -61
q98 10 100 10q44 0 57 -78q-41 5 -72 5q-49 0 -110 -9q-26 -69 -52 -116t-49.5 -70t-37 -32t-30.5 -15q25 0 88 -9t97 -9q103 0 174 63q27 -41 27 -94q0 -16 -3 -29q-79 -52 -165 -52q-57 0 -154 30t-143 30q-45 0 -56 -27q-11 0 -22.5 19.5t-12.5 43.5q87 30 136 91t82 158
q-22 -2 -32 -2z" />
    <glyph glyph-name="currency" unicode="&#xa4;" horiz-adv-x="619" 
d="M600 440q0 -120 -87 -216q59 -81 104 -111q-7 -27 -29 -29q-49 40 -104 111q-70 -62 -133 -62q-31 0 -57 19q-56 -43 -108 -74q-22 5 -24 34q38 17 105 68q-27 39 -27 96q0 95 69 195q-36 66 -73 147q12 23 47 23q5 0 17 -2q8 -51 43 -126q65 72 135 72q71 0 105 -69
q38 57 50 97q46 0 60 -32l-94 -128q1 -4 1 -13zM505 509q-72 0 -126 -89.5t-54 -188.5q0 -33 11 -49.5t27 -16.5q37 0 81 53t73 122.5t29 116.5q0 52 -41 52z" />
    <glyph glyph-name="yen" unicode="&#xa5;" horiz-adv-x="681" 
d="M342 250q-33 0 -49.5 16t-16.5 43q0 16 4 29q44 -6 71 -6q38 0 57 1q-104 317 -158 378q20 8 75.5 16.5t95.5 9.5q0 -73 34 -220.5t56 -171.5q147 162 245 381q55 -6 88 -39q-189 -226 -270 -340q42 5 55 5q42 0 55 -78q-41 5 -69 5q-43 0 -86 -5q-9 -31 -25 -93
q72 8 77 8q42 0 55 -78q-41 5 -69 5q-38 0 -80 -5q-26 -120 -26 -184q-22 0 -84.5 15t-69.5 22q25 44 55 128q-38 -5 -68 -5q-33 0 -49.5 16t-16.5 43q0 16 4 29q44 -6 71 -6q31 0 85 2l14 44.5l13 40.5q-48 -6 -73 -6z" />
    <glyph glyph-name="brokenbar" unicode="&#xa6;" horiz-adv-x="268" 
d="M295 388l-83 47q33 129 75.5 236.5t80.5 158.5q24 -5 68.5 -27.5t52.5 -35.5q-109 -120 -194 -379zM155 334q21 -1 62 -18t60 -33q-89 -217 -98 -413l-80 39q2 102 17 236.5t39 188.5z" />
    <glyph glyph-name="section" unicode="&#xa7;" horiz-adv-x="415" 
d="M392 629q66 -3 110 -64q-55 -8 -100.5 -44.5t-45.5 -79.5q0 -27 22.5 -54.5l45 -55t22.5 -55.5q0 -44 -46 -81t-106 -47q-13 15 -13 28q2 2 17 13.5t22.5 18.5t19 20t17 26.5t5.5 28.5q0 27 -22.5 49.5t-49.5 36.5t-49.5 38.5t-22.5 55.5q0 30 19 58.5t48.5 49.5t55.5 35
t51 23zM252 347q34 -8 73 -46q-34 -13 -64 -44t-30 -62q0 -24 21.5 -46.5t47 -37.5t47 -39t21.5 -51q0 -56 -71.5 -108t-143.5 -52q-67 0 -67 49q0 36 35 65q-5 -17 -5 -34q0 -38 33 -38q38 0 81 42.5t43 78.5q0 23 -25 39t-55 25.5t-55 34t-25 61.5q0 52 41 99t98 64z" />
    <glyph glyph-name="dieresis" unicode="&#xa8;" horiz-adv-x="305" 
d="M20 605q0 92 58 95q14 -2 36.5 -15.5t31.5 -28.5q0 -1 -16 -25.5l-34.5 -52t-24.5 -32.5q-41 17 -51 59zM151 583q0 93 56 95q13 -1 35.5 -14.5t33.5 -29.5q0 -4 -33 -53t-44 -55q-35 13 -48 57z" />
    <glyph glyph-name="copyright" unicode="&#xa9;" horiz-adv-x="667" 
d="M536 467q34 0 53 -21t19 -50t-19.5 -49.5t-57.5 -21.5q1 1 13 15t21 27.5t9 23.5q0 16 -23 20q-42 -9 -85 -60.5t-43 -86.5q0 -28 30 -28q17 0 49 15t44 16q6 0 8 -9q-3 -7 -49 -33t-74 -30q-77 10 -77 73q0 61 59 130t123 69zM674 252l5 -4q-51 -91 -137 -148t-191 -57
q-99 0 -152 50.5t-53 130.5q0 60 29.5 129t76 126t109.5 94.5t124 37.5q89 0 165.5 -70t76.5 -165q0 -57 -37 -111l-2 7q15 34 15 84q0 76 -57 136t-116 60q-54 0 -120.5 -56.5t-112 -135.5t-45.5 -140q0 -51 36 -81t106 -30q76 0 151.5 36.5t128.5 106.5z" />
    <glyph glyph-name="ordfeminine" unicode="&#xaa;" horiz-adv-x="371" 
d="M469 682q15 0 34.5 -8t18.5 -14q-65 -118 -65 -185q0 -36 19 -45q-20 -11 -47 -11q-39 0 -39 46q0 36 27 96q-33 -58 -76 -98.5t-79 -44.5q-26 1 -42.5 22t-16.5 53q0 69 62.5 144t122.5 78q15 -3 34 -20t20 -29q-59 -7 -117 -73t-58 -123q0 -12 10 -15q49 9 122 114
q42 61 70 113z" />
    <glyph glyph-name="guillemotleft" unicode="&#xab;" horiz-adv-x="1074" 
d="M470 52q-86 20 -142.5 38.5t-111.5 50.5q-51 30 -79 73q-21 33 -22 64q9 10 31 19.5t42 15t54.5 14t49.5 12.5q70 20 124 47t154 89q27 -12 51.5 -43t24.5 -52q0 -25 -31 -63q-7 13 -22 13t-50 -8q-51 -12 -182.5 -56t-139.5 -47q9 -17 28 -31t70 -41q46 -24 139 -54
q5 -2 20.5 -6t17.5 -5q-1 -8 -9.5 -17.5t-16.5 -12.5zM980 52q-86 20 -142.5 38.5t-111.5 50.5q-51 30 -79 73q-21 33 -22 64q9 10 31 19.5t42 15t54.5 14t49.5 12.5q70 20 124 47t154 89q27 -12 51.5 -43t24.5 -52q0 -25 -31 -63q-7 13 -22 13t-50 -8q-51 -12 -182.5 -56
t-139.5 -47q9 -17 28 -31t70 -41q46 -24 139 -54q5 -2 20.5 -6t17.5 -5q-1 -8 -9.5 -17.5t-16.5 -12.5z" />
    <glyph glyph-name="logicalnot" unicode="&#xac;" horiz-adv-x="602" 
d="M581 328q0 -20 9.5 -81t9.5 -91q0 -79 -57 -79q-9 0 -30 6q7 35 7 78q0 61 -16 139q-64 0 -160.5 -15t-123.5 -15q-36 0 -54 15t-18 53q0 9 6 30q22 -4 71 -4q231 0 361 33q-5 -41 -5 -69z" />
    <glyph glyph-name="uni00AD" unicode="&#xad;" horiz-adv-x="526" 
d="M204 186q-31 0 -49.5 17.5t-18.5 48.5q0 9 6 30q22 -4 71 -4q80 0 176 10t102 10q19 0 33.5 -23.5t21.5 -65.5q-41 5 -69 5q-62 0 -149.5 -14t-123.5 -14z" />
    <glyph glyph-name="registered" unicode="&#xae;" horiz-adv-x="666" 
d="M674 252l5 -4q-51 -91 -137.5 -148t-191.5 -57q-98 0 -151 50.5t-53 130.5q0 60 29.5 129t76 126t109.5 94.5t124 37.5q89 0 165.5 -70t76.5 -165q0 -58 -38 -111l-2 7q16 33 16 84q0 76 -57 136t-116 60q-54 0 -121 -56.5t-112.5 -135.5t-45.5 -140q0 -51 36.5 -81
t106.5 -30q76 0 151.5 36.5t128.5 106.5zM430 277q-45 -39 -52 -82q-38 0 -57 31q22 18 47 45t40.5 46.5l40.5 53.5l32 43q-36 -5 -55 -24q-12 4 -22 15.5t-11 25.5q36 30 97 30q44 0 80 -19t48 -55q-2 -36 -28 -59t-55.5 -30t-60.5 -7q31 -36 75 -36q24 0 44 14
q0 -26 -16 -43t-45 -17q-32 0 -57 30.5t-45 37.5zM466 316q1 -1 5 -1q97 0 118 54q-3 24 -41 41q-23 -20 -47.5 -48t-34.5 -46z" />
    <glyph glyph-name="macron" unicode="&#xaf;" horiz-adv-x="346" 
d="M22 628q45 -3 91 -3q106 0 195 20q18 -34 18 -87q-73 -9 -154 -9q-93 0 -152 13q2 26 2 66z" />
    <glyph glyph-name="degree" unicode="&#xb0;" horiz-adv-x="384" 
d="M327 403q-55 0 -85.5 28.5t-30.5 81.5q0 82 55 150.5t121 68.5q59 0 103 -44t44 -103q0 -73 -62 -127.5t-145 -54.5zM475 595q0 36 -21.5 58.5t-55.5 22.5q-48 0 -85.5 -47.5t-37.5 -108.5q0 -67 62 -67q55 0 96.5 43t41.5 99z" />
    <glyph glyph-name="plusminus" unicode="&#xb1;" horiz-adv-x="617" 
d="M376 169q-36 6 -83 47q11 40 29 95q-43 -5 -77 -5q-36 0 -57.5 17.5t-21.5 48.5q0 6 7 31q31 -5 82 -5q37 0 101 2q50 121 93 171q24 -5 68.5 -27.5t52.5 -35.5q-44 -48 -77 -97q15 1 34 3t31.5 3t19.5 1q22 0 39 -23.5t25 -65.5q-49 5 -80 5q-55 0 -118 -7
q-32 -62 -68 -158zM205 46q-36 0 -57.5 17.5t-21.5 48.5q0 6 7 31q31 -5 82 -5q93 0 204.5 10t118.5 10q22 0 39 -23.5t25 -65.5q-49 5 -80 5q-72 0 -174 -14t-143 -14z" />
    <glyph glyph-name="twosuperior" unicode="&#xb2;" horiz-adv-x="360" 
d="M508 639q0 -18 -10.5 -35.5t-38 -39.5t-47.5 -35l-65 -42q-44 -28 -59 -46q85 6 149 48q26 -23 26 -48q0 -26 -42.5 -31t-102.5 -5t-85 -13q-39 12 -50 38q8 22 32.5 40.5t90.5 56.5q66 39 99 67t33 54q0 16 -11 25.5t-29 9.5q-28 0 -50.5 -18t-22.5 -42q0 -16 23 -36
q-20 -4 -29 -4q-30 0 -50 13.5t-20 33.5q0 31 46 55.5t102 24.5q50 0 80.5 -19.5t30.5 -51.5z" />
    <glyph glyph-name="threesuperior" unicode="&#xb3;" horiz-adv-x="342" 
d="M265 682q18 10 56 16.5t67 6.5q47 0 70 -16.5t23 -39.5q0 -42 -64 -79q58 -8 58 -53q0 -30 -23.5 -53.5t-60.5 -36.5t-77 -19.5t-79 -6.5q-49 8 -49 53v5q1 5 1 6q34 -6 53 -6q60 0 116.5 18t56.5 48q0 19 -36 25q-33 -12 -57 -12q-17 0 -28.5 11.5t-11.5 32.5
q60 0 108 18t50 57q-7 10 -27 10q-25 0 -58 -11t-55 -28q-35 14 -35 44q0 6 2 10z" />
    <glyph glyph-name="acute" unicode="&#xb4;" horiz-adv-x="285" 
d="M207 729q21 -13 39.5 -49.5t18.5 -64.5q-77 -51 -118 -70.5t-72 -19.5q-32 0 -55 19q44 17 94.5 66.5t92.5 118.5z" />
    <glyph glyph-name="mu" unicode="&#xb5;" horiz-adv-x="519" 
d="M384 22q-32 27 -32 81q0 21 5 36q-5 0 -25.5 -25.5l-46 -59.5t-33.5 -43q-26 -29 -43 -31q-36 2 -42 30q-34 -105 -34 -160q0 -74 52 -87q-2 -14 -7 -23q-65 11 -94 37.5t-29 79.5q0 35 26.5 152t82 262t116.5 203q23 0 53 -8t43 -23q-9 -9 -25 -33t-45.5 -79t-56.5 -119
q-12 -27 -27 -79.5t-15 -76.5q0 -11 7 -18q14 6 36.5 31.5t65.5 84.5q1 2 17.5 23.5t23.5 32l20 30t22 37t15 34.5q33 91 78 134q26 0 56 -10.5t39 -21.5q-14 -33 -51.5 -107.5t-56 -127t-18.5 -99.5q0 -34 11 -62.5t11 -29.5l-4 -4q-14 0 -43 12t-52 27z" />
    <glyph glyph-name="paragraph" unicode="&#xb6;" horiz-adv-x="610" 
d="M500 512q48 0 84 -20q-70 -139 -138 -343t-68 -266q0 -28 4 -33q-73 12 -94 55q0 10 22.5 73l68 183.5l64.5 172.5q-97 -66 -154 -66q-44 0 -78 31.5t-34 97.5q0 61 27.5 115.5t73 93.5t103.5 68.5t118.5 45t119.5 19.5q54 0 87 -34t33 -85q0 -54 -25 -54
q-2 24 -11.5 33.5t-33.5 9.5q-66 0 -159.5 -36.5t-166.5 -97t-73 -118.5q0 -36 40 -36q62 0 145 46q43 120 45 145zM698 511q-15 -45 -62.5 -159.5t-81.5 -209.5t-34 -141q0 -22 6 -37q-30 0 -54 18.5t-24 48.5q0 50 77 250t88 249q40 0 85 -19z" />
    <glyph glyph-name="periodcentered" unicode="&#xb7;" horiz-adv-x="227" 
d="M184 191q-14 2 -28.5 12t-18.5 21q0 15 25 110q21 0 58 -19.5t51 -41.5q-13 -31 -42 -56.5t-45 -25.5z" />
    <glyph glyph-name="cedilla" unicode="&#xb8;" horiz-adv-x="255" 
d="M134 17l25 -3q-58 -69 -82 -125q19 10 50 18t50 8q9 0 33.5 -20.5t24.5 -28.5q0 -20 -84 -93t-108 -73q-4 0 -12.5 15t-8.5 21q47 40 71.5 67t50.5 69q-44 -8 -116 -35q-6 3 -8 12q8 24 43 77t71 91z" />
    <glyph glyph-name="onesuperior" unicode="&#xb9;" horiz-adv-x="312" 
d="M365 455q48 0 48 -29q0 -1 -2 -9t-3 -11q-5 0 -14.5 1t-16.5 1.5t-13 0.5q-22 0 -65 -5t-62 -5q-53 0 -68 30q9 7 93 18q22 69 71 175q-26 -11 -53 -29q-18 5 -18 19q15 14 60 45.5t60 54.5q79 -15 92 -30q-24 -12 -61.5 -78.5t-72.5 -149.5q5 0 13.5 0.5t11.5 0.5z" />
    <glyph glyph-name="ordmasculine" unicode="&#xba;" horiz-adv-x="336" 
d="M296 411q-40 3 -65 30.5t-25 69.5q0 49 33.5 103t84.5 86q38 25 74 25q23 -9 45 -44q2 0 6.5 0.5t6.5 0.5q38 0 38 -58q0 -78 -55.5 -137.5t-142.5 -75.5zM333 606q-25 -28 -41.5 -64.5t-16.5 -61.5q0 -15 5.5 -28.5t12.5 -15.5q65 12 107 66t42 126q0 29 -10 42
q-53 -14 -99 -64z" />
    <glyph glyph-name="guillemotright" unicode="&#xbb;" horiz-adv-x="1043" 
d="M193 437q57 0 116 -14.5t97 -30.5t101 -46q97 -58 101 -137q-9 -10 -31 -19.5t-42 -15t-54.5 -14t-49.5 -12.5q-70 -20 -124 -47t-154 -89q-56 45 -56 82q0 44 83 71q179 60 322 103q-9 17 -28 31t-70 41q-118 63 -237 65q1 9 9.5 19t16.5 13zM673 437q57 0 116 -14.5
t97 -30.5t101 -46q97 -58 101 -137q-9 -10 -31 -19.5t-42 -15t-54.5 -14t-49.5 -12.5q-70 -20 -124 -47t-154 -89q-56 45 -56 82q0 44 83 71q179 60 322 103q-9 17 -28 31t-70 41q-118 63 -237 65q1 9 9.5 19t16.5 13z" />
    <glyph glyph-name="onequarter" unicode="&#xbc;" horiz-adv-x="787" 
d="M827 713q-142 -211 -319.5 -427.5t-290.5 -324.5q-12 2 -25 16t-17 30q115 104 288.5 340.5t267.5 413.5q24 0 56.5 -16t39.5 -32zM373 455q48 0 48 -29q0 -1 -2 -9t-3 -11q-5 0 -14.5 1t-16.5 1.5t-13 0.5q-22 0 -65 -5t-62 -5q-53 0 -68 30q9 7 93 18q22 69 71 175
q-26 -11 -53 -29q-18 5 -18 19q15 14 60 45.5t60 54.5q79 -15 92 -30q-24 -12 -61.5 -78.5t-72.5 -149.5q5 0 13.5 0.5t11.5 0.5zM749 244q54 -3 78 -30q-55 -55 -97 -113q8 2 15 2q10 -7 13 -18l-47 -13q-35 -54 -57 -119q-56 2 -77 20q18 43 43 83q-58 0 -88.5 6t-67.5 27
q86 68 151 167q56 -14 88 -34q-111 -91 -147 -127q21 -4 46 -4q27 0 41 1q83 121 106 152z" />
    <glyph glyph-name="onehalf" unicode="&#xbd;" horiz-adv-x="810" 
d="M827 713q-142 -211 -319.5 -427.5t-290.5 -324.5q-12 2 -25 16t-17 30q115 104 288.5 340.5t267.5 413.5q24 0 56.5 -16t39.5 -32zM373 455q48 0 48 -29q0 -1 -2 -9t-3 -11q-5 0 -14.5 1t-16.5 1.5t-13 0.5q-22 0 -65 -5t-62 -5q-53 0 -68 30q9 7 93 18q22 69 71 175
q-26 -11 -53 -29q-18 5 -18 19q15 14 60 45.5t60 54.5q79 -15 92 -30q-24 -12 -61.5 -78.5t-72.5 -149.5q5 0 13.5 0.5t11.5 0.5zM820 189q0 -18 -10.5 -35.5t-38 -39.5t-47.5 -35l-65 -42q-44 -28 -59 -46q85 6 149 48q26 -23 26 -48q0 -26 -42.5 -31t-102.5 -5t-85 -13
q-39 12 -50 38q8 22 32.5 40.5t90.5 56.5q66 39 99 67t33 54q0 16 -11 25.5t-29 9.5q-28 0 -50.5 -18t-22.5 -42q0 -16 23 -36q-20 -4 -29 -4q-30 0 -50 13.5t-20 33.5q0 31 46 55.5t102 24.5q50 0 80.5 -19.5t30.5 -51.5z" />
    <glyph glyph-name="threequarters" unicode="&#xbe;" horiz-adv-x="797" 
d="M837 713q-142 -211 -319.5 -427.5t-290.5 -324.5q-12 2 -25 16t-17 30q115 104 288.5 340.5t267.5 413.5q24 0 56.5 -16t39.5 -32zM269 682q18 10 56 16.5t67 6.5q47 0 70 -16.5t23 -39.5q0 -42 -64 -79q58 -8 58 -53q0 -30 -23.5 -53.5t-60.5 -36.5t-77 -19.5t-79 -6.5
q-49 8 -49 53v5q1 5 1 6q34 -6 53 -6q60 0 116.5 18t56.5 48q0 19 -36 25q-33 -12 -57 -12q-17 0 -28.5 11.5t-11.5 32.5q60 0 108 18t50 57q-7 10 -27 10q-25 0 -58 -11t-55 -28q-35 14 -35 44q0 6 2 10zM759 244q54 -3 78 -30q-55 -55 -97 -113q8 2 15 2q10 -7 13 -18
l-47 -13q-35 -54 -57 -119q-56 2 -77 20q18 43 43 83q-58 0 -88.5 6t-67.5 27q86 68 151 167q56 -14 88 -34q-111 -91 -147 -127q21 -4 46 -4q27 0 41 1q83 121 106 152z" />
    <glyph glyph-name="questiondown" unicode="&#xbf;" horiz-adv-x="472" 
d="M199 -363q-79 6 -140.5 63.5t-61.5 130.5q0 30 10.5 59.5t22 50t45 57t53 55l72.5 69.5q45 43 70 88.5t25 83.5q0 5 -2 21q34 -1 72.5 -26t50.5 -53q0 -33 -18.5 -76.5t-63 -95t-105.5 -88.5q-77 -45 -117 -89.5t-40 -80.5q0 -31 23 -58t50 -27q31 0 68.5 52t37.5 95
q0 14 -3 18q11 2 23 2q39 0 75 -14t43 -32q-15 -67 -76 -132.5t-114 -72.5zM414 369q-21 0 -41 18t-20 30q0 32 13.5 71t33.5 39q27 0 56 -19t43 -44q-11 -12 -25.5 -38t-28 -41.5t-31.5 -15.5z" />
    <glyph glyph-name="Agrave" unicode="&#xc0;" horiz-adv-x="642" 
d="M146 -76q-48 14 -66.5 28t-18.5 35q0 70 133 304q-68 2 -80 2q11 28 108 45q79 130 173 232.5t176 146.5q2 18 2 19q28 0 83.5 -24t59.5 -38q-76 -134 -118 -450q-12 -91 -12 -205q0 -60 2 -93q-3 -1 -12 -1q-28 0 -68.5 15.5t-45.5 28.5q-1 17 -1 52q0 129 20 258
q-53 4 -213 10q-54 -100 -81 -179q-35 -100 -41 -186zM532 525q10 36 20 90q-50 -19 -118 -92.5t-131 -174.5q84 7 191 9q14 76 38 168zM575 883q90 -79 187 -100q-23 -19 -55 -19q-56 0 -190 55q0 18 18.5 38t39.5 26z" />
    <glyph glyph-name="Aacute" unicode="&#xc1;" horiz-adv-x="642" 
d="M146 -76q-48 14 -66.5 28t-18.5 35q0 70 133 304q-68 2 -80 2q11 28 108 45q79 130 173 232.5t176 146.5q2 18 2 19q28 0 83.5 -24t59.5 -38q-76 -134 -118 -450q-12 -91 -12 -205q0 -60 2 -93q-3 -1 -12 -1q-28 0 -68.5 15.5t-45.5 28.5q-1 17 -1 52q0 129 20 258
q-53 4 -213 10q-54 -100 -81 -179q-35 -100 -41 -186zM532 525q10 36 20 90q-50 -19 -118 -92.5t-131 -174.5q84 7 191 9q14 76 38 168zM755 883q21 -6 39.5 -26t18.5 -38q-134 -55 -190 -55q-32 0 -55 19q97 21 187 100z" />
    <glyph glyph-name="Acircumflex" unicode="&#xc2;" horiz-adv-x="642" 
d="M146 -76q-48 14 -66.5 28t-18.5 35q0 70 133 304q-68 2 -80 2q11 28 108 45q79 130 173 232.5t176 146.5q2 18 2 19q28 0 83.5 -24t59.5 -38q-76 -134 -118 -450q-12 -91 -12 -205q0 -60 2 -93q-3 -1 -12 -1q-28 0 -68.5 15.5t-45.5 28.5q-1 17 -1 52q0 129 20 258
q-53 4 -213 10q-54 -100 -81 -179q-35 -100 -41 -186zM532 525q10 36 20 90q-50 -19 -118 -92.5t-131 -174.5q84 7 191 9q14 76 38 168zM719 882q7 -57 18.5 -85.5t33.5 -42.5q-2 -1 -9 -1q-51 0 -99 56q-60 -45 -112 -45q-33 0 -54 22q76 19 137 71q-2 4 -4 12q20 14 61 14
q21 0 28 -1z" />
    <glyph glyph-name="Atilde" unicode="&#xc3;" horiz-adv-x="642" 
d="M146 -76q-48 14 -66.5 28t-18.5 35q0 70 133 304q-68 2 -80 2q11 28 108 45q79 130 173 232.5t176 146.5q2 18 2 19q28 0 83.5 -24t59.5 -38q-76 -134 -118 -450q-12 -91 -12 -205q0 -60 2 -93q-3 -1 -12 -1q-28 0 -68.5 15.5t-45.5 28.5q-1 17 -1 52q0 129 20 258
q-53 4 -213 10q-54 -100 -81 -179q-35 -100 -41 -186zM532 525q10 36 20 90q-50 -19 -118 -92.5t-131 -174.5q84 7 191 9q14 76 38 168zM484 853q47 -16 92 -16q73 0 171 46q22 -22 34 -80q-67 -32 -154 -32q-60 0 -98 23t-45 59z" />
    <glyph glyph-name="Adieresis" unicode="&#xc4;" horiz-adv-x="642" 
d="M146 -76q-48 14 -66.5 28t-18.5 35q0 70 133 304q-68 2 -80 2q11 28 108 45q79 130 173 232.5t176 146.5q2 18 2 19q28 0 83.5 -24t59.5 -38q-76 -134 -118 -450q-12 -91 -12 -205q0 -60 2 -93q-3 -1 -12 -1q-28 0 -68.5 15.5t-45.5 28.5q-1 17 -1 52q0 129 20 258
q-53 4 -213 10q-54 -100 -81 -179q-35 -100 -41 -186zM532 525q10 36 20 90q-50 -19 -118 -92.5t-131 -174.5q84 7 191 9q14 76 38 168zM567 788q0 92 58 95q14 -2 36.5 -15.5t31.5 -28.5q0 -1 -14 -17.5l-30 -35t-21 -22.5q-53 10 -61 24zM698 788q0 93 56 95
q13 -1 35.5 -14.5t33.5 -29.5q0 -3 -28.5 -37.5t-38.5 -38.5q-44 6 -58 25z" />
    <glyph glyph-name="Aring" unicode="&#xc5;" horiz-adv-x="644" 
d="M740 766q-29 -47 -82 -55q55 -24 59 -37q-76 -134 -118 -450q-12 -91 -12 -205q0 -60 2 -93q-3 -1 -12 -1q-28 0 -68.5 15.5t-45.5 28.5q-1 17 -1 52q0 129 20 258q-53 4 -213 10q-54 -100 -81 -179q-35 -100 -41 -186q-48 14 -66.5 28t-18.5 35q0 70 133 304
q-68 2 -80 2q11 28 108 45q73 126 169 228t182 168q-33 25 -33 59q0 38 35 64t75 26q41 0 70.5 -23.5t29.5 -55.5q0 -19 -11 -38zM533 525q10 36 20 90q-50 -19 -118 -92.5t-131 -174.5q84 7 191 9q14 76 38 168zM709 813q0 17 -10.5 28.5t-28.5 11.5q-23 0 -47 -22.5
t-24 -50.5q0 -46 34 -46q33 0 54.5 25.5t21.5 53.5z" />
    <glyph glyph-name="AE" unicode="&#xc6;" horiz-adv-x="914" 
d="M777 418q53 0 82.5 -18t29.5 -50q0 -18 -8 -31q-45 5 -107 5q-48 0 -125 -5q-46 -104 -76 -194.5t-32 -121.5q179 36 337 47q26 -38 26 -80q0 -18 -2 -27q-74 2 -140 2q-114 0 -261 -26q-46 18 -89 88q43 89 124 305q-173 -13 -235 -13h-22q-44 -80 -82 -189
q-35 -100 -41 -186q-48 14 -66.5 28t-18.5 35q0 28 41.5 122t103.5 199q-62 14 -83 47q61 3 117 9q98 154 201.5 254.5t196.5 100.5q18 0 55.5 -1.5t55.5 -1.5q50 0 106 5t93.5 10.5t41.5 5.5q23 0 41 -29t27 -78q-58 20 -237 20q-28 0 -43 -1l10 -14q-23 -31 -108 -221
q11 0 41.5 2t45.5 2zM642 640q-80 -12 -164.5 -83t-157.5 -187q69 7 249 30q52 135 73 240z" />
    <glyph glyph-name="Ccedilla" unicode="&#xc7;" horiz-adv-x="605" 
d="M142 196q0 138 62 263.5t165.5 202t218.5 76.5q68 0 107 -29t39 -81q0 -39 -21.5 -83t-55.5 -72q-25 4 -45 23.5t-24 45.5q76 61 76 118q0 44 -55 44q-45 0 -96.5 -35.5t-92.5 -94.5q-139 -200 -139 -409q0 -73 22.5 -118.5t61.5 -53.5q91 21 253 172q10 -10 12 -21
q-57 -77 -121.5 -137.5t-114.5 -84.5q-26 -33 -38 -64q19 10 50 18t50 8q9 0 33.5 -20.5t24.5 -28.5q0 -20 -84 -93t-108 -73q-4 0 -12.5 15t-8.5 21q47 40 71.5 67t50.5 69q-44 -8 -116 -35q-6 3 -8 12q10 33 63 106q-108 11 -164 79.5t-56 192.5z" />
    <glyph glyph-name="Egrave" unicode="&#xc8;" horiz-adv-x="609" 
d="M514 426q33 0 51.5 -18t18.5 -50q0 -18 -5 -31q-28 5 -67 5q-26 0 -54 -3t-66 -9l-51 -8q-44 -103 -73 -190.5t-31 -118.5q179 36 337 47q26 -38 26 -80q0 -18 -2 -27q-74 2 -140 2q-114 0 -261 -26q-46 18 -89 88q42 87 125 306q-45 14 -59 50q9 9 88 28q53 141 71 226
q-34 1 -54.5 19t-20.5 46q0 18 8 38q33 -5 87 -5q99 0 217.5 11t125.5 11q23 0 41 -24t27 -68q-51 5 -85 5q-71 0 -188 -17q-20 -30 -105 -220q81 13 128 13zM454 883q90 -79 187 -100q-23 -19 -55 -19q-56 0 -190 55q0 18 18.5 38t39.5 26z" />
    <glyph glyph-name="Eacute" unicode="&#xc9;" horiz-adv-x="609" 
d="M514 426q33 0 51.5 -18t18.5 -50q0 -18 -5 -31q-28 5 -67 5q-26 0 -54 -3t-66 -9l-51 -8q-44 -103 -73 -190.5t-31 -118.5q179 36 337 47q26 -38 26 -80q0 -18 -2 -27q-74 2 -140 2q-114 0 -261 -26q-46 18 -89 88q42 87 125 306q-45 14 -59 50q9 9 88 28q53 141 71 226
q-34 1 -54.5 19t-20.5 46q0 18 8 38q33 -5 87 -5q99 0 217.5 11t125.5 11q23 0 41 -24t27 -68q-51 5 -85 5q-71 0 -188 -17q-20 -30 -105 -220q81 13 128 13zM634 883q21 -6 39.5 -26t18.5 -38q-134 -55 -190 -55q-32 0 -55 19q97 21 187 100z" />
    <glyph glyph-name="Ecircumflex" unicode="&#xca;" horiz-adv-x="609" 
d="M514 426q33 0 51.5 -18t18.5 -50q0 -18 -5 -31q-28 5 -67 5q-26 0 -54 -3t-66 -9l-51 -8q-44 -103 -73 -190.5t-31 -118.5q179 36 337 47q26 -38 26 -80q0 -18 -2 -27q-74 2 -140 2q-114 0 -261 -26q-46 18 -89 88q42 87 125 306q-45 14 -59 50q9 9 88 28q53 141 71 226
q-34 1 -54.5 19t-20.5 46q0 18 8 38q33 -5 87 -5q99 0 217.5 11t125.5 11q23 0 41 -24t27 -68q-51 5 -85 5q-71 0 -188 -17q-20 -30 -105 -220q81 13 128 13zM598 882q7 -57 18.5 -85.5t33.5 -42.5q-2 -1 -9 -1q-51 0 -99 56q-60 -45 -112 -45q-33 0 -54 22q76 19 137 71
q-2 4 -4 12q20 14 61 14q21 0 28 -1z" />
    <glyph glyph-name="Edieresis" unicode="&#xcb;" horiz-adv-x="609" 
d="M514 426q33 0 51.5 -18t18.5 -50q0 -18 -5 -31q-28 5 -67 5q-26 0 -54 -3t-66 -9l-51 -8q-44 -103 -73 -190.5t-31 -118.5q179 36 337 47q26 -38 26 -80q0 -18 -2 -27q-74 2 -140 2q-114 0 -261 -26q-46 18 -89 88q42 87 125 306q-45 14 -59 50q9 9 88 28q53 141 71 226
q-34 1 -54.5 19t-20.5 46q0 18 8 38q33 -5 87 -5q99 0 217.5 11t125.5 11q23 0 41 -24t27 -68q-51 5 -85 5q-71 0 -188 -17q-20 -30 -105 -220q81 13 128 13zM446 788q0 92 58 95q14 -2 36.5 -15.5t31.5 -28.5q0 -1 -14 -17.5l-30 -35t-21 -22.5q-53 10 -61 24zM577 788
q0 93 56 95q13 -1 35.5 -14.5t33.5 -29.5q0 -3 -28.5 -37.5t-38.5 -38.5q-44 6 -58 25z" />
    <glyph glyph-name="Igrave" unicode="&#xcc;" horiz-adv-x="315" 
d="M131 57q0 108 84 353t141 304q21 -2 61 -23.5t48 -38.5q-54 -49 -111.5 -194.5t-92 -293t-34.5 -223.5q0 -17 3 -21q-20 1 -32 7.5t-16 14t-9.5 15.5t-13.5 11q-12 5 -20 36t-8 53zM379 883q90 -79 187 -100q-23 -19 -55 -19q-56 0 -190 55q0 18 18.5 38t39.5 26z" />
    <glyph glyph-name="Iacute" unicode="&#xcd;" horiz-adv-x="315" 
d="M131 57q0 108 84 353t141 304q21 -2 61 -23.5t48 -38.5q-54 -49 -111.5 -194.5t-92 -293t-34.5 -223.5q0 -17 3 -21q-20 1 -32 7.5t-16 14t-9.5 15.5t-13.5 11q-12 5 -20 36t-8 53zM559 883q21 -6 39.5 -26t18.5 -38q-134 -55 -190 -55q-32 0 -55 19q97 21 187 100z" />
    <glyph glyph-name="Icircumflex" unicode="&#xce;" horiz-adv-x="315" 
d="M131 57q0 108 84 353t141 304q21 -2 61 -23.5t48 -38.5q-54 -49 -111.5 -194.5t-92 -293t-34.5 -223.5q0 -17 3 -21q-20 1 -32 7.5t-16 14t-9.5 15.5t-13.5 11q-12 5 -20 36t-8 53zM523 882q7 -57 18.5 -85.5t33.5 -42.5q-2 -1 -9 -1q-51 0 -99 56q-60 -45 -112 -45
q-33 0 -54 22q76 19 137 71q-2 4 -4 12q20 14 61 14q21 0 28 -1z" />
    <glyph glyph-name="Idieresis" unicode="&#xcf;" horiz-adv-x="315" 
d="M131 57q0 108 84 353t141 304q21 -2 61 -23.5t48 -38.5q-54 -49 -111.5 -194.5t-92 -293t-34.5 -223.5q0 -17 3 -21q-20 1 -32 7.5t-16 14t-9.5 15.5t-13.5 11q-12 5 -20 36t-8 53zM371 788q0 92 58 95q14 -2 36.5 -15.5t31.5 -28.5q0 -1 -14 -17.5l-30 -35t-21 -22.5
q-53 10 -61 24zM502 788q0 93 56 95q13 -1 35.5 -14.5t33.5 -29.5q0 -3 -28.5 -37.5t-38.5 -38.5q-44 6 -58 25z" />
    <glyph glyph-name="Eth" unicode="&#xd0;" horiz-adv-x="778" 
d="M168 52q32 74 91 226q-48 3 -92 11q3 19 3 66q54 -3 117 -3q87 230 112 313q-130 -53 -176 -212q-24 8 -42.5 29.5t-24.5 50.5q20 92 108 148.5t214 56.5q160 0 262 -89t102 -232q0 -128 -61.5 -242t-164.5 -182.5t-220 -68.5q-168 0 -228 128zM521 688q-50 0 -95 -14
q78 -28 113 -61q-37 -53 -132 -256q54 6 106 15q8 -13 15 -39.5t7 -47.5q-79 -9 -164 -9q-88 -200 -88 -256q27 -9 77 -9q106 0 198.5 63.5t146 169.5t53.5 227q0 102 -63.5 159.5t-173.5 57.5z" />
    <glyph glyph-name="Ntilde" unicode="&#xd1;" horiz-adv-x="683" 
d="M190 -76q-57 17 -77 32.5t-20 42.5q0 88 100.5 343t169.5 352l-7 42q28 0 90 -24.5t66 -37.5q-11 -59 -11 -176q0 -257 48 -426q50 250 114.5 451t100.5 205q22 -4 49 -24t38 -42q-59 -24 -121.5 -174.5t-99.5 -311.5t-39 -247q0 -2 1 -3q-4 -1 -13 -1q-47 0 -82.5 11.5
t-45.5 32.5q-70 282 -82 642q-58 -92 -120 -308.5t-62 -333.5q0 -33 3 -45zM443 853q47 -16 92 -16q73 0 171 46q22 -22 34 -80q-67 -32 -154 -32q-60 0 -98 23t-45 59z" />
    <glyph glyph-name="Ograve" unicode="&#xd2;" 
d="M562 728q38 -16 76.5 -46t40.5 -46q-32 7 -65 7q-88 0 -172.5 -80.5t-135.5 -202t-51 -239.5q0 -154 102 -154q49 0 109 36t109 94q69 82 110 207.5t41 249.5q0 43 -8 99q18 -9 28 -15.5t25 -23t22.5 -45.5t7.5 -69q0 -136 -60.5 -262.5t-157.5 -210.5
q-60 -52 -128.5 -81.5t-130.5 -29.5q-92 0 -140.5 59t-48.5 172q0 124 49.5 261t136.5 234.5t181 97.5q32 0 60 -12zM606 883q90 -79 187 -100q-23 -19 -55 -19q-56 0 -190 55q0 18 18.5 38t39.5 26z" />
    <glyph glyph-name="Oacute" unicode="&#xd3;" 
d="M562 728q38 -16 76.5 -46t40.5 -46q-32 7 -65 7q-88 0 -172.5 -80.5t-135.5 -202t-51 -239.5q0 -154 102 -154q49 0 109 36t109 94q69 82 110 207.5t41 249.5q0 43 -8 99q18 -9 28 -15.5t25 -23t22.5 -45.5t7.5 -69q0 -136 -60.5 -262.5t-157.5 -210.5
q-60 -52 -128.5 -81.5t-130.5 -29.5q-92 0 -140.5 59t-48.5 172q0 124 49.5 261t136.5 234.5t181 97.5q32 0 60 -12zM786 883q21 -6 39.5 -26t18.5 -38q-134 -55 -190 -55q-32 0 -55 19q97 21 187 100z" />
    <glyph glyph-name="Ocircumflex" unicode="&#xd4;" 
d="M562 728q38 -16 76.5 -46t40.5 -46q-32 7 -65 7q-88 0 -172.5 -80.5t-135.5 -202t-51 -239.5q0 -154 102 -154q49 0 109 36t109 94q69 82 110 207.5t41 249.5q0 43 -8 99q18 -9 28 -15.5t25 -23t22.5 -45.5t7.5 -69q0 -136 -60.5 -262.5t-157.5 -210.5
q-60 -52 -128.5 -81.5t-130.5 -29.5q-92 0 -140.5 59t-48.5 172q0 124 49.5 261t136.5 234.5t181 97.5q32 0 60 -12zM750 882q7 -57 18.5 -85.5t33.5 -42.5q-2 -1 -9 -1q-51 0 -99 56q-60 -45 -112 -45q-33 0 -54 22q76 19 137 71q-2 4 -4 12q20 14 61 14q21 0 28 -1z" />
    <glyph glyph-name="Otilde" unicode="&#xd5;" 
d="M562 728q38 -16 76.5 -46t40.5 -46q-32 7 -65 7q-88 0 -172.5 -80.5t-135.5 -202t-51 -239.5q0 -154 102 -154q49 0 109 36t109 94q69 82 110 207.5t41 249.5q0 43 -8 99q18 -9 28 -15.5t25 -23t22.5 -45.5t7.5 -69q0 -136 -60.5 -262.5t-157.5 -210.5
q-60 -52 -128.5 -81.5t-130.5 -29.5q-92 0 -140.5 59t-48.5 172q0 124 49.5 261t136.5 234.5t181 97.5q32 0 60 -12zM515 853q47 -16 92 -16q73 0 171 46q22 -22 34 -80q-67 -32 -154 -32q-60 0 -98 23t-45 59z" />
    <glyph glyph-name="Odieresis" unicode="&#xd6;" 
d="M562 728q38 -16 76.5 -46t40.5 -46q-32 7 -65 7q-88 0 -172.5 -80.5t-135.5 -202t-51 -239.5q0 -154 102 -154q49 0 109 36t109 94q69 82 110 207.5t41 249.5q0 43 -8 99q18 -9 28 -15.5t25 -23t22.5 -45.5t7.5 -69q0 -136 -60.5 -262.5t-157.5 -210.5
q-60 -52 -128.5 -81.5t-130.5 -29.5q-92 0 -140.5 59t-48.5 172q0 124 49.5 261t136.5 234.5t181 97.5q32 0 60 -12zM598 788q0 92 58 95q14 -2 36.5 -15.5t31.5 -28.5q0 -1 -14 -17.5l-30 -35t-21 -22.5q-53 10 -61 24zM729 788q0 93 56 95q13 -1 35.5 -14.5t33.5 -29.5
q0 -3 -28.5 -37.5t-38.5 -38.5q-44 6 -58 25z" />
    <glyph glyph-name="multiply" unicode="&#xd7;" horiz-adv-x="484" 
d="M256 245q-91 74 -91 121q0 25 11 37t49 34q27 -56 91 -122q89 101 144 140q20 -11 48 -37.5t29 -39.5q-70 -44 -156 -126q53 -51 84 -91q6 -7 6 -22q0 -33 -46 -86q-41 69 -107 135q-63 -68 -121 -139q-30 15 -49 54q56 79 108 142z" />
    <glyph glyph-name="Oslash" unicode="&#xd8;" 
d="M562 728q38 -16 76.5 -46t40.5 -46q-32 7 -65 7q-88 0 -172.5 -80.5t-135.5 -202t-51 -239.5q0 -16 2 -42q117 96 247 232.5t222 256.5q-1 40 -8 85q32 -16 47 -32q48 69 65 110q52 0 66 -35q-50 -68 -102 -132q7 -32 7 -64q0 -136 -60.5 -262.5t-157.5 -210.5
q-60 -52 -128.5 -81.5t-130.5 -29.5q-90 0 -138 56q-39 -27 -75 -48q-24 5 -26 38q31 15 77 46q-27 54 -27 139q0 124 49.5 261t136.5 234.5t181 97.5q32 0 60 -12zM722 478q-236 -275 -454 -446q24 -65 89 -65q49 0 109 36t109 94q58 69 97 171t50 210z" />
    <glyph glyph-name="Ugrave" unicode="&#xd9;" horiz-adv-x="697" 
d="M485 673q-87 -116 -140.5 -273t-53.5 -285q0 -78 23.5 -113t78.5 -35q62 0 111.5 43.5t94.5 127.5q53 98 79 233t26 268q0 58 -4 86q11 0 46 -8t54 -18q-10 -158 -55 -322.5t-115 -277.5q-112 -183 -275 -183q-93 0 -143.5 54.5t-50.5 161.5q0 124 51 302t120 304
q35 -2 85 -23t68 -42zM509 883q90 -79 187 -100q-23 -19 -55 -19q-56 0 -190 55q0 18 18.5 38t39.5 26z" />
    <glyph glyph-name="Uacute" unicode="&#xda;" horiz-adv-x="697" 
d="M485 673q-87 -116 -140.5 -273t-53.5 -285q0 -78 23.5 -113t78.5 -35q62 0 111.5 43.5t94.5 127.5q53 98 79 233t26 268q0 58 -4 86q11 0 46 -8t54 -18q-10 -158 -55 -322.5t-115 -277.5q-112 -183 -275 -183q-93 0 -143.5 54.5t-50.5 161.5q0 124 51 302t120 304
q35 -2 85 -23t68 -42zM689 883q21 -6 39.5 -26t18.5 -38q-134 -55 -190 -55q-32 0 -55 19q97 21 187 100z" />
    <glyph glyph-name="Ucircumflex" unicode="&#xdb;" horiz-adv-x="697" 
d="M485 673q-87 -116 -140.5 -273t-53.5 -285q0 -78 23.5 -113t78.5 -35q62 0 111.5 43.5t94.5 127.5q53 98 79 233t26 268q0 58 -4 86q11 0 46 -8t54 -18q-10 -158 -55 -322.5t-115 -277.5q-112 -183 -275 -183q-93 0 -143.5 54.5t-50.5 161.5q0 124 51 302t120 304
q35 -2 85 -23t68 -42zM653 882q7 -57 18.5 -85.5t33.5 -42.5q-2 -1 -9 -1q-51 0 -99 56q-60 -45 -112 -45q-33 0 -54 22q76 19 137 71q-2 4 -4 12q20 14 61 14q21 0 28 -1z" />
    <glyph glyph-name="Udieresis" unicode="&#xdc;" horiz-adv-x="697" 
d="M485 673q-87 -116 -140.5 -273t-53.5 -285q0 -78 23.5 -113t78.5 -35q62 0 111.5 43.5t94.5 127.5q53 98 79 233t26 268q0 58 -4 86q11 0 46 -8t54 -18q-10 -158 -55 -322.5t-115 -277.5q-112 -183 -275 -183q-93 0 -143.5 54.5t-50.5 161.5q0 124 51 302t120 304
q35 -2 85 -23t68 -42zM501 788q0 92 58 95q14 -2 36.5 -15.5t31.5 -28.5q0 -1 -14 -17.5l-30 -35t-21 -22.5q-53 10 -61 24zM632 788q0 93 56 95q13 -1 35.5 -14.5t33.5 -29.5q0 -3 -28.5 -37.5t-38.5 -38.5q-44 6 -58 25z" />
    <glyph glyph-name="Yacute" unicode="&#xdd;" horiz-adv-x="613" 
d="M470 345q147 162 245 381q55 -6 88 -39q-211 -253 -311 -400q-72 -247 -72 -360q-22 0 -84.5 15t-69.5 22q10 18 21.5 44t20 47.5t21.5 59.5t18.5 55.5l19 61.5t16.5 52q-58 180 -99 284.5t-75 142.5q20 8 75.5 16.5t95.5 9.5q0 -73 34 -220.5t56 -171.5zM677 883
q21 -6 39.5 -26t18.5 -38q-134 -55 -190 -55q-32 0 -55 19q97 21 187 100z" />
    <glyph glyph-name="Thorn" unicode="&#xde;" horiz-adv-x="642" 
d="M724 385q0 -111 -101.5 -192.5t-241.5 -81.5q-23 0 -36 2q-22 13 -45 42q-48 -124 -72 -236q-64 15 -106 88q48 93 167 384l30 74q-98 -33 -151 -77q-17 12 -36 45t-21 56q85 58 245 83q17 55 40 165q5 0 14.5 0.5t13.5 0.5q59 0 82 -11.5t36 -34.5q-17 -23 -57 -110
q110 -2 174.5 -56t64.5 -141zM375 331q-29 -63 -55 -127q15 -1 46 -1q133 0 226 54.5t93 132.5q0 53 -36 84t-103 31q-45 0 -98 -8z" />
    <glyph glyph-name="germandbls" unicode="&#xdf;" horiz-adv-x="600" 
d="M91 -289q-16 6 -25 21l-19 33t-27 28q58 318 130 484q50 117 114.5 216t163.5 186.5t212 128.5q48 -28 72 -59.5t24 -78.5q0 -86 -69 -187t-163 -130q61 -49 86 -91t25 -89q0 -99 -84.5 -185.5t-196.5 -105.5q-24 9 -45 37t-24 61q96 24 174 95t78 141q0 84 -136 167
q124 49 204.5 145.5t80.5 184.5q0 22 -13 57q-167 -109 -261.5 -231t-164.5 -319q-22 -61 -43 -132.5t-36.5 -134l-27.5 -112.5t-20 -88.5t-9 -41.5z" />
    <glyph glyph-name="agrave" unicode="&#xe0;" horiz-adv-x="470" 
d="M442 404q21 0 48 -12.5t26 -22.5q-91 -189 -91 -298q0 -59 26 -73q-29 -18 -65 -18q-54 0 -54 74q0 57 38 156q-40 -91 -98.5 -157.5t-105.5 -74.5q-37 1 -60 35t-23 86q0 72 40 156t100 142t112 61q20 -5 46.5 -32.5t28.5 -46.5q-80 -13 -159 -118.5t-79 -198.5
q0 -19 14 -24q55 11 159 184q48 80 97 182zM378 729q42 -69 92.5 -118.5t94.5 -66.5q-23 -19 -55 -19q-31 0 -72 19.5t-118 70.5q0 28 18.5 64.5t39.5 49.5z" />
    <glyph glyph-name="aacute" unicode="&#xe1;" horiz-adv-x="470" 
d="M442 404q21 0 48 -12.5t26 -22.5q-91 -189 -91 -298q0 -59 26 -73q-29 -18 -65 -18q-54 0 -54 74q0 57 38 156q-40 -91 -98.5 -157.5t-105.5 -74.5q-37 1 -60 35t-23 86q0 72 40 156t100 142t112 61q20 -5 46.5 -32.5t28.5 -46.5q-80 -13 -159 -118.5t-79 -198.5
q0 -19 14 -24q55 11 159 184q48 80 97 182zM558 729q21 -13 39.5 -49.5t18.5 -64.5q-77 -51 -118 -70.5t-72 -19.5q-32 0 -55 19q44 17 94.5 66.5t92.5 118.5z" />
    <glyph glyph-name="acircumflex" unicode="&#xe2;" horiz-adv-x="470" 
d="M442 404q21 0 48 -12.5t26 -22.5q-91 -189 -91 -298q0 -59 26 -73q-29 -18 -65 -18q-54 0 -54 74q0 57 38 156q-40 -91 -98.5 -157.5t-105.5 -74.5q-37 1 -60 35t-23 86q0 72 40 156t100 142t112 61q20 -5 46.5 -32.5t28.5 -46.5q-80 -13 -159 -118.5t-79 -198.5
q0 -19 14 -24q55 11 159 184q48 80 97 182zM522 713q7 -91 18.5 -136t33.5 -68q-2 -1 -9 -1q-26 0 -54.5 29t-49.5 75q-63 -56 -114 -56q-30 0 -54 26q81 29 143 102l-3 16q20 14 61 14q21 0 28 -1z" />
    <glyph glyph-name="atilde" unicode="&#xe3;" horiz-adv-x="470" 
d="M442 404q21 0 48 -12.5t26 -22.5q-91 -189 -91 -298q0 -59 26 -73q-29 -18 -65 -18q-54 0 -54 74q0 57 38 156q-40 -91 -98.5 -157.5t-105.5 -74.5q-37 1 -60 35t-23 86q0 72 40 156t100 142t112 61q20 -5 46.5 -32.5t28.5 -46.5q-80 -13 -159 -118.5t-79 -198.5
q0 -19 14 -24q55 11 159 184q48 80 97 182zM287 624q47 -16 92 -16q71 0 171 47q22 -25 34 -90q-84 -30 -154 -30q-59 0 -97.5 26t-45.5 63z" />
    <glyph glyph-name="adieresis" unicode="&#xe4;" horiz-adv-x="470" 
d="M442 404q21 0 48 -12.5t26 -22.5q-91 -189 -91 -298q0 -59 26 -73q-29 -18 -65 -18q-54 0 -54 74q0 57 38 156q-40 -91 -98.5 -157.5t-105.5 -74.5q-37 1 -60 35t-23 86q0 72 40 156t100 142t112 61q20 -5 46.5 -32.5t28.5 -46.5q-80 -13 -159 -118.5t-79 -198.5
q0 -19 14 -24q55 11 159 184q48 80 97 182zM370 605q0 92 58 95q14 -2 36.5 -15.5t31.5 -28.5q0 -1 -16 -25.5l-34.5 -52t-24.5 -32.5q-41 17 -51 59zM501 583q0 93 56 95q13 -1 35.5 -14.5t33.5 -29.5q0 -4 -33 -53t-44 -55q-35 13 -48 57z" />
    <glyph glyph-name="aring" unicode="&#xe5;" horiz-adv-x="470" 
d="M442 404q21 0 48 -12.5t26 -22.5q-91 -189 -91 -298q0 -59 26 -73q-29 -18 -65 -18q-54 0 -54 74q0 57 38 156q-40 -91 -98.5 -157.5t-105.5 -74.5q-37 1 -60 35t-23 86q0 72 40 156t100 142t112 61q20 -5 46.5 -32.5t28.5 -46.5q-80 -13 -159 -118.5t-79 -198.5
q0 -19 14 -24q55 11 159 184q48 80 97 182zM542 583q-35 -59 -95 -59q-40 0 -72 26.5t-32 62.5q0 41 35 69t75 28q41 0 70.5 -25t29.5 -60q0 -20 -11 -42zM511 634q0 18 -10.5 31t-28.5 13q-23 0 -47 -24t-24 -55q0 -50 34 -50q33 0 54.5 27.5t21.5 57.5z" />
    <glyph glyph-name="ae" unicode="&#xe6;" horiz-adv-x="691" 
d="M464 408q20 0 46 -12q83 71 156 71q29 0 48.5 -11.5t47.5 -43.5q-6 -114 -77.5 -182t-223.5 -109q-4 -24 -4 -40q0 -54 38 -70q116 29 194 98q10 -10 15 -19q-51 -54 -108.5 -88.5t-105.5 -39.5q-77 14 -104 47.5t-27 124.5q-113 -152 -192 -152q-39 0 -58 40.5t-19 95.5
q0 70 30 136.5t72 109.5t84 69.5t70 28.5q19 -5 46.5 -31.5t30.5 -47.5q-86 -14 -168 -124.5t-82 -194.5q0 -19 18 -19q29 0 79 42t100 107q17 75 44 138t50 76zM688 376q-56 -2 -119 -65t-96 -152q85 31 145 91t70 126z" />
    <glyph glyph-name="ccedilla" unicode="&#xe7;" horiz-adv-x="418" 
d="M102 176q0 113 85.5 205.5t190.5 92.5q52 0 80 -26t28 -74q0 -46 -23.5 -83.5t-52.5 -37.5q-26 0 -45 27q67 61 67 111q0 29 -23 29q-20 0 -50.5 -19.5t-57.5 -49.5q-88 -99 -88 -229q0 -80 36 -97q30 4 78.5 28t94.5 58q10 -8 10 -20q-31 -39 -80.5 -74t-84.5 -44
q-35 -50 -49 -84q19 10 50 18t50 8q9 0 33.5 -20.5t24.5 -28.5q0 -20 -84 -93t-108 -73q-4 0 -12.5 15t-8.5 21q47 40 71.5 67t50.5 69q-44 -8 -116 -35q-6 3 -8 12q14 43 78 126q-59 15 -98 72t-39 129z" />
    <glyph glyph-name="egrave" unicode="&#xe8;" horiz-adv-x="404" 
d="M455 414q-7 -117 -68.5 -179.5t-198.5 -117.5q0 -4 -0.5 -12.5t-0.5 -13.5q0 -80 46 -80q33 0 71.5 22t60 42.5t51.5 52.5q10 -9 17 -17q-45 -59 -98.5 -99t-101.5 -51q-68 7 -107 49.5t-39 103.5q0 80 42.5 164t109 138.5t130.5 54.5q46 -6 86 -57zM386 381
q-56 -8 -111.5 -71.5t-78.5 -154.5q83 41 134.5 100.5t55.5 125.5zM370 729q42 -69 92.5 -118.5t94.5 -66.5q-23 -19 -55 -19q-31 0 -72 19.5t-118 70.5q0 28 18.5 64.5t39.5 49.5z" />
    <glyph glyph-name="eacute" unicode="&#xe9;" horiz-adv-x="404" 
d="M455 414q-7 -117 -68.5 -179.5t-198.5 -117.5q0 -4 -0.5 -12.5t-0.5 -13.5q0 -80 46 -80q33 0 71.5 22t60 42.5t51.5 52.5q10 -9 17 -17q-45 -59 -98.5 -99t-101.5 -51q-68 7 -107 49.5t-39 103.5q0 80 42.5 164t109 138.5t130.5 54.5q46 -6 86 -57zM386 381
q-56 -8 -111.5 -71.5t-78.5 -154.5q83 41 134.5 100.5t55.5 125.5zM550 729q21 -13 39.5 -49.5t18.5 -64.5q-77 -51 -118 -70.5t-72 -19.5q-32 0 -55 19q44 17 94.5 66.5t92.5 118.5z" />
    <glyph glyph-name="ecircumflex" unicode="&#xea;" horiz-adv-x="404" 
d="M455 414q-7 -117 -68.5 -179.5t-198.5 -117.5q0 -4 -0.5 -12.5t-0.5 -13.5q0 -80 46 -80q33 0 71.5 22t60 42.5t51.5 52.5q10 -9 17 -17q-45 -59 -98.5 -99t-101.5 -51q-68 7 -107 49.5t-39 103.5q0 80 42.5 164t109 138.5t130.5 54.5q46 -6 86 -57zM386 381
q-56 -8 -111.5 -71.5t-78.5 -154.5q83 41 134.5 100.5t55.5 125.5zM514 713q7 -91 18.5 -136t33.5 -68q-2 -1 -9 -1q-26 0 -54.5 29t-49.5 75q-63 -56 -114 -56q-30 0 -54 26q81 29 143 102l-3 16q20 14 61 14q21 0 28 -1z" />
    <glyph glyph-name="edieresis" unicode="&#xeb;" horiz-adv-x="404" 
d="M455 414q-7 -117 -68.5 -179.5t-198.5 -117.5q0 -4 -0.5 -12.5t-0.5 -13.5q0 -80 46 -80q33 0 71.5 22t60 42.5t51.5 52.5q10 -9 17 -17q-45 -59 -98.5 -99t-101.5 -51q-68 7 -107 49.5t-39 103.5q0 80 42.5 164t109 138.5t130.5 54.5q46 -6 86 -57zM386 381
q-56 -8 -111.5 -71.5t-78.5 -154.5q83 41 134.5 100.5t55.5 125.5zM362 605q0 92 58 95q14 -2 36.5 -15.5t31.5 -28.5q0 -1 -16 -25.5l-34.5 -52t-24.5 -32.5q-41 17 -51 59zM493 583q0 93 56 95q13 -1 35.5 -14.5t33.5 -29.5q0 -4 -33 -53t-44 -55q-35 13 -48 57z" />
    <glyph glyph-name="igrave" unicode="&#xec;" horiz-adv-x="239" 
d="M97 56q0 32 33 188q3 15 8 32t15.5 45t28 50.5t38.5 32.5q19 -3 47.5 -20.5t46.5 -43.5q-40 -47 -62 -96.5t-47 -130.5l-10 -31l-9.5 -29.5t-6 -24t-2.5 -24.5q0 -34 -6 -34q-7 0 -23 8t-33.5 29.5t-17.5 48.5zM260 680q42 -69 92.5 -118.5t94.5 -66.5q-23 -19 -55 -19
q-31 0 -72 19.5t-118 70.5q0 28 18.5 64.5t39.5 49.5z" />
    <glyph glyph-name="iacute" unicode="&#xed;" horiz-adv-x="239" 
d="M97 56q0 32 33 188q3 15 8 32t15.5 45t28 50.5t38.5 32.5q19 -3 47.5 -20.5t46.5 -43.5q-40 -47 -62 -96.5t-47 -130.5l-10 -31l-9.5 -29.5t-6 -24t-2.5 -24.5q0 -34 -6 -34q-7 0 -23 8t-33.5 29.5t-17.5 48.5zM440 680q21 -13 39.5 -49.5t18.5 -64.5q-77 -51 -118 -70.5
t-72 -19.5q-32 0 -55 19q44 17 94.5 66.5t92.5 118.5z" />
    <glyph glyph-name="icircumflex" unicode="&#xee;" horiz-adv-x="301" 
d="M94 56q0 32 33 188q3 15 8 32t15.5 45t28 50.5t38.5 32.5q19 -3 47.5 -20.5t46.5 -43.5q-40 -47 -62 -96.5t-47 -130.5l-10 -31l-9.5 -29.5t-6 -24t-2.5 -24.5q0 -34 -6 -34q-7 0 -23 8t-33.5 29.5t-17.5 48.5zM401 664q7 -91 18.5 -136t33.5 -68q-2 -1 -9 -1
q-26 0 -54.5 29t-49.5 75q-63 -56 -114 -56q-30 0 -54 26q81 29 143 102l-3 16q20 14 61 14q21 0 28 -1z" />
    <glyph glyph-name="idieresis" unicode="&#xef;" horiz-adv-x="239" 
d="M97 56q0 32 33 188q3 15 8 32t15.5 45t28 50.5t38.5 32.5q19 -3 47.5 -20.5t46.5 -43.5q-40 -47 -62 -96.5t-47 -130.5l-10 -31l-9.5 -29.5t-6 -24t-2.5 -24.5q0 -34 -6 -34q-7 0 -23 8t-33.5 29.5t-17.5 48.5zM252 556q0 92 58 95q14 -2 36.5 -15.5t31.5 -28.5
q0 -1 -16 -25.5l-34.5 -52t-24.5 -32.5q-41 17 -51 59zM383 534q0 93 56 95q13 -1 35.5 -14.5t33.5 -29.5q0 -4 -33 -53t-44 -55q-35 13 -48 57z" />
    <glyph glyph-name="eth" unicode="&#xf0;" horiz-adv-x="433" 
d="M315 467q20 0 46 -12t46 -31q-11 93 -43 170q-45 -18 -108 -50q-11 7 -24.5 31t-19.5 47q78 30 117 43q-24 44 -55 94q7 19 37.5 43.5t55.5 28.5q43 -48 78 -130q51 13 102 21q11 -27 17 -63q-70 -18 -94 -26q34 -107 34 -199q0 -102 -42 -212.5t-108.5 -187.5
t-132.5 -88q-69 8 -105.5 44.5t-36.5 100.5q0 67 37.5 151.5t93 148.5t105.5 76zM213 -14q71 25 133.5 149.5t62.5 241.5q0 24 -1 29q-72 -31 -156 -158t-84 -205q0 -49 45 -57z" />
    <glyph glyph-name="ntilde" unicode="&#xf1;" horiz-adv-x="540" 
d="M259 485q26 -8 49 -35.5t34 -60.5q-11 -26 -74.5 -133.5t-68.5 -142.5q23 24 73 83t60 70q144 153 210 153q43 0 71 -54q0 -1 -3 -3t-10.5 -7.5t-15.5 -14.5q-33 -43 -68.5 -124t-35.5 -137q0 -23 6 -31t19 -8q8 0 23 5t19 5q9 -5 9 -20q-16 -14 -43 -27.5t-43 -13.5
q-54 0 -74.5 28t-20.5 78q0 53 55 180q-2 0 -13 -6t-30.5 -20t-37.5 -31q-86 -83 -161 -187q-51 -72 -67 -81q-34 20 -46 78q0 39 21 114.5t54 150.5q24 54 48 99.5t39.5 67.5t21.5 25zM314 602q47 -16 92 -16q71 0 171 47q22 -25 34 -90q-84 -30 -154 -30q-59 0 -97.5 26
t-45.5 63z" />
    <glyph glyph-name="ograve" unicode="&#xf2;" horiz-adv-x="441" 
d="M215 -35q-57 6 -91 50t-34 112q0 80 46 166.5t117 138.5q55 41 103 41q32 -17 63 -71q3 0 9 0.5t9 0.5q53 0 53 -94q0 -125 -77.5 -221.5t-197.5 -122.5zM266 280q-34 -46 -57.5 -104.5t-23.5 -98.5q0 -24 8 -46t18 -25q90 20 148 107t58 203q0 47 -13 67
q-76 -22 -138 -103zM400 717q42 -69 92.5 -118.5t94.5 -66.5q-23 -19 -55 -19q-31 0 -72 19.5t-118 70.5q0 28 18.5 64.5t39.5 49.5z" />
    <glyph glyph-name="oacute" unicode="&#xf3;" horiz-adv-x="441" 
d="M215 -35q-57 6 -91 50t-34 112q0 80 46 166.5t117 138.5q55 41 103 41q32 -17 63 -71q3 0 9 0.5t9 0.5q53 0 53 -94q0 -125 -77.5 -221.5t-197.5 -122.5zM266 280q-34 -46 -57.5 -104.5t-23.5 -98.5q0 -24 8 -46t18 -25q90 20 148 107t58 203q0 47 -13 67
q-76 -22 -138 -103zM580 717q21 -13 39.5 -49.5t18.5 -64.5q-77 -51 -118 -70.5t-72 -19.5q-32 0 -55 19q44 17 94.5 66.5t92.5 118.5z" />
    <glyph glyph-name="ocircumflex" unicode="&#xf4;" horiz-adv-x="441" 
d="M215 -35q-57 6 -91 50t-34 112q0 80 46 166.5t117 138.5q55 41 103 41q32 -17 63 -71q3 0 9 0.5t9 0.5q53 0 53 -94q0 -125 -77.5 -221.5t-197.5 -122.5zM266 280q-34 -46 -57.5 -104.5t-23.5 -98.5q0 -24 8 -46t18 -25q90 20 148 107t58 203q0 47 -13 67
q-76 -22 -138 -103zM544 701q7 -91 18.5 -136t33.5 -68q-2 -1 -9 -1q-26 0 -54.5 29t-49.5 75q-63 -56 -114 -56q-30 0 -54 26q81 29 143 102l-3 16q20 14 61 14q21 0 28 -1z" />
    <glyph glyph-name="otilde" unicode="&#xf5;" horiz-adv-x="441" 
d="M215 -35q-57 6 -91 50t-34 112q0 80 46 166.5t117 138.5q55 41 103 41q32 -17 63 -71q3 0 9 0.5t9 0.5q53 0 53 -94q0 -125 -77.5 -221.5t-197.5 -122.5zM266 280q-34 -46 -57.5 -104.5t-23.5 -98.5q0 -24 8 -46t18 -25q90 20 148 107t58 203q0 47 -13 67
q-76 -22 -138 -103zM309 612q47 -16 92 -16q71 0 171 47q22 -25 34 -90q-84 -30 -154 -30q-59 0 -97.5 26t-45.5 63z" />
    <glyph glyph-name="odieresis" unicode="&#xf6;" horiz-adv-x="441" 
d="M215 -35q-57 6 -91 50t-34 112q0 80 46 166.5t117 138.5q55 41 103 41q32 -17 63 -71q3 0 9 0.5t9 0.5q53 0 53 -94q0 -125 -77.5 -221.5t-197.5 -122.5zM266 280q-34 -46 -57.5 -104.5t-23.5 -98.5q0 -24 8 -46t18 -25q90 20 148 107t58 203q0 47 -13 67
q-76 -22 -138 -103zM392 593q0 92 58 95q14 -2 36.5 -15.5t31.5 -28.5q0 -1 -16 -25.5l-34.5 -52t-24.5 -32.5q-41 17 -51 59zM523 571q0 93 56 95q13 -1 35.5 -14.5t33.5 -29.5q0 -4 -33 -53t-44 -55q-35 13 -48 57z" />
    <glyph glyph-name="divide" unicode="&#xf7;" horiz-adv-x="557" 
d="M199 186q-36 0 -57.5 17.5t-21.5 48.5q0 6 7 31q31 -5 82 -5q93 0 204.5 10t118.5 10q22 0 39 -23.5t25 -65.5q-49 5 -80 5q-72 0 -174 -14t-143 -14zM402 329q-14 2 -30 12.5t-20 22.5q0 13 5 36t13 52t8 31q23 0 63 -21t56 -45q-15 -34 -46 -61t-49 -27zM302 -9
q-14 2 -30 12.5t-20 22.5q0 13 5 36t13 52t8 31q23 0 63 -21t56 -45q-15 -34 -46 -61t-49 -27z" />
    <glyph glyph-name="oslash" unicode="&#xf8;" horiz-adv-x="442" 
d="M215 -35q-38 5 -65 24q-51 -40 -92 -65q-24 5 -26 38q34 16 88 58q-30 44 -30 107q0 80 46 166.5t117 138.5q55 41 103 41q32 -17 63 -71q3 0 9 0.5t9 0.5q11 0 18 -3q40 63 52 101q52 0 66 -35q-56 -80 -86 -119q3 -16 3 -38q0 -125 -77.5 -221.5t-197.5 -122.5z
M266 280q-34 -46 -57.5 -104.5t-23.5 -98.5q130 122 231 264q-3 27 -12 42q-76 -22 -138 -103zM412 254q-114 -136 -218 -228q8 -17 17 -20q77 16 132 84t69 164z" />
    <glyph glyph-name="ugrave" unicode="&#xf9;" horiz-adv-x="494" 
d="M369 22q-32 27 -32 81q0 21 5 36q-5 0 -25.5 -25t-46.5 -60t-33 -43q-28 -29 -43 -31q-35 2 -68 23.5t-41 54.5q0 48 8 85q21 89 71 189t108 142q22 0 49 -8t40 -23q-9 -9 -25 -33t-45.5 -79t-56.5 -119q-12 -27 -27 -79.5t-15 -76.5q0 -11 7 -18q14 6 36.5 31.5
t65.5 84.5q1 2 17.5 23.5t23.5 32l20 30t22 37t15 34.5q33 91 78 134q26 0 56 -10.5t39 -21.5q-14 -33 -51.5 -107.5t-56 -127t-18.5 -99.5q0 -34 11 -62.5t11 -29.5l-4 -4q-14 0 -43 12t-52 27zM388 729q42 -69 92.5 -118.5t94.5 -66.5q-23 -19 -55 -19q-31 0 -72 19.5
t-118 70.5q0 28 18.5 64.5t39.5 49.5z" />
    <glyph glyph-name="uacute" unicode="&#xfa;" horiz-adv-x="494" 
d="M369 22q-32 27 -32 81q0 21 5 36q-5 0 -25.5 -25t-46.5 -60t-33 -43q-28 -29 -43 -31q-35 2 -68 23.5t-41 54.5q0 48 8 85q21 89 71 189t108 142q22 0 49 -8t40 -23q-9 -9 -25 -33t-45.5 -79t-56.5 -119q-12 -27 -27 -79.5t-15 -76.5q0 -11 7 -18q14 6 36.5 31.5
t65.5 84.5q1 2 17.5 23.5t23.5 32l20 30t22 37t15 34.5q33 91 78 134q26 0 56 -10.5t39 -21.5q-14 -33 -51.5 -107.5t-56 -127t-18.5 -99.5q0 -34 11 -62.5t11 -29.5l-4 -4q-14 0 -43 12t-52 27zM568 729q21 -13 39.5 -49.5t18.5 -64.5q-77 -51 -118 -70.5t-72 -19.5
q-32 0 -55 19q44 17 94.5 66.5t92.5 118.5z" />
    <glyph glyph-name="ucircumflex" unicode="&#xfb;" horiz-adv-x="494" 
d="M369 22q-32 27 -32 81q0 21 5 36q-5 0 -25.5 -25t-46.5 -60t-33 -43q-28 -29 -43 -31q-35 2 -68 23.5t-41 54.5q0 48 8 85q21 89 71 189t108 142q22 0 49 -8t40 -23q-9 -9 -25 -33t-45.5 -79t-56.5 -119q-12 -27 -27 -79.5t-15 -76.5q0 -11 7 -18q14 6 36.5 31.5
t65.5 84.5q1 2 17.5 23.5t23.5 32l20 30t22 37t15 34.5q33 91 78 134q26 0 56 -10.5t39 -21.5q-14 -33 -51.5 -107.5t-56 -127t-18.5 -99.5q0 -34 11 -62.5t11 -29.5l-4 -4q-14 0 -43 12t-52 27zM532 713q7 -91 18.5 -136t33.5 -68q-2 -1 -9 -1q-26 0 -54.5 29t-49.5 75
q-63 -56 -114 -56q-30 0 -54 26q81 29 143 102l-3 16q20 14 61 14q21 0 28 -1z" />
    <glyph glyph-name="udieresis" unicode="&#xfc;" horiz-adv-x="494" 
d="M369 22q-32 27 -32 81q0 21 5 36q-5 0 -25.5 -25t-46.5 -60t-33 -43q-28 -29 -43 -31q-35 2 -68 23.5t-41 54.5q0 48 8 85q21 89 71 189t108 142q22 0 49 -8t40 -23q-9 -9 -25 -33t-45.5 -79t-56.5 -119q-12 -27 -27 -79.5t-15 -76.5q0 -11 7 -18q14 6 36.5 31.5
t65.5 84.5q1 2 17.5 23.5t23.5 32l20 30t22 37t15 34.5q33 91 78 134q26 0 56 -10.5t39 -21.5q-14 -33 -51.5 -107.5t-56 -127t-18.5 -99.5q0 -34 11 -62.5t11 -29.5l-4 -4q-14 0 -43 12t-52 27zM380 605q0 92 58 95q14 -2 36.5 -15.5t31.5 -28.5q0 -1 -16 -25.5l-34.5 -52
t-24.5 -32.5q-41 17 -51 59zM511 583q0 93 56 95q13 -1 35.5 -14.5t33.5 -29.5q0 -4 -33 -53t-44 -55q-35 13 -48 57z" />
    <glyph glyph-name="yacute" unicode="&#xfd;" horiz-adv-x="489" 
d="M473 155q-46 -149 -95.5 -246t-121.5 -171q-94 -99 -193 -99q-49 0 -95.5 20.5t-61.5 48.5q0 12 14 21q23 -21 36 -27t35 -6q114 0 214.5 128.5t156.5 344.5q-105 -166 -169 -189q-35 2 -68.5 23.5t-41.5 54.5q0 49 9 85q22 89 72 189t107 142q60 0 91 -31
q-16 -14 -53 -75.5t-77 -155.5q-12 -31 -27 -82t-15 -74q0 -11 7 -18q45 8 116 112q35 52 88.5 151t80.5 144q26 0 57 -10.5t40 -21.5q-72 -154 -106 -258zM544 735q21 -13 39.5 -49.5t18.5 -64.5q-77 -51 -118 -70.5t-72 -19.5q-32 0 -55 19q44 17 94.5 66.5t92.5 118.5z
" />
    <glyph glyph-name="thorn" unicode="&#xfe;" horiz-adv-x="498" 
d="M271 278q21 36 75 92q76 79 126 79q38 0 62.5 -21t24.5 -54q0 -150 -93 -270q-35 -45 -88.5 -78t-91.5 -33q-40 0 -50 26q78 46 144.5 159t90.5 241q-78 -41 -129 -105q-74 -92 -93 -119.5t-39 -73.5q-65 -146 -147 -487q-11 2 -19 16q-15 17 -20 19q-14 4 -16 30
q-7 24 -7 72q0 43 27 141t70 207q44 110 79.5 208t36.5 101q133 327 213 402q21 -3 57.5 -25.5t45.5 -37.5q-58 -48 -133 -191.5t-126 -297.5z" />
    <glyph glyph-name="ydieresis" unicode="&#xff;" horiz-adv-x="489" 
d="M473 155q-46 -149 -95.5 -246t-121.5 -171q-94 -99 -193 -99q-49 0 -95.5 20.5t-61.5 48.5q0 12 14 21q23 -21 36 -27t35 -6q114 0 214.5 128.5t156.5 344.5q-105 -166 -169 -189q-35 2 -68.5 23.5t-41.5 54.5q0 49 9 85q22 89 72 189t107 142q60 0 91 -31
q-16 -14 -53 -75.5t-77 -155.5q-12 -31 -27 -82t-15 -74q0 -11 7 -18q45 8 116 112q35 52 88.5 151t80.5 144q26 0 57 -10.5t40 -21.5q-72 -154 -106 -258zM356 611q0 92 58 95q14 -2 36.5 -15.5t31.5 -28.5q0 -1 -16 -25.5l-34.5 -52t-24.5 -32.5q-41 17 -51 59zM487 589
q0 93 56 95q13 -1 35.5 -14.5t33.5 -29.5q0 -4 -33 -53t-44 -55q-35 13 -48 57z" />
    <glyph glyph-name="Amacron" unicode="&#x100;" horiz-adv-x="642" 
d="M146 -76q-48 14 -66.5 28t-18.5 35q0 70 133 304q-68 2 -80 2q11 28 108 45q79 130 173 232.5t176 146.5q2 18 2 19q28 0 83.5 -24t59.5 -38q-76 -134 -118 -450q-12 -91 -12 -205q0 -60 2 -93q-3 -1 -12 -1q-28 0 -68.5 15.5t-45.5 28.5q-1 17 -1 52q0 129 20 258
q-53 4 -213 10q-54 -100 -81 -179q-35 -100 -41 -186zM532 525q10 36 20 90q-50 -19 -118 -92.5t-131 -174.5q84 7 191 9q14 76 38 168zM506 866q45 -3 91 -3q106 0 195 20q18 -30 18 -77q-49 -9 -154 -9q-93 0 -152 13q2 22 2 56z" />
    <glyph glyph-name="amacron" unicode="&#x101;" horiz-adv-x="470" 
d="M442 404q21 0 48 -12.5t26 -22.5q-91 -189 -91 -298q0 -59 26 -73q-29 -18 -65 -18q-54 0 -54 74q0 57 38 156q-40 -91 -98.5 -157.5t-105.5 -74.5q-37 1 -60 35t-23 86q0 72 40 156t100 142t112 61q20 -5 46.5 -32.5t28.5 -46.5q-80 -13 -159 -118.5t-79 -198.5
q0 -19 14 -24q55 11 159 184q48 80 97 182zM309 628q45 -3 91 -3q106 0 195 20q18 -34 18 -87q-74 -9 -154 -9q-93 0 -152 13q2 26 2 66z" />
    <glyph glyph-name="Abreve" unicode="&#x102;" horiz-adv-x="642" 
d="M146 -76q-48 14 -66.5 28t-18.5 35q0 70 133 304q-68 2 -80 2q11 28 108 45q79 130 173 232.5t176 146.5q2 18 2 19q28 0 83.5 -24t59.5 -38q-76 -134 -118 -450q-12 -91 -12 -205q0 -60 2 -93q-3 -1 -12 -1q-28 0 -68.5 15.5t-45.5 28.5q-1 17 -1 52q0 129 20 258
q-53 4 -213 10q-54 -100 -81 -179q-35 -100 -41 -186zM532 525q10 36 20 90q-50 -19 -118 -92.5t-131 -174.5q84 7 191 9q14 76 38 168zM680 764q-48 4 -88 25t-53 63q23 26 69 31q23 -59 98 -64q68 11 104 61q10 -3 16 -19q-10 -34 -49.5 -60.5t-96.5 -36.5z" />
    <glyph glyph-name="abreve" unicode="&#x103;" horiz-adv-x="470" 
d="M442 404q21 0 48 -12.5t26 -22.5q-91 -189 -91 -298q0 -59 26 -73q-29 -18 -65 -18q-54 0 -54 74q0 57 38 156q-40 -91 -98.5 -157.5t-105.5 -74.5q-37 1 -60 35t-23 86q0 72 40 156t100 142t112 61q20 -5 46.5 -32.5t28.5 -46.5q-80 -13 -159 -118.5t-79 -198.5
q0 -19 14 -24q55 11 159 184q48 80 97 182zM483 524q-47 4 -87.5 40t-53.5 105q2 5 7 9.5t9.5 7t13.5 5.5t12.5 3.5t14 3t12.5 2.5q23 -111 98 -120q66 16 104 101q10 -3 16 -19q-10 -49 -49.5 -86.5t-96.5 -51.5z" />
    <glyph glyph-name="Aogonek" unicode="&#x104;" horiz-adv-x="643" 
d="M401 -212q0 45 33 88.5t80 62.5q-46 16 -52 30q-1 17 -1 52q0 129 20 258q-53 4 -213 10q-54 -100 -81 -179q-35 -100 -41 -186q-48 14 -66.5 28t-18.5 35q0 70 133 304q-68 2 -80 2q11 28 108 45q79 130 173 232.5t176 146.5q2 18 2 19q28 0 83.5 -24t59.5 -38
q-76 -134 -118 -450q-12 -91 -12 -205q0 -60 2 -93q-48 -10 -84.5 -50.5t-36.5 -99.5q0 -47 39 -47q45 0 107 46l6 -12q-20 -24 -56 -47t-57 -25q-43 3 -74 29.5t-31 67.5zM532 525q10 36 20 90q-50 -19 -118 -92.5t-131 -174.5q84 7 191 9q14 76 38 168z" />
    <glyph glyph-name="aogonek" unicode="&#x105;" horiz-adv-x="470" 
d="M255 -150q0 41 27 81t68 62q-18 17 -18 61q0 57 38 156q-40 -91 -98.5 -157.5t-105.5 -74.5q-37 1 -60 35t-23 86q0 72 40 156t100 142t112 61q20 -5 46.5 -32.5t28.5 -46.5q-80 -13 -159 -118.5t-79 -198.5q0 -19 14 -24q55 11 159 184q48 80 97 182q21 0 48 -12.5
t26 -22.5q-91 -189 -91 -298q0 -59 26 -73q-55 -17 -92.5 -57.5t-37.5 -102.5q0 -47 39 -47q45 0 107 46l6 -12q-20 -24 -56 -47t-57 -25q-43 3 -74 29.5t-31 67.5z" />
    <glyph glyph-name="Cacute" unicode="&#x106;" horiz-adv-x="604" 
d="M142 196q0 138 62 263.5t165.5 202t218.5 76.5q68 0 107 -29t39 -81q0 -39 -21.5 -83t-55.5 -72q-25 4 -45 23.5t-24 45.5q76 61 76 118q0 44 -55 44q-45 0 -96.5 -35.5t-92.5 -94.5q-139 -200 -139 -409q0 -73 22.5 -118.5t61.5 -53.5q91 21 253 172q10 -10 12 -21
q-57 -77 -121.5 -137.5t-114.5 -84.5q-123 2 -187.5 72t-64.5 202zM762 883q21 -6 39.5 -26t18.5 -38q-134 -55 -190 -55q-32 0 -55 19q97 21 187 100z" />
    <glyph glyph-name="cacute" unicode="&#x107;" horiz-adv-x="420" 
d="M103 176q0 113 85.5 205.5t190.5 92.5q52 0 80 -26t28 -74q0 -46 -23.5 -83.5t-52.5 -37.5q-26 0 -45 27q67 61 67 111q0 29 -23 29q-20 0 -50.5 -19.5t-57.5 -49.5q-88 -99 -88 -229q0 -80 36 -97q30 4 78.5 28t94.5 58q10 -8 10 -20q-33 -41 -85 -77.5t-86 -42.5
q-66 6 -112.5 66t-46.5 139zM555 729q21 -13 39.5 -49.5t18.5 -64.5q-77 -51 -118 -70.5t-72 -19.5q-32 0 -55 19q44 17 94.5 66.5t92.5 118.5z" />
    <glyph glyph-name="Ccircumflex" unicode="&#x108;" horiz-adv-x="604" 
d="M142 196q0 138 62 263.5t165.5 202t218.5 76.5q68 0 107 -29t39 -81q0 -39 -21.5 -83t-55.5 -72q-25 4 -45 23.5t-24 45.5q76 61 76 118q0 44 -55 44q-45 0 -96.5 -35.5t-92.5 -94.5q-139 -200 -139 -409q0 -73 22.5 -118.5t61.5 -53.5q91 21 253 172q10 -10 12 -21
q-57 -77 -121.5 -137.5t-114.5 -84.5q-123 2 -187.5 72t-64.5 202zM726 882q7 -57 18.5 -85.5t33.5 -42.5q-2 -1 -9 -1q-51 0 -99 56q-60 -45 -112 -45q-33 0 -54 22q76 19 137 71q-2 4 -4 12q20 14 61 14q21 0 28 -1z" />
    <glyph glyph-name="ccircumflex" unicode="&#x109;" horiz-adv-x="420" 
d="M103 176q0 113 85.5 205.5t190.5 92.5q52 0 80 -26t28 -74q0 -46 -23.5 -83.5t-52.5 -37.5q-26 0 -45 27q67 61 67 111q0 29 -23 29q-20 0 -50.5 -19.5t-57.5 -49.5q-88 -99 -88 -229q0 -80 36 -97q30 4 78.5 28t94.5 58q10 -8 10 -20q-33 -41 -85 -77.5t-86 -42.5
q-66 6 -112.5 66t-46.5 139zM509 713q7 -91 18.5 -136t33.5 -68q-2 -1 -9 -1q-26 0 -54.5 29t-49.5 75q-63 -56 -114 -56q-30 0 -54 26q81 29 143 102l-3 16q20 14 61 14q21 0 28 -1z" />
    <glyph glyph-name="Cdotaccent" unicode="&#x10a;" horiz-adv-x="604" 
d="M142 196q0 138 62 263.5t165.5 202t218.5 76.5q68 0 107 -29t39 -81q0 -39 -21.5 -83t-55.5 -72q-25 4 -45 23.5t-24 45.5q76 61 76 118q0 44 -55 44q-45 0 -96.5 -35.5t-92.5 -94.5q-139 -200 -139 -409q0 -73 22.5 -118.5t61.5 -53.5q91 21 253 172q10 -10 12 -21
q-57 -77 -121.5 -137.5t-114.5 -84.5q-123 2 -187.5 72t-64.5 202zM637 791q0 6 3 18q-15 15 -15 40q0 16 5 34q25 0 64.5 -7t53.5 -16q-14 -10 -41.5 -45t-34.5 -51q-13 2 -24 10.5t-11 16.5z" />
    <glyph glyph-name="cdotaccent" unicode="&#x10b;" horiz-adv-x="420" 
d="M103 176q0 113 85.5 205.5t190.5 92.5q52 0 80 -26t28 -74q0 -46 -23.5 -83.5t-52.5 -37.5q-26 0 -45 27q67 61 67 111q0 29 -23 29q-20 0 -50.5 -19.5t-57.5 -49.5q-88 -99 -88 -229q0 -80 36 -97q30 4 78.5 28t94.5 58q10 -8 10 -20q-33 -41 -85 -77.5t-86 -42.5
q-66 6 -112.5 66t-46.5 139zM391 534q0 6 3 18q-12 12 -12 33q0 18 9.5 59t21.5 72q23 0 64.5 -24t56.5 -46q-23 -21 -64.5 -72t-48.5 -67q-12 2 -21 10.5t-9 16.5z" />
    <glyph glyph-name="Ccaron" unicode="&#x10c;" horiz-adv-x="604" 
d="M142 196q0 138 62 263.5t165.5 202t218.5 76.5q68 0 107 -29t39 -81q0 -39 -21.5 -83t-55.5 -72q-25 4 -45 23.5t-24 45.5q76 61 76 118q0 44 -55 44q-45 0 -96.5 -35.5t-92.5 -94.5q-139 -200 -139 -409q0 -73 22.5 -118.5t61.5 -53.5q91 21 253 172q10 -10 12 -21
q-57 -77 -121.5 -137.5t-114.5 -84.5q-123 2 -187.5 72t-64.5 202zM662 751q-26 13 -53 13q-23 49 -37 70.5t-41 46.5q10 2 17 2q29 0 51.5 -18t49.5 -62q60 63 114 80q17 -4 49 -45q-91 -30 -150 -87z" />
    <glyph glyph-name="ccaron" unicode="&#x10d;" horiz-adv-x="420" 
d="M103 176q0 113 85.5 205.5t190.5 92.5q52 0 80 -26t28 -74q0 -46 -23.5 -83.5t-52.5 -37.5q-26 0 -45 27q67 61 67 111q0 29 -23 29q-20 0 -50.5 -19.5t-57.5 -49.5q-88 -99 -88 -229q0 -80 36 -97q30 4 78.5 28t94.5 58q10 -8 10 -20q-33 -41 -85 -77.5t-86 -42.5
q-66 6 -112.5 66t-46.5 139zM448 505q-46 12 -65 29q-12 108 -69 179q10 2 17 2q57 0 111 -122q60 76 99 96q20 -3 54 -49q-71 -30 -147 -135z" />
    <glyph glyph-name="Dcaron" unicode="&#x10e;" horiz-adv-x="778" 
d="M168 52q43 98 126 319t105 294q-130 -53 -176 -212q-24 8 -42.5 29.5t-24.5 50.5q20 92 108 148.5t214 56.5q160 0 262 -89t102 -232q0 -128 -61.5 -242t-164.5 -182.5t-220 -68.5q-168 0 -228 128zM521 688q-50 0 -95 -14q78 -28 113 -61q-43 -60 -148 -292
q-108 -240 -108 -301q27 -9 77 -9q106 0 198.5 63.5t146 169.5t53.5 227q0 102 -63.5 159.5t-173.5 57.5zM627 751q-26 13 -53 13q-23 49 -37 70.5t-41 46.5q10 2 17 2q29 0 51.5 -18t49.5 -62q60 63 114 80q17 -4 49 -45q-91 -30 -150 -87z" />
    <glyph glyph-name="dcaron" unicode="&#x10f;" horiz-adv-x="433" 
d="M315 467q20 0 46 -12t46 -31q-9 84 -36 153.5t-97 181.5q7 19 37.5 43.5t55.5 28.5q57 -61 97 -177t40 -220q0 -102 -42 -212.5t-108.5 -187.5t-132.5 -88q-69 8 -105.5 44.5t-36.5 100.5q0 67 37.5 151.5t93 148.5t105.5 76zM213 -14q71 25 133.5 149.5t62.5 241.5
q0 24 -1 29q-72 -31 -156 -158t-84 -205q0 -49 45 -57zM547 526q-16 14 -16 38q47 80 47 180q0 40 -6 88q51 -3 93.5 -24.5t48.5 -46.5q-38 -167 -167 -235z" />
    <glyph glyph-name="Dcroat" unicode="&#x110;" horiz-adv-x="778" 
d="M168 52q32 74 91 226q-48 3 -92 11q3 19 3 66q54 -3 117 -3q87 230 112 313q-130 -53 -176 -212q-24 8 -42.5 29.5t-24.5 50.5q20 92 108 148.5t214 56.5q160 0 262 -89t102 -232q0 -128 -61.5 -242t-164.5 -182.5t-220 -68.5q-168 0 -228 128zM521 688q-50 0 -95 -14
q78 -28 113 -61q-37 -53 -132 -256q54 6 106 15q8 -13 15 -39.5t7 -47.5q-79 -9 -164 -9q-88 -200 -88 -256q27 -9 77 -9q106 0 198.5 63.5t146 169.5t53.5 227q0 102 -63.5 159.5t-173.5 57.5z" />
    <glyph glyph-name="dcroat" unicode="&#x111;" horiz-adv-x="433" 
d="M232 675q45 -3 93 -3q-21 39 -51 87q7 19 37.5 43.5t55.5 28.5q50 -56 88 -154q68 8 102 15q8 -13 14.5 -39.5t6.5 -47.5q-33 -4 -97 -8q23 -90 23 -163q0 -102 -42 -212.5t-108.5 -187.5t-132.5 -88q-69 8 -105.5 44.5t-36.5 100.5q0 67 37.5 151.5t93 148.5t105.5 76
q20 0 46 -12t46 -31q-11 94 -44 172q-80 3 -133 13q2 26 2 66zM213 -14q71 25 133.5 149.5t62.5 241.5q0 24 -1 29q-72 -31 -156 -158t-84 -205q0 -49 45 -57z" />
    <glyph glyph-name="Emacron" unicode="&#x112;" horiz-adv-x="609" 
d="M514 426q33 0 51.5 -18t18.5 -50q0 -18 -5 -31q-28 5 -67 5q-26 0 -54 -3t-66 -9l-51 -8q-44 -103 -73 -190.5t-31 -118.5q179 36 337 47q26 -38 26 -80q0 -18 -2 -27q-74 2 -140 2q-114 0 -261 -26q-46 18 -89 88q42 87 125 306q-45 14 -59 50q9 9 88 28q53 141 71 226
q-34 1 -54.5 19t-20.5 46q0 18 8 38q33 -5 87 -5q99 0 217.5 11t125.5 11q23 0 41 -24t27 -68q-51 5 -85 5q-71 0 -188 -17q-20 -30 -105 -220q81 13 128 13zM385 866q45 -3 91 -3q106 0 195 20q18 -30 18 -77q-49 -9 -154 -9q-93 0 -152 13q2 22 2 56z" />
    <glyph glyph-name="emacron" unicode="&#x113;" horiz-adv-x="404" 
d="M455 414q-7 -117 -68.5 -179.5t-198.5 -117.5q0 -4 -0.5 -12.5t-0.5 -13.5q0 -80 46 -80q33 0 71.5 22t60 42.5t51.5 52.5q10 -9 17 -17q-45 -59 -98.5 -99t-101.5 -51q-68 7 -107 49.5t-39 103.5q0 80 42.5 164t109 138.5t130.5 54.5q46 -6 86 -57zM386 381
q-56 -8 -111.5 -71.5t-78.5 -154.5q83 41 134.5 100.5t55.5 125.5zM301 628q45 -3 91 -3q106 0 195 20q18 -34 18 -87q-73 -9 -154 -9q-93 0 -152 13q2 26 2 66z" />
    <glyph glyph-name="Ebreve" unicode="&#x114;" horiz-adv-x="609" 
d="M514 426q33 0 51.5 -18t18.5 -50q0 -18 -5 -31q-28 5 -67 5q-26 0 -54 -3t-66 -9l-51 -8q-44 -103 -73 -190.5t-31 -118.5q179 36 337 47q26 -38 26 -80q0 -18 -2 -27q-74 2 -140 2q-114 0 -261 -26q-46 18 -89 88q42 87 125 306q-45 14 -59 50q9 9 88 28q53 141 71 226
q-34 1 -54.5 19t-20.5 46q0 18 8 38q33 -5 87 -5q99 0 217.5 11t125.5 11q23 0 41 -24t27 -68q-51 5 -85 5q-71 0 -188 -17q-20 -30 -105 -220q81 13 128 13zM559 764q-48 4 -88 25t-53 63q23 26 69 31q23 -59 98 -64q68 11 104 61q10 -3 16 -19q-10 -34 -49.5 -60.5
t-96.5 -36.5z" />
    <glyph glyph-name="ebreve" unicode="&#x115;" horiz-adv-x="404" 
d="M455 414q-7 -117 -68.5 -179.5t-198.5 -117.5q0 -4 -0.5 -12.5t-0.5 -13.5q0 -80 46 -80q33 0 71.5 22t60 42.5t51.5 52.5q10 -9 17 -17q-45 -59 -98.5 -99t-101.5 -51q-68 7 -107 49.5t-39 103.5q0 80 42.5 164t109 138.5t130.5 54.5q46 -6 86 -57zM386 381
q-56 -8 -111.5 -71.5t-78.5 -154.5q83 41 134.5 100.5t55.5 125.5zM475 524q-47 4 -87.5 40t-53.5 105q2 5 7 9.5t9.5 7t13.5 5.5t12.5 3.5t14 3t12.5 2.5q23 -111 98 -120q66 16 104 101q10 -3 16 -19q-10 -49 -49.5 -86.5t-96.5 -51.5z" />
    <glyph glyph-name="Edotaccent" unicode="&#x116;" horiz-adv-x="609" 
d="M514 426q33 0 51.5 -18t18.5 -50q0 -18 -5 -31q-28 5 -67 5q-26 0 -54 -3t-66 -9l-51 -8q-44 -103 -73 -190.5t-31 -118.5q179 36 337 47q26 -38 26 -80q0 -18 -2 -27q-74 2 -140 2q-114 0 -261 -26q-46 18 -89 88q42 87 125 306q-45 14 -59 50q9 9 88 28q53 141 71 226
q-34 1 -54.5 19t-20.5 46q0 18 8 38q33 -5 87 -5q99 0 217.5 11t125.5 11q23 0 41 -24t27 -68q-51 5 -85 5q-71 0 -188 -17q-20 -30 -105 -220q81 13 128 13zM509 791q0 6 3 18q-15 15 -15 40q0 16 5 34q25 0 64.5 -7t53.5 -16q-14 -10 -41.5 -45t-34.5 -51q-13 2 -24 10.5
t-11 16.5z" />
    <glyph glyph-name="edotaccent" unicode="&#x117;" horiz-adv-x="404" 
d="M455 414q-7 -117 -68.5 -179.5t-198.5 -117.5q0 -4 -0.5 -12.5t-0.5 -13.5q0 -80 46 -80q33 0 71.5 22t60 42.5t51.5 52.5q10 -9 17 -17q-45 -59 -98.5 -99t-101.5 -51q-68 7 -107 49.5t-39 103.5q0 80 42.5 164t109 138.5t130.5 54.5q46 -6 86 -57zM386 381
q-56 -8 -111.5 -71.5t-78.5 -154.5q83 41 134.5 100.5t55.5 125.5zM396 534q0 6 3 18q-12 12 -12 33q0 18 9.5 59t21.5 72q23 0 64.5 -24t56.5 -46q-23 -21 -64.5 -72t-48.5 -67q-12 2 -21 10.5t-9 16.5z" />
    <glyph glyph-name="Eogonek" unicode="&#x118;" horiz-adv-x="609" 
d="M273 -193q0 37 22.5 73.5t58.5 60.5q-73 -6 -157 -22q-46 18 -89 88q42 87 125 306q-45 14 -59 50q9 9 88 28q53 141 71 226q-34 1 -54.5 19t-20.5 46q0 18 8 38q33 -5 87 -5q99 0 217.5 11t125.5 11q23 0 41 -24t27 -68q-51 5 -85 5q-71 0 -188 -17q-20 -30 -105 -220
q81 13 128 13q33 0 51.5 -18t18.5 -50q0 -18 -5 -31q-28 5 -67 5q-26 0 -54 -3t-66 -9l-51 -8q-44 -103 -73 -190.5t-31 -118.5q179 36 337 47q26 -38 26 -80q0 -18 -2 -27q-74 2 -140 2q-46 -6 -82.5 -49t-36.5 -101q0 -47 39 -47q45 0 107 46l6 -12q-20 -24 -56 -47
t-57 -25q-43 3 -74 29.5t-31 67.5z" />
    <glyph glyph-name="eogonek" unicode="&#x119;" horiz-adv-x="403" 
d="M86 -169q0 41 27 81t68 62q-45 18 -69.5 55t-24.5 85q0 80 42.5 164t109 138.5t130.5 54.5q46 -6 86 -57q-7 -117 -68.5 -179.5t-198.5 -117.5q0 -4 -0.5 -12.5t-0.5 -13.5q0 -80 46 -80q33 0 71.5 22t60 42.5t51.5 52.5q10 -9 17 -17q-91 -119 -195 -149
q-35 -16 -60.5 -55.5t-25.5 -87.5q0 -47 39 -47q45 0 107 46l6 -12q-20 -24 -56 -47t-57 -25q-43 3 -74 29.5t-31 67.5zM386 381q-56 -8 -111.5 -71.5t-78.5 -154.5q83 41 134.5 100.5t55.5 125.5z" />
    <glyph glyph-name="Ecaron" unicode="&#x11a;" horiz-adv-x="609" 
d="M514 426q33 0 51.5 -18t18.5 -50q0 -18 -5 -31q-28 5 -67 5q-26 0 -54 -3t-66 -9l-51 -8q-44 -103 -73 -190.5t-31 -118.5q179 36 337 47q26 -38 26 -80q0 -18 -2 -27q-74 2 -140 2q-114 0 -261 -26q-46 18 -89 88q42 87 125 306q-45 14 -59 50q9 9 88 28q53 141 71 226
q-34 1 -54.5 19t-20.5 46q0 18 8 38q33 -5 87 -5q99 0 217.5 11t125.5 11q23 0 41 -24t27 -68q-51 5 -85 5q-71 0 -188 -17q-20 -30 -105 -220q81 13 128 13zM534 751q-26 13 -53 13q-23 49 -37 70.5t-41 46.5q10 2 17 2q29 0 51.5 -18t49.5 -62q60 63 114 80q17 -4 49 -45
q-91 -30 -150 -87z" />
    <glyph glyph-name="ecaron" unicode="&#x11b;" horiz-adv-x="404" 
d="M455 414q-7 -117 -68.5 -179.5t-198.5 -117.5q0 -4 -0.5 -12.5t-0.5 -13.5q0 -80 46 -80q33 0 71.5 22t60 42.5t51.5 52.5q10 -9 17 -17q-45 -59 -98.5 -99t-101.5 -51q-68 7 -107 49.5t-39 103.5q0 80 42.5 164t109 138.5t130.5 54.5q46 -6 86 -57zM386 381
q-56 -8 -111.5 -71.5t-78.5 -154.5q83 41 134.5 100.5t55.5 125.5zM453 505q-46 12 -65 29q-12 108 -69 179q10 2 17 2q57 0 111 -122q60 76 99 96q20 -3 54 -49q-71 -30 -147 -135z" />
    <glyph glyph-name="Gcircumflex" unicode="&#x11c;" horiz-adv-x="650" 
d="M655 318q26 0 41 -18t15 -50q0 -20 -4 -31q-21 5 -46 6q-13 -89 -95.5 -184t-167.5 -117q-133 3 -195 70t-62 207q0 134 64 259t169.5 201.5t219.5 76.5q68 0 107 -29.5t39 -81.5q0 -66 -71 -130q-23 7 -40 25t-21 40q35 26 48.5 46.5t13.5 49.5q0 46 -55 46
q-92 0 -200 -130q-74 -88 -108 -183t-34 -213q0 -86 32.5 -142.5t80.5 -61.5q63 14 122.5 91.5t67.5 150.5q-79 -17 -102 -17q-30 0 -52.5 15t-30.5 41q35 20 126 41.5t138 21.5zM717 882q7 -57 18.5 -85.5t33.5 -42.5q-2 -1 -9 -1q-51 0 -99 56q-60 -45 -112 -45
q-33 0 -54 22q76 19 137 71q-2 4 -4 12q20 14 61 14q21 0 28 -1z" />
    <glyph glyph-name="gcircumflex" unicode="&#x11d;" horiz-adv-x="450" 
d="M-105 -298q0 10 13 21q25 -21 37.5 -27t33.5 -6q103 0 187 106t136 298q-23 -24 -65.5 -53.5t-69.5 -40.5q-34 6 -57 43t-23 84q0 75 51.5 158.5t128.5 139t146 55.5q35 0 53 -14.5t25 -49.5q-11 6 -28 6q-46 0 -117.5 -66t-125 -155t-53.5 -148q0 -10 4 -10
q17 0 59 34.5t81 78.5q88 99 135 223q56 -3 77 -24q-46 -107 -90 -225q-61 -165 -105.5 -255.5t-110.5 -163.5q-33 -36 -80 -57t-86 -21q-49 0 -95.5 20.5t-60.5 48.5zM519 713q7 -91 18.5 -136t33.5 -68q-2 -1 -9 -1q-26 0 -54.5 29t-49.5 75q-63 -56 -114 -56
q-30 0 -54 26q81 29 143 102l-3 16q20 14 61 14q21 0 28 -1z" />
    <glyph glyph-name="Gbreve" unicode="&#x11e;" horiz-adv-x="650" 
d="M655 318q26 0 41 -18t15 -50q0 -20 -4 -31q-21 5 -46 6q-13 -89 -95.5 -184t-167.5 -117q-133 3 -195 70t-62 207q0 134 64 259t169.5 201.5t219.5 76.5q68 0 107 -29.5t39 -81.5q0 -66 -71 -130q-23 7 -40 25t-21 40q35 26 48.5 46.5t13.5 49.5q0 46 -55 46
q-92 0 -200 -130q-74 -88 -108 -183t-34 -213q0 -86 32.5 -142.5t80.5 -61.5q63 14 122.5 91.5t67.5 150.5q-79 -17 -102 -17q-30 0 -52.5 15t-30.5 41q35 20 126 41.5t138 21.5zM678 764q-48 4 -88 25t-53 63q23 26 69 31q23 -59 98 -64q68 11 104 61q10 -3 16 -19
q-10 -34 -49.5 -60.5t-96.5 -36.5z" />
    <glyph glyph-name="gbreve" unicode="&#x11f;" horiz-adv-x="450" 
d="M-105 -298q0 10 13 21q25 -21 37.5 -27t33.5 -6q103 0 187 106t136 298q-23 -24 -65.5 -53.5t-69.5 -40.5q-34 6 -57 43t-23 84q0 75 51.5 158.5t128.5 139t146 55.5q35 0 53 -14.5t25 -49.5q-11 6 -28 6q-46 0 -117.5 -66t-125 -155t-53.5 -148q0 -10 4 -10
q17 0 59 34.5t81 78.5q88 99 135 223q56 -3 77 -24q-46 -107 -90 -225q-61 -165 -105.5 -255.5t-110.5 -163.5q-33 -36 -80 -57t-86 -21q-49 0 -95.5 20.5t-60.5 48.5zM480 524q-47 4 -87.5 40t-53.5 105q2 5 7 9.5t9.5 7t13.5 5.5t12.5 3.5t14 3t12.5 2.5q23 -111 98 -120
q66 16 104 101q10 -3 16 -19q-10 -49 -49.5 -86.5t-96.5 -51.5z" />
    <glyph glyph-name="Gdotaccent" unicode="&#x120;" horiz-adv-x="650" 
d="M655 318q26 0 41 -18t15 -50q0 -20 -4 -31q-21 5 -46 6q-13 -89 -95.5 -184t-167.5 -117q-133 3 -195 70t-62 207q0 134 64 259t169.5 201.5t219.5 76.5q68 0 107 -29.5t39 -81.5q0 -66 -71 -130q-23 7 -40 25t-21 40q35 26 48.5 46.5t13.5 49.5q0 46 -55 46
q-92 0 -200 -130q-74 -88 -108 -183t-34 -213q0 -86 32.5 -142.5t80.5 -61.5q63 14 122.5 91.5t67.5 150.5q-79 -17 -102 -17q-30 0 -52.5 15t-30.5 41q35 20 126 41.5t138 21.5zM628 791q0 6 3 18q-15 15 -15 40q0 16 5 34q25 0 64.5 -7t53.5 -16q-14 -10 -41.5 -45
t-34.5 -51q-13 2 -24 10.5t-11 16.5z" />
    <glyph glyph-name="gdotaccent" unicode="&#x121;" horiz-adv-x="450" 
d="M-105 -298q0 10 13 21q25 -21 37.5 -27t33.5 -6q103 0 187 106t136 298q-23 -24 -65.5 -53.5t-69.5 -40.5q-34 6 -57 43t-23 84q0 75 51.5 158.5t128.5 139t146 55.5q35 0 53 -14.5t25 -49.5q-11 6 -28 6q-46 0 -117.5 -66t-125 -155t-53.5 -148q0 -10 4 -10
q17 0 59 34.5t81 78.5q88 99 135 223q56 -3 77 -24q-46 -107 -90 -225q-61 -165 -105.5 -255.5t-110.5 -163.5q-33 -36 -80 -57t-86 -21q-49 0 -95.5 20.5t-60.5 48.5zM461 536q0 6 3 18q-12 12 -12 33q0 18 9.5 59t21.5 72q23 0 64.5 -24t56.5 -46q-23 -21 -64.5 -72
t-48.5 -67q-12 2 -21 10.5t-9 16.5z" />
    <glyph glyph-name="Gcommaaccent" unicode="&#x122;" horiz-adv-x="649" 
d="M655 318q26 0 41 -18t15 -50q0 -20 -4 -31q-21 5 -46 6q-13 -89 -95.5 -184t-167.5 -117q-133 3 -195 70t-62 207q0 134 64 259t169.5 201.5t219.5 76.5q68 0 107 -29.5t39 -81.5q0 -66 -71 -130q-23 7 -40 25t-21 40q35 26 48.5 46.5t13.5 49.5q0 46 -55 46
q-92 0 -200 -130q-74 -88 -108 -183t-34 -213q0 -86 32.5 -142.5t80.5 -61.5q63 14 122.5 91.5t67.5 150.5q-79 -17 -102 -17q-30 0 -52.5 15t-30.5 41q35 20 126 41.5t138 21.5zM239 -350q-16 14 -16 38q63 74 63 149q0 35 -12 79q51 -3 94 -24.5t48 -46.5
q-14 -49 -64.5 -108t-112.5 -87z" />
    <glyph glyph-name="gcommaaccent" unicode="&#x123;" horiz-adv-x="450" 
d="M-105 -298q0 10 13 21q25 -21 37.5 -27t33.5 -6q103 0 187 106t136 298q-23 -24 -65.5 -53.5t-69.5 -40.5q-34 6 -57 43t-23 84q0 75 51.5 158.5t128.5 139t146 55.5q35 0 53 -14.5t25 -49.5q-11 6 -28 6q-46 0 -117.5 -66t-125 -155t-53.5 -148q0 -10 4 -10
q17 0 59 34.5t81 78.5q88 99 135 223q56 -3 77 -24q-46 -107 -90 -225q-61 -165 -105.5 -255.5t-110.5 -163.5q-33 -36 -80 -57t-86 -21q-49 0 -95.5 20.5t-60.5 48.5zM571 777q16 -14 16 -38q-63 -74 -63 -149q0 -36 12 -79q-51 3 -94 24.5t-48 46.5q14 49 64.5 108
t112.5 87z" />
    <glyph glyph-name="Hcircumflex" unicode="&#x124;" horiz-adv-x="675" 
d="M491 58q0 79 51 249q-36 -2 -124 -11.5t-124 -10.5q-82 -193 -113 -366q-64 15 -109 88q30 63 119 295q-33 14 -44 39q9 6 66 18q51 130 67.5 188.5t41.5 194.5q79 -14 136 -107q-22 -28 -123 -256q143 19 238 25q86 249 144 310q21 -2 61 -23.5t49 -38.5
q-67 -63 -138 -267q20 -18 20 -45q0 -19 -8 -35q-13 2 -37 4q-75 -238 -75 -363q0 -16 2 -26q-25 1 -36.5 10.5t-17.5 21.5t-15 16q-13 5 -22 36.5t-9 53.5zM630 882q7 -57 18.5 -85.5t33.5 -42.5q-2 -1 -9 -1q-51 0 -99 56q-60 -45 -112 -45q-33 0 -54 22q76 19 137 71
q-2 4 -4 12q20 14 61 14q21 0 28 -1z" />
    <glyph glyph-name="hcircumflex" unicode="&#x125;" horiz-adv-x="517" 
d="M96 17q0 70 27.5 183.5t73.5 231.5q40 106 104 213t132 185q32 0 70.5 -14.5t55.5 -33.5q-157 -160 -230 -303q-76 -148 -106 -270q192 245 285 245q26 0 56.5 -17.5t52.5 -45.5q-61 -67 -124 -178t-63 -152q0 -10 3 -13.5t13 -3.5q9 0 17 2t12.5 4t5.5 2q7 -12 7 -16
q0 -7 -40.5 -26.5t-56.5 -19.5q-20 0 -37 20t-17 43q0 29 32 113.5t81 182.5q0 4 -4 4q-8 0 -39 -24q-71 -53 -143.5 -152.5t-117.5 -205.5q-3 -7 -9 -13t-10 -6q-7 0 -18.5 24.5t-12.5 40.5zM627 1068q7 -91 18.5 -136t33.5 -68q-2 -1 -9 -1q-26 0 -54.5 29t-49.5 75
q-63 -56 -114 -56q-30 0 -54 26q81 29 143 102l-3 16q20 14 61 14q21 0 28 -1z" />
    <glyph glyph-name="Hbar" unicode="&#x126;" horiz-adv-x="762" 
d="M522 58q0 79 51 249q-36 -2 -124 -11.5t-124 -10.5q-82 -193 -113 -366q-64 15 -109 88q30 63 119 295q-33 14 -44 39q9 6 66 18q8 16 45 115q-48 2 -119 8q5 22 5 67q29 -2 57 -2.5t50 -1t30 -0.5q15 54 41 197q79 -14 136 -107q-17 -22 -49 -90q104 0 219 5
q54 126 89 164q21 -2 61 -23.5t49 -38.5q-31 -29 -66 -95q34 2 98 8q17 -13 31 -39.5t14 -47.5q-62 -3 -183 -7q-18 -45 -32 -86q20 -18 20 -45q0 -19 -8 -35q-13 2 -37 4q-75 -238 -75 -363q0 -16 2 -26q-25 1 -36.5 10.5t-17.5 21.5t-15 16q-13 5 -22 36.5t-9 53.5z
M627 469q-176 0 -221 1l-40 -91q143 19 238 25q4 14 23 65z" />
    <glyph glyph-name="hbar" unicode="&#x127;" horiz-adv-x="517" 
d="M204 675q51 -3 113 -3q62 97 116 158q32 0 70.5 -14.5t55.5 -33.5q-41 -41 -91 -100q38 6 61 10q8 -13 14.5 -39.5t6.5 -47.5q-72 -7 -149 -9q-43 -62 -72 -117q-76 -148 -106 -270q192 245 285 245q26 0 56.5 -17.5t52.5 -45.5q-61 -67 -124 -178t-63 -152
q0 -10 3 -13.5t13 -3.5q9 0 17 2t12.5 4t5.5 2q7 -12 7 -16q0 -7 -40.5 -26.5t-56.5 -19.5q-20 0 -37 20t-17 43q0 29 32 113.5t81 182.5q0 4 -4 4q-8 0 -39 -24q-71 -53 -143.5 -152.5t-117.5 -205.5q-3 -7 -9 -13t-10 -6q-27 18 -31 65q0 70 27.5 183.5t73.5 231.5
q34 89 78 167q-43 3 -73 10q2 26 2 66z" />
    <glyph glyph-name="Itilde" unicode="&#x128;" horiz-adv-x="315" 
d="M131 57q0 108 84 353t141 304q21 -2 61 -23.5t48 -38.5q-54 -49 -111.5 -194.5t-92 -293t-34.5 -223.5q0 -17 3 -21q-20 1 -32 7.5t-16 14t-9.5 15.5t-13.5 11q-12 5 -20 36t-8 53zM288 853q47 -16 92 -16q73 0 171 46q22 -22 34 -80q-67 -32 -154 -32q-60 0 -98 23
t-45 59z" />
    <glyph glyph-name="itilde" unicode="&#x129;" horiz-adv-x="239" 
d="M97 56q0 32 33 188q3 15 8 32t15.5 45t28 50.5t38.5 32.5q19 -3 47.5 -20.5t46.5 -43.5q-40 -47 -62 -96.5t-47 -130.5l-10 -31l-9.5 -29.5t-6 -24t-2.5 -24.5q0 -34 -6 -34q-7 0 -23 8t-33.5 29.5t-17.5 48.5zM169 575q47 -16 92 -16q71 0 171 47q22 -25 34 -90
q-84 -30 -154 -30q-59 0 -97.5 26t-45.5 63z" />
    <glyph glyph-name="Imacron" unicode="&#x12a;" horiz-adv-x="315" 
d="M131 57q0 108 84 353t141 304q21 -2 61 -23.5t48 -38.5q-54 -49 -111.5 -194.5t-92 -293t-34.5 -223.5q0 -17 3 -21q-20 1 -32 7.5t-16 14t-9.5 15.5t-13.5 11q-12 5 -20 36t-8 53zM310 866q45 -3 91 -3q106 0 195 20q18 -30 18 -77q-49 -9 -154 -9q-93 0 -152 13
q2 22 2 56z" />
    <glyph glyph-name="imacron" unicode="&#x12b;" horiz-adv-x="239" 
d="M97 56q0 32 33 188q3 15 8 32t15.5 45t28 50.5t38.5 32.5q19 -3 47.5 -20.5t46.5 -43.5q-40 -47 -62 -96.5t-47 -130.5l-10 -31l-9.5 -29.5t-6 -24t-2.5 -24.5q0 -34 -6 -34q-7 0 -23 8t-33.5 29.5t-17.5 48.5zM191 579q45 -3 91 -3q106 0 195 20q18 -34 18 -87
q-73 -9 -154 -9q-93 0 -152 13q2 26 2 66z" />
    <glyph glyph-name="Ibreve" unicode="&#x12c;" horiz-adv-x="315" 
d="M131 57q0 108 84 353t141 304q21 -2 61 -23.5t48 -38.5q-54 -49 -111.5 -194.5t-92 -293t-34.5 -223.5q0 -17 3 -21q-20 1 -32 7.5t-16 14t-9.5 15.5t-13.5 11q-12 5 -20 36t-8 53zM484 764q-48 4 -88 25t-53 63q23 26 69 31q23 -59 98 -64q68 11 104 61q10 -3 16 -19
q-10 -34 -49.5 -60.5t-96.5 -36.5z" />
    <glyph glyph-name="ibreve" unicode="&#x12d;" horiz-adv-x="239" 
d="M97 56q0 32 33 188q3 15 8 32t15.5 45t28 50.5t38.5 32.5q19 -3 47.5 -20.5t46.5 -43.5q-40 -47 -62 -96.5t-47 -130.5l-10 -31l-9.5 -29.5t-6 -24t-2.5 -24.5q0 -34 -6 -34q-7 0 -23 8t-33.5 29.5t-17.5 48.5zM365 475q-47 4 -87.5 40t-53.5 105q2 5 7 9.5t9.5 7
t13.5 5.5t12.5 3.5t14 3t12.5 2.5q23 -111 98 -120q66 16 104 101q10 -3 16 -19q-10 -49 -49.5 -86.5t-96.5 -51.5z" />
    <glyph glyph-name="Iogonek" unicode="&#x12e;" horiz-adv-x="316" 
d="M27 -174q0 48 36 92.5t86 61.5q-17 31 -17 77q0 108 84 353t141 304q21 -2 61 -23.5t48 -38.5q-54 -49 -111.5 -194.5t-92 -293t-34.5 -223.5q0 -17 3 -21q-10 0 -18 2.5t-13 4.5t-9.5 6.5t-6 6.5t-5 8t-4.5 7q-33 -17 -57.5 -55.5t-24.5 -85.5t39 -47q45 0 107 46l6 -12
q-20 -24 -56 -47t-57 -25q-43 3 -74 29.5t-31 67.5z" />
    <glyph glyph-name="iogonek" unicode="&#x12f;" horiz-adv-x="235" 
d="M-3 -156q0 51 40.5 98t93.5 59q-34 28 -34 66q0 33 34 190q3 15 9 33t17.5 44.5t29.5 49.5t39 33q21 -5 48 -22.5t45 -43.5q-18 -20 -31.5 -40t-25.5 -45.5t-18.5 -42l-19 -50l-18.5 -49.5q-29 -76 -30 -109q0 -32 -5 -33q-39 -7 -73.5 -50t-34.5 -100q0 -47 39 -47
q45 0 107 46l6 -12q-20 -24 -56 -47t-57 -25q-43 3 -74 29.5t-31 67.5zM288 501q0 6 3 18q-12 12 -12 33q0 18 9.5 59t21.5 72q23 0 64.5 -24t56.5 -46q-23 -21 -64.5 -72t-48.5 -67q-12 2 -21 10.5t-9 16.5z" />
    <glyph glyph-name="Idotaccent" unicode="&#x130;" horiz-adv-x="315" 
d="M131 57q0 108 84 353t141 304q21 -2 61 -23.5t48 -38.5q-54 -49 -111.5 -194.5t-92 -293t-34.5 -223.5q0 -17 3 -21q-20 1 -32 7.5t-16 14t-9.5 15.5t-13.5 11q-12 5 -20 36t-8 53zM434 791q0 6 3 18q-15 15 -15 40q0 16 5 34q25 0 64.5 -7t53.5 -16q-14 -10 -41.5 -45
t-34.5 -51q-13 2 -24 10.5t-11 16.5z" />
    <glyph glyph-name="dotlessi" unicode="&#x131;" horiz-adv-x="239" 
d="M97 56q0 32 33 188q3 15 8 32t15.5 45t28 50.5t38.5 32.5q19 -3 47.5 -20.5t46.5 -43.5q-40 -47 -62 -96.5t-47 -130.5l-10 -31l-9.5 -29.5t-6 -24t-2.5 -24.5q0 -34 -6 -34q-7 0 -23 8t-33.5 29.5t-17.5 48.5z" />
    <glyph glyph-name="IJ" unicode="&#x132;" horiz-adv-x="735" 
d="M131 57q0 108 84 353t141 304q21 -2 61 -23.5t48 -38.5q-54 -49 -111.5 -194.5t-92 -293t-34.5 -223.5q0 -17 3 -21q-20 1 -32 7.5t-16 14t-9.5 15.5t-13.5 11q-12 5 -20 36t-8 53zM699 739q80 0 151 -50q-42 -210 -60 -279q-89 -339 -231 -475q-71 -68 -135 -81
q-81 1 -132.5 33.5t-51.5 84.5q0 58 57 171q25 -2 60 -18t48 -32q-31 -33 -51.5 -72.5t-20.5 -68.5q0 -36 29 -55q61 23 119 86t103 155q51 105 85 261.5t34 254.5q0 41 -4 85z" />
    <glyph glyph-name="ij" unicode="&#x133;" horiz-adv-x="519" 
d="M318 351q-40 -50 -86 -152.5t-46 -142.5q0 -22 15 -22q37 0 105 72.5t129 175.5q56 190 112 190q31 0 71 -27q-52 -84 -75 -163q-48 -171 -82 -277t-64 -183.5t-57.5 -114.5t-55 -53t-65.5 -16q-43 0 -84 16.5t-58 41.5q1 7 6.5 13.5t10.5 7.5q33 -34 80 -34q46 0 80 43
t72 152t97 332q-78 -118 -139 -173t-115 -55q-23 0 -48 29.5t-25 55.5q0 34 34 190q12 53 39.5 100t55.5 60q24 -6 51 -25t42 -41zM287 501q0 6 3 18q-12 12 -12 33q0 50 31 131q23 0 64.5 -24t56.5 -46q-24 -22 -65 -72.5t-48 -66.5q-12 2 -21 10.5t-9 16.5zM567 551
q0 5 3 17q-12 12 -12 34q0 18 10 60t21 70q23 0 64.5 -24t56.5 -46q-24 -22 -65 -72.5t-48 -66.5q-12 2 -21 10.5t-9 17.5z" />
    <glyph glyph-name="Jcircumflex" unicode="&#x134;" horiz-adv-x="512" 
d="M476 739q80 0 151 -50q-42 -210 -60 -279q-89 -339 -231 -475q-71 -68 -135 -81q-81 1 -132.5 33.5t-51.5 84.5q0 58 57 171q25 -2 60 -18t48 -32q-31 -33 -51.5 -72.5t-20.5 -68.5q0 -36 29 -55q61 23 119 86t103 155q51 105 85 261.5t34 254.5q0 41 -4 85zM674 882
q7 -57 18.5 -85.5t33.5 -42.5q-2 -1 -9 -1q-51 0 -99 56q-60 -45 -112 -45q-33 0 -54 22q76 19 137 71q-2 4 -4 12q20 14 61 14q21 0 28 -1z" />
    <glyph glyph-name="jcircumflex" unicode="&#x135;" horiz-adv-x="236" 
d="M119 187q38 148 73 216.5t74 68.5q28 0 67 -27q-59 -105 -75 -163q-86 -303 -132 -427q-44 -118 -88 -167.5t-104 -49.5q-43 0 -84 16.5t-58 41.5q1 7 6.5 13.5t10.5 7.5q33 -34 80 -34q33 0 56 17.5t50 76t54 151t70 259.5zM364 713q7 -91 18.5 -136t33.5 -68
q-2 -1 -9 -1q-26 0 -54.5 29t-49.5 75q-63 -56 -114 -56q-30 0 -54 26q81 29 143 102l-3 16q20 14 61 14q21 0 28 -1z" />
    <glyph glyph-name="Kcommaaccent" unicode="&#x136;" horiz-adv-x="653" 
d="M334 317q129 191 241 306t178 115q27 0 57.5 -36t31.5 -70q-123 -40 -235.5 -127.5t-193.5 -205.5q36 -93 95.5 -184t120.5 -133q-10 -21 -42.5 -39.5t-58.5 -18.5q-48 0 -86.5 85t-107.5 308zM183 -81q-64 15 -109 88q13 28 153 384q43 111 58 166t39 185
q79 -14 136 -107q-8 -10 -18.5 -29t-26.5 -53.5l-27 -59.5l-35.5 -80l-36.5 -82q-99 -222 -133 -412zM241 -350q-16 14 -16 38q63 74 63 149q0 35 -12 79q51 -3 94 -24.5t48 -46.5q-14 -49 -64.5 -108t-112.5 -87z" />
    <glyph glyph-name="kcommaaccent" unicode="&#x137;" horiz-adv-x="516" 
d="M99 94q0 70 65 235.5t149 317t132 185.5q28 -2 61 -38t33 -64q-90 -72 -180 -216.5t-137 -291.5q65 111 137 177t132 68q44 -32 44 -85q0 -64 -47.5 -124.5t-106.5 -72.5q54 -185 174 -253q-9 -21 -39.5 -37.5t-62.5 -16.5q-54 0 -93 105q-31 85 -54 217q31 21 79 67
q88 85 88 147q0 8 -11 8q-40 -2 -104.5 -69.5t-122.5 -167.5q-23 -41 -39 -99.5t-16 -104.5q0 -14 3 -23q-31 3 -38 16q-16 25 -25 32q-21 16 -21 88zM110 -350q-16 14 -16 38q63 74 63 149q0 35 -12 79q51 -3 94 -24.5t48 -46.5q-14 -49 -64.5 -108t-112.5 -87z" />
    <glyph glyph-name="kgreenlandic" unicode="&#x138;" horiz-adv-x="519" 
d="M102 94q0 68 65.5 252t100.5 216q25 -2 54.5 -31t29.5 -51q-33 -35 -70.5 -111t-56.5 -147q65 111 137 177t132 68q44 -32 44 -85q0 -64 -47.5 -124.5t-106.5 -72.5q54 -185 174 -253q-9 -21 -39.5 -37.5t-62.5 -16.5q-54 0 -93 105q-31 85 -54 217q31 21 79 67
q88 85 88 147q0 8 -11 8q-40 -2 -104.5 -69.5t-122.5 -167.5q-23 -41 -39 -99.5t-16 -104.5q0 -14 3 -23q-31 3 -38 16q-16 25 -25 32q-21 16 -21 88z" />
    <glyph glyph-name="Lacute" unicode="&#x139;" horiz-adv-x="500" 
d="M473 57q25 -43 25 -83q0 -15 -5 -32q-31 4 -74 4q-89 0 -256 -27q-47 17 -89 88q4 10 24 54l36.5 81t43.5 106.5t53 145.5q56 163 97 352q75 -16 126 -91q-33 -57 -134 -319l-53 -136t-49.5 -128t-14.5 -58q50 2 126 21q71 17 144 22zM527 883q21 -6 39.5 -26t18.5 -38
q-134 -55 -190 -55q-32 0 -55 19q97 21 187 100z" />
    <glyph glyph-name="lacute" unicode="&#x13a;" horiz-adv-x="236" 
d="M96 64q0 89 80 309q123 335 223 457q24 -4 64 -27t48 -36q-150 -177 -245 -441q-86 -240 -86 -370q0 -24 1 -29q-30 3 -37 19q-7 15 -27 29q-21 14 -21 89zM661 1084q21 -13 39.5 -49.5t18.5 -64.5q-77 -51 -118 -70.5t-72 -19.5q-32 0 -55 19q44 17 94.5 66.5
t92.5 118.5z" />
    <glyph glyph-name="Lcommaaccent" unicode="&#x13b;" horiz-adv-x="500" 
d="M473 57q25 -43 25 -83q0 -15 -5 -32q-31 4 -74 4q-89 0 -256 -27q-47 17 -89 88q4 10 24 54l36.5 81t43.5 106.5t53 145.5q56 163 97 352q75 -16 126 -91q-33 -57 -134 -319l-53 -136t-49.5 -128t-14.5 -58q50 2 126 21q71 17 144 22zM231 -351q-16 14 -16 38
q63 74 63 149q0 36 -12 79q51 -3 94 -24.5t48 -46.5q-14 -49 -64.5 -108t-112.5 -87z" />
    <glyph glyph-name="lcommaaccent" unicode="&#x13c;" horiz-adv-x="236" 
d="M96 64q0 89 80 309q123 335 223 457q24 -4 64 -27t48 -36q-150 -177 -245 -441q-86 -240 -86 -370q0 -24 1 -29q-30 3 -37 19q-7 15 -27 29q-21 14 -21 89zM-11 -350q-16 14 -16 38q63 74 63 149q0 35 -12 79q51 -3 94 -24.5t48 -46.5q-14 -49 -64.5 -108t-112.5 -87z
" />
    <glyph glyph-name="Lcaron" unicode="&#x13d;" horiz-adv-x="500" 
d="M473 57q25 -43 25 -83q0 -15 -5 -32q-31 4 -74 4q-89 0 -256 -27q-47 17 -89 88q4 10 24 54l36.5 81t43.5 106.5t53 145.5q56 163 97 352q75 -16 126 -91q-33 -57 -134 -319l-53 -136t-49.5 -128t-14.5 -58q50 2 126 21q71 17 144 22zM427 751q-26 13 -53 13
q-23 49 -37 70.5t-41 46.5q10 2 17 2q29 0 51.5 -18t49.5 -62q60 63 114 80q17 -4 49 -45q-91 -30 -150 -87z" />
    <glyph glyph-name="lcaron" unicode="&#x13e;" horiz-adv-x="236" 
d="M96 64q0 89 80 309q123 335 223 457q24 -4 64 -27t48 -36q-150 -177 -245 -441q-86 -240 -86 -370q0 -24 1 -29q-30 3 -37 19q-7 15 -27 29q-21 14 -21 89zM523 526q-16 14 -16 38q47 80 47 180q0 40 -6 88q51 -3 93.5 -24.5t48.5 -46.5q-38 -167 -167 -235z" />
    <glyph glyph-name="Ldot" unicode="&#x13f;" horiz-adv-x="501" 
d="M473 57q25 -43 25 -83q0 -15 -5 -32q-31 4 -74 4q-89 0 -256 -27q-47 17 -89 88q4 10 24 54l36.5 81t43.5 106.5t53 145.5q56 163 97 352q75 -16 126 -91q-33 -57 -134 -319l-53 -136t-49.5 -128t-14.5 -58q50 2 126 21q71 17 144 22zM474 276q-14 2 -28.5 12t-18.5 21
q0 15 25 110q21 0 58 -19.5t51 -41.5q-13 -31 -42 -56.5t-45 -25.5z" />
    <glyph glyph-name="ldot" unicode="&#x140;" horiz-adv-x="324" 
d="M96 64q0 89 80 309q123 335 223 457q24 -4 64 -27t48 -36q-150 -177 -245 -441q-86 -240 -86 -370q0 -24 1 -29q-30 3 -37 19q-7 15 -27 29q-21 14 -21 89zM338 191q-14 2 -28.5 12t-18.5 21q0 15 25 110q21 0 58 -19.5t51 -41.5q-13 -31 -42 -56.5t-45 -25.5z" />
    <glyph glyph-name="Lslash" unicode="&#x141;" horiz-adv-x="515" 
d="M489 57q25 -43 25 -83q0 -15 -5 -32q-31 4 -74 4q-89 0 -256 -27q-47 17 -89 88l24.5 55l42 95.5t47.5 116.5q-39 -13 -87 -25q-11 12 -22.5 38t-15.5 46q76 14 159 36q65 188 106 377q75 -16 126 -91q-27 -46 -106 -246q80 29 154 63q0 -22 6 -66q-18 -7 -193 -82
l-33 -85l-31 -79l-24 -62.5t-18 -52t-6 -31.5q50 2 126 21q71 17 144 22z" />
    <glyph glyph-name="lslash" unicode="&#x142;" horiz-adv-x="295" 
d="M140 64q0 96 84 319q-34 -14 -68 -32q-17 10 -34 75q69 28 136 47q98 250 185 357q24 -4 64 -27t48 -36q-100 -118 -170 -261q24 5 72 13q13 -31 17 -51q-68 -17 -122 -36q-23 -53 -42 -106q-86 -240 -86 -370q0 -24 1 -29q-30 3 -37 19q-7 15 -27 29q-21 14 -21 89z" />
    <glyph glyph-name="Nacute" unicode="&#x143;" horiz-adv-x="683" 
d="M190 -76q-57 17 -77 32.5t-20 42.5q0 88 100.5 343t169.5 352l-7 42q28 0 90 -24.5t66 -37.5q-11 -59 -11 -176q0 -257 48 -426q50 250 114.5 451t100.5 205q22 -4 49 -24t38 -42q-59 -24 -121.5 -174.5t-99.5 -311.5t-39 -247q0 -2 1 -3q-4 -1 -13 -1q-47 0 -82.5 11.5
t-45.5 32.5q-70 282 -82 642q-58 -92 -120 -308.5t-62 -333.5q0 -33 3 -45zM714 883q21 -6 39.5 -26t18.5 -38q-134 -55 -190 -55q-32 0 -55 19q97 21 187 100z" />
    <glyph glyph-name="nacute" unicode="&#x144;" horiz-adv-x="540" 
d="M259 485q26 -8 49 -35.5t34 -60.5q-11 -26 -74.5 -133.5t-68.5 -142.5q23 24 73 83t60 70q144 153 210 153q43 0 71 -54q0 -1 -3 -3t-10.5 -7.5t-15.5 -14.5q-33 -43 -68.5 -124t-35.5 -137q0 -23 6 -31t19 -8q8 0 23 5t19 5q9 -5 9 -20q-16 -14 -43 -27.5t-43 -13.5
q-54 0 -74.5 28t-20.5 78q0 53 55 180q-2 0 -13 -6t-30.5 -20t-37.5 -31q-86 -83 -161 -187q-51 -72 -67 -81q-34 20 -46 78q0 39 21 114.5t54 150.5q24 54 48 99.5t39.5 67.5t21.5 25zM585 707q21 -13 39.5 -49.5t18.5 -64.5q-77 -51 -118 -70.5t-72 -19.5q-32 0 -55 19
q44 17 94.5 66.5t92.5 118.5z" />
    <glyph glyph-name="Ncommaaccent" unicode="&#x145;" horiz-adv-x="683" 
d="M190 -76q-57 17 -77 32.5t-20 42.5q0 88 100.5 343t169.5 352l-7 42q28 0 90 -24.5t66 -37.5q-11 -59 -11 -176q0 -257 48 -426q50 250 114.5 451t100.5 205q22 -4 49 -24t38 -42q-59 -24 -121.5 -174.5t-99.5 -311.5t-39 -247q0 -2 1 -3q-4 -1 -13 -1q-47 0 -82.5 11.5
t-45.5 32.5q-70 282 -82 642q-58 -92 -120 -308.5t-62 -333.5q0 -33 3 -45zM247 -350q-16 14 -16 38q63 74 63 149q0 35 -12 79q51 -3 94 -24.5t48 -46.5q-14 -49 -64.5 -108t-112.5 -87z" />
    <glyph glyph-name="ncommaaccent" unicode="&#x146;" horiz-adv-x="540" 
d="M259 485q26 -8 49 -35.5t34 -60.5q-11 -26 -74.5 -133.5t-68.5 -142.5q23 24 73 83t60 70q144 153 210 153q43 0 71 -54q0 -1 -3 -3t-10.5 -7.5t-15.5 -14.5q-33 -43 -68.5 -124t-35.5 -137q0 -23 6 -31t19 -8q8 0 23 5t19 5q9 -5 9 -20q-16 -14 -43 -27.5t-43 -13.5
q-54 0 -74.5 28t-20.5 78q0 53 55 180q-2 0 -13 -6t-30.5 -20t-37.5 -31q-86 -83 -161 -187q-51 -72 -67 -81q-34 20 -46 78q0 39 21 114.5t54 150.5q24 54 48 99.5t39.5 67.5t21.5 25zM133 -350q-16 14 -16 38q63 74 63 149q0 35 -12 79q51 -3 94 -24.5t48 -46.5
q-14 -49 -64.5 -108t-112.5 -87z" />
    <glyph glyph-name="Ncaron" unicode="&#x147;" horiz-adv-x="683" 
d="M190 -76q-57 17 -77 32.5t-20 42.5q0 88 100.5 343t169.5 352l-7 42q28 0 90 -24.5t66 -37.5q-11 -59 -11 -176q0 -257 48 -426q50 250 114.5 451t100.5 205q22 -4 49 -24t38 -42q-59 -24 -121.5 -174.5t-99.5 -311.5t-39 -247q0 -2 1 -3q-4 -1 -13 -1q-47 0 -82.5 11.5
t-45.5 32.5q-70 282 -82 642q-58 -92 -120 -308.5t-62 -333.5q0 -33 3 -45zM614 751q-26 13 -53 13q-23 49 -37 70.5t-41 46.5q10 2 17 2q29 0 51.5 -18t49.5 -62q60 63 114 80q17 -4 49 -45q-91 -30 -150 -87z" />
    <glyph glyph-name="ncaron" unicode="&#x148;" horiz-adv-x="540" 
d="M259 485q26 -8 49 -35.5t34 -60.5q-11 -26 -74.5 -133.5t-68.5 -142.5q23 24 73 83t60 70q144 153 210 153q43 0 71 -54q0 -1 -3 -3t-10.5 -7.5t-15.5 -14.5q-33 -43 -68.5 -124t-35.5 -137q0 -23 6 -31t19 -8q8 0 23 5t19 5q9 -5 9 -20q-16 -14 -43 -27.5t-43 -13.5
q-54 0 -74.5 28t-20.5 78q0 53 55 180q-2 0 -13 -6t-30.5 -20t-37.5 -31q-86 -83 -161 -187q-51 -72 -67 -81q-34 20 -46 78q0 39 21 114.5t54 150.5q24 54 48 99.5t39.5 67.5t21.5 25zM488 483q-46 12 -65 29q-12 108 -69 179q10 2 17 2q57 0 111 -122q60 76 99 96
q20 -3 54 -49q-71 -30 -147 -135z" />
    <glyph glyph-name="napostrophe" unicode="&#x149;" horiz-adv-x="540" 
d="M259 485q26 -8 49 -35.5t34 -60.5q-11 -26 -74.5 -133.5t-68.5 -142.5q23 24 73 83t60 70q144 153 210 153q43 0 71 -54q0 -1 -3 -3t-10.5 -7.5t-15.5 -14.5q-33 -43 -68.5 -124t-35.5 -137q0 -23 6 -31t19 -8q8 0 23 5t19 5q9 -5 9 -20q-16 -14 -43 -27.5t-43 -13.5
q-54 0 -74.5 28t-20.5 78q0 53 55 180q-2 0 -13 -6t-30.5 -20t-37.5 -31q-86 -83 -161 -187q-51 -72 -67 -81q-34 20 -46 78q0 39 21 114.5t54 150.5q24 54 48 99.5t39.5 67.5t21.5 25zM235 527q-16 14 -16 38q47 80 47 180q0 40 -6 88q51 -3 93.5 -24.5t48.5 -46.5
q-38 -167 -167 -235z" />
    <glyph glyph-name="Eng" unicode="&#x14a;" horiz-adv-x="685" 
d="M190 -76q-58 17 -77.5 32.5t-19.5 45.5q0 85 101 340t169 352l-7 42q28 0 90 -24.5t66 -37.5q-11 -59 -11 -190q0 -177 22 -298q9 -50 26 -114q50 250 114.5 451t100.5 205q22 -4 49 -24t38 -42q-129 -53 -267 -728q-24 -120 -82.5 -208t-130.5 -88q-32 0 -74.5 14.5
t-62.5 43.5q2 16 18 19q15 -13 44 -24.5t45 -11.5q50 16 83 84.5t33 147.5q0 27 -6 58q-43 231 -57 333t-25 309q-58 -92 -120 -307.5t-62 -340.5q0 -29 3 -39z" />
    <glyph glyph-name="eng" unicode="&#x14b;" horiz-adv-x="525" 
d="M613 365q-42 -43 -72.5 -109.5t-44.5 -126t-35 -140.5t-41 -134q-19 -50 -34.5 -82t-39 -66.5t-53.5 -51.5t-67 -17q-35 0 -77.5 14.5t-62.5 43.5q2 16 18 19q15 -13 44 -24.5t45 -11.5q52 26 91 101t58 153l43.5 183.5t43.5 158.5q-29 -6 -107.5 -86t-133.5 -158
q-51 -72 -67 -81q-34 20 -46 78q0 39 21 114.5t54 150.5q24 54 48 99.5t39.5 67.5t21.5 25q26 -8 49 -35.5t34 -60.5q-11 -26 -74.5 -133.5t-68.5 -142.5q23 24 73 83t60 70q144 153 210 153q43 0 71 -54z" />
    <glyph glyph-name="Omacron" unicode="&#x14c;" 
d="M562 728q38 -16 76.5 -46t40.5 -46q-32 7 -65 7q-88 0 -172.5 -80.5t-135.5 -202t-51 -239.5q0 -154 102 -154q49 0 109 36t109 94q69 82 110 207.5t41 249.5q0 43 -8 99q18 -9 28 -15.5t25 -23t22.5 -45.5t7.5 -69q0 -136 -60.5 -262.5t-157.5 -210.5
q-60 -52 -128.5 -81.5t-130.5 -29.5q-92 0 -140.5 59t-48.5 172q0 124 49.5 261t136.5 234.5t181 97.5q32 0 60 -12zM537 866q45 -3 91 -3q106 0 195 20q18 -30 18 -77q-49 -9 -154 -9q-93 0 -152 13q2 22 2 56z" />
    <glyph glyph-name="omacron" unicode="&#x14d;" horiz-adv-x="441" 
d="M215 -35q-57 6 -91 50t-34 112q0 80 46 166.5t117 138.5q55 41 103 41q32 -17 63 -71q3 0 9 0.5t9 0.5q53 0 53 -94q0 -125 -77.5 -221.5t-197.5 -122.5zM266 280q-34 -46 -57.5 -104.5t-23.5 -98.5q0 -24 8 -46t18 -25q90 20 148 107t58 203q0 47 -13 67
q-76 -22 -138 -103zM331 616q45 -3 91 -3q106 0 195 20q18 -34 18 -87q-74 -9 -154 -9q-93 0 -152 13q2 26 2 66z" />
    <glyph glyph-name="Obreve" unicode="&#x14e;" 
d="M562 728q38 -16 76.5 -46t40.5 -46q-32 7 -65 7q-88 0 -172.5 -80.5t-135.5 -202t-51 -239.5q0 -154 102 -154q49 0 109 36t109 94q69 82 110 207.5t41 249.5q0 43 -8 99q18 -9 28 -15.5t25 -23t22.5 -45.5t7.5 -69q0 -136 -60.5 -262.5t-157.5 -210.5
q-60 -52 -128.5 -81.5t-130.5 -29.5q-92 0 -140.5 59t-48.5 172q0 124 49.5 261t136.5 234.5t181 97.5q32 0 60 -12zM711 764q-48 4 -88 25t-53 63q23 26 69 31q23 -59 98 -64q68 11 104 61q10 -3 16 -19q-10 -34 -49.5 -60.5t-96.5 -36.5z" />
    <glyph glyph-name="obreve" unicode="&#x14f;" horiz-adv-x="441" 
d="M215 -35q-57 6 -91 50t-34 112q0 80 46 166.5t117 138.5q55 41 103 41q32 -17 63 -71q3 0 9 0.5t9 0.5q53 0 53 -94q0 -125 -77.5 -221.5t-197.5 -122.5zM266 280q-34 -46 -57.5 -104.5t-23.5 -98.5q0 -24 8 -46t18 -25q90 20 148 107t58 203q0 47 -13 67
q-76 -22 -138 -103zM505 512q-47 4 -87.5 40t-53.5 105q2 5 7 9.5t9.5 7t13.5 5.5t12.5 3.5t14 3t12.5 2.5q23 -111 98 -120q66 16 104 101q10 -3 16 -19q-10 -49 -49.5 -86.5t-96.5 -51.5z" />
    <glyph glyph-name="Ohungarumlaut" unicode="&#x150;" 
d="M562 728q38 -16 76.5 -46t40.5 -46q-32 7 -65 7q-88 0 -172.5 -80.5t-135.5 -202t-51 -239.5q0 -154 102 -154q49 0 109 36t109 94q69 82 110 207.5t41 249.5q0 43 -8 99q18 -9 28 -15.5t25 -23t22.5 -45.5t7.5 -69q0 -136 -60.5 -262.5t-157.5 -210.5
q-60 -52 -128.5 -81.5t-130.5 -29.5q-92 0 -140.5 59t-48.5 172q0 124 49.5 261t136.5 234.5t181 97.5q32 0 60 -12zM648 883q62 -8 83 -32q-28 -38 -60 -62.5t-58 -24.5q-17 0 -36 11q42 36 71 108zM788 883q62 -8 83 -32q-28 -38 -60 -62.5t-58 -24.5q-17 0 -36 11
q42 36 71 108z" />
    <glyph glyph-name="ohungarumlaut" unicode="&#x151;" horiz-adv-x="441" 
d="M215 -35q-57 6 -91 50t-34 112q0 80 46 166.5t117 138.5q55 41 103 41q32 -17 63 -71q3 0 9 0.5t9 0.5q53 0 53 -94q0 -125 -77.5 -221.5t-197.5 -122.5zM266 280q-34 -46 -57.5 -104.5t-23.5 -98.5q0 -24 8 -46t18 -25q90 20 148 107t58 203q0 47 -13 67
q-76 -22 -138 -103zM442 705q25 -6 48.5 -22.5t34.5 -39.5q-32 -57 -69.5 -93.5t-68.5 -36.5q-17 0 -36 11q51 53 91 181zM582 705q25 -6 48.5 -22.5t34.5 -39.5q-32 -57 -69.5 -93.5t-68.5 -36.5q-17 0 -36 11q51 53 91 181z" />
    <glyph glyph-name="OE" unicode="&#x152;" horiz-adv-x="978" 
d="M872 426q33 0 51.5 -18t18.5 -50q0 -18 -5 -31q-28 5 -67 5q-30 0 -159 -18q-45 -103 -74 -191.5t-31 -119.5q179 36 337 47q26 -38 26 -80q0 -18 -2 -27q-74 2 -140 2q-114 0 -261 -26q-32 13 -63 51q-91 -54 -179 -54q-92 0 -140.5 59t-48.5 172q0 124 49.5 261
t136.5 234.5t181 97.5q32 0 60 -12q33 -14 65 -38q4 19 8 30q33 -5 87 -5q99 0 217.5 11t125.5 11q49 0 68 -102q-51 5 -85 5q-80 0 -194 -18q-18 -27 -98 -207q82 11 116 11zM357 -33q52 0 122 44q40 84 122 300q-53 11 -69 52q11 11 100 30q51 136 68 214q-44 5 -62 35
q-5 0 -13 0.5t-11 0.5q-88 0 -172.5 -80.5t-135.5 -202t-51 -239.5q0 -154 102 -154z" />
    <glyph glyph-name="oe" unicode="&#x153;" horiz-adv-x="725" 
d="M796 412q-6 -114 -77.5 -182t-223.5 -109q-4 -24 -4 -40q0 -54 38 -70q116 29 194 98q10 -10 15 -19q-51 -54 -108.5 -88.5t-105.5 -39.5q-47 10 -81 39.5t-45 68.5q-75 -81 -183 -105q-57 6 -91 50t-34 112q0 80 46 166.5t117 138.5q55 41 103 41q32 -17 63 -71
q3 0 9 0.5t9 0.5q44 0 51 -65q47 58 103.5 93.5t108.5 35.5q29 0 48.5 -11.5t47.5 -43.5zM266 280q-34 -46 -57.5 -104.5t-23.5 -98.5q0 -24 8 -46t18 -25q90 20 148 107t58 203q0 47 -13 67q-76 -22 -138 -103zM722 376q-56 -2 -119 -65t-96 -152q85 31 145 91t70 126z" />
    <glyph glyph-name="Racute" unicode="&#x154;" horiz-adv-x="691" 
d="M781 551q0 -94 -80.5 -165.5t-200.5 -88.5q32 -94 84.5 -187t103.5 -139q-9 -20 -37 -39t-51 -19q-43 0 -82 86t-93 294q-31 0 -39 2q-7 4 -15 14q-101 -222 -136 -390q-64 14 -106 88q26 50 167 384q58 137 80 228q-102 -35 -151 -77q-17 12 -36 45t-21 56
q58 40 164 66.5t197 26.5q119 0 185.5 -49.5t66.5 -135.5zM537 635q-14 -18 -57 -101t-82 -168q150 0 247 53.5t97 136.5q0 103 -147 103q-28 0 -70 -5zM740 883q21 -6 39.5 -26t18.5 -38q-134 -55 -190 -55q-32 0 -55 19q97 21 187 100z" />
    <glyph glyph-name="racute" unicode="&#x155;" horiz-adv-x="403" 
d="M73 20q10 59 47 178.5t73 203.5q23 56 45 78q28 -4 58 -19t42 -29q-49 -58 -89 -178q116 105 173 190q6 5 21 5q35 0 45 -17q-18 -48 -18 -95q0 -44 13 -66q-2 -16 -41 -55q-58 29 -79 92q-94 -65 -136.5 -134.5t-71.5 -207.5q-18 2 -46.5 20.5t-35.5 33.5zM517 729
q21 -13 39.5 -49.5t18.5 -64.5q-77 -51 -118 -70.5t-72 -19.5q-32 0 -55 19q44 17 94.5 66.5t92.5 118.5z" />
    <glyph glyph-name="Rcommaaccent" unicode="&#x156;" horiz-adv-x="691" 
d="M781 551q0 -94 -80.5 -165.5t-200.5 -88.5q32 -94 84.5 -187t103.5 -139q-9 -20 -37 -39t-51 -19q-43 0 -82 86t-93 294q-31 0 -39 2q-7 4 -15 14q-101 -222 -136 -390q-64 14 -106 88q26 50 167 384q58 137 80 228q-102 -35 -151 -77q-17 12 -36 45t-21 56
q58 40 164 66.5t197 26.5q119 0 185.5 -49.5t66.5 -135.5zM537 635q-14 -18 -57 -101t-82 -168q150 0 247 53.5t97 136.5q0 103 -147 103q-28 0 -70 -5zM309 -350q-16 14 -16 38q63 74 63 149q0 35 -12 79q51 -3 94 -24.5t48 -46.5q-14 -49 -64.5 -108t-112.5 -87z" />
    <glyph glyph-name="rcommaaccent" unicode="&#x157;" horiz-adv-x="403" 
d="M73 20q10 59 47 178.5t73 203.5q23 56 45 78q28 -4 58 -19t42 -29q-49 -58 -89 -178q116 105 173 190q6 5 21 5q35 0 45 -17q-18 -48 -18 -95q0 -44 13 -66q-2 -16 -41 -55q-58 29 -79 92q-94 -65 -136.5 -134.5t-71.5 -207.5q-18 2 -46.5 20.5t-35.5 33.5zM-23 -350
q-16 14 -16 38q63 74 63 149q0 35 -12 79q51 -3 94 -24.5t48 -46.5q-14 -49 -64.5 -108t-112.5 -87z" />
    <glyph glyph-name="Rcaron" unicode="&#x158;" horiz-adv-x="691" 
d="M781 551q0 -94 -80.5 -165.5t-200.5 -88.5q32 -94 84.5 -187t103.5 -139q-9 -20 -37 -39t-51 -19q-43 0 -82 86t-93 294q-31 0 -39 2q-7 4 -15 14q-101 -222 -136 -390q-64 14 -106 88q26 50 167 384q58 137 80 228q-102 -35 -151 -77q-17 12 -36 45t-21 56
q58 40 164 66.5t197 26.5q119 0 185.5 -49.5t66.5 -135.5zM537 635q-14 -18 -57 -101t-82 -168q150 0 247 53.5t97 136.5q0 103 -147 103q-28 0 -70 -5zM640 751q-26 13 -53 13q-23 49 -37 70.5t-41 46.5q10 2 17 2q29 0 51.5 -18t49.5 -62q60 63 114 80q17 -4 49 -45
q-91 -30 -150 -87z" />
    <glyph glyph-name="rcaron" unicode="&#x159;" horiz-adv-x="403" 
d="M73 20q10 59 47 178.5t73 203.5q23 56 45 78q28 -4 58 -19t42 -29q-49 -58 -89 -178q116 105 173 190q6 5 21 5q35 0 45 -17q-18 -48 -18 -95q0 -44 13 -66q-2 -16 -41 -55q-58 29 -79 92q-94 -65 -136.5 -134.5t-71.5 -207.5q-18 2 -46.5 20.5t-35.5 33.5zM420 505
q-46 12 -65 29q-12 108 -69 179q10 2 17 2q57 0 111 -122q60 76 99 96q20 -3 54 -49q-71 -30 -147 -135z" />
    <glyph glyph-name="Sacute" unicode="&#x15a;" horiz-adv-x="702" 
d="M753 674q6 -34 6 -41q0 -33 -15 -61.5t-39 -40.5q-37 51 -108 77t-148 26q-72 0 -120.5 -21t-49.5 -55q4 -27 47 -60.5t86 -55.5t114 -55q112 -52 154.5 -94.5t42.5 -125.5q0 -105 -68 -174t-180 -69q-75 0 -161.5 28.5t-149.5 79.5t-63 105q0 56 53 116q3 -33 34.5 -74
t86.5 -73q104 -61 223 -61q52 0 90.5 13.5t56.5 35t26.5 38.5t9.5 32q0 13 -7.5 25.5t-24.5 25.5t-33 23t-45.5 24.5t-49 23l-55.5 24.5q-133 58 -186.5 104.5t-53.5 115.5q0 58 35 107t97 75t140 26q111 0 255 -64zM662 883q21 -6 39.5 -26t18.5 -38q-134 -55 -190 -55
q-32 0 -55 19q97 21 187 100z" />
    <glyph glyph-name="sacute" unicode="&#x15b;" horiz-adv-x="346" 
d="M442 398q-2 -38 -20 -76.5t-34 -38.5q-11 1 -13 15q0 3 8 24t8 30q0 14 -7 23.5t-17 9.5q-82 0 -82 -197q0 -10 1 -12q56 2 70 2q1 -2 1 -8q0 -9 -4 -13q-47 -11 -57 -15.5t-10 -15.5q0 -4 0.5 -15.5t0.5 -20.5q0 -83 -46 -134.5t-126 -59.5q-28 2 -57.5 26t-37.5 52
q0 77 59.5 133.5t146.5 62.5q0 36 -15.5 96t-15.5 86q0 53 40 102.5t92 60.5q23 -6 66 -50t49 -67zM112 -58q48 19 83 71.5t35 104.5q-39 -5 -88.5 -55.5t-49.5 -84.5q0 -22 20 -36zM540 745q21 -13 39.5 -49.5t18.5 -64.5q-77 -51 -118 -70.5t-72 -19.5q-32 0 -55 19
q44 17 94.5 66.5t92.5 118.5z" />
    <glyph glyph-name="Scircumflex" unicode="&#x15c;" horiz-adv-x="702" 
d="M753 674q6 -34 6 -41q0 -33 -15 -61.5t-39 -40.5q-37 51 -108 77t-148 26q-72 0 -120.5 -21t-49.5 -55q4 -27 47 -60.5t86 -55.5t114 -55q112 -52 154.5 -94.5t42.5 -125.5q0 -105 -68 -174t-180 -69q-75 0 -161.5 28.5t-149.5 79.5t-63 105q0 56 53 116q3 -33 34.5 -74
t86.5 -73q104 -61 223 -61q52 0 90.5 13.5t56.5 35t26.5 38.5t9.5 32q0 13 -7.5 25.5t-24.5 25.5t-33 23t-45.5 24.5t-49 23l-55.5 24.5q-133 58 -186.5 104.5t-53.5 115.5q0 58 35 107t97 75t140 26q111 0 255 -64zM626 882q7 -57 18.5 -85.5t33.5 -42.5q-2 -1 -9 -1
q-51 0 -99 56q-60 -45 -112 -45q-33 0 -54 22q76 19 137 71q-2 4 -4 12q20 14 61 14q21 0 28 -1z" />
    <glyph glyph-name="scircumflex" unicode="&#x15d;" horiz-adv-x="346" 
d="M442 398q-2 -38 -20 -76.5t-34 -38.5q-11 1 -13 15q0 3 8 24t8 30q0 14 -7 23.5t-17 9.5q-82 0 -82 -197q0 -10 1 -12q56 2 70 2q1 -2 1 -8q0 -9 -4 -13q-47 -11 -57 -15.5t-10 -15.5q0 -4 0.5 -15.5t0.5 -20.5q0 -83 -46 -134.5t-126 -59.5q-28 2 -57.5 26t-37.5 52
q0 77 59.5 133.5t146.5 62.5q0 36 -15.5 96t-15.5 86q0 53 40 102.5t92 60.5q23 -6 66 -50t49 -67zM112 -58q48 19 83 71.5t35 104.5q-39 -5 -88.5 -55.5t-49.5 -84.5q0 -22 20 -36zM504 729q7 -91 18.5 -136t33.5 -68q-2 -1 -9 -1q-26 0 -54.5 29t-49.5 75
q-63 -56 -114 -56q-30 0 -54 26q81 29 143 102l-3 16q20 14 61 14q21 0 28 -1z" />
    <glyph glyph-name="uni015E" unicode="&#x15e;" horiz-adv-x="700" 
d="M752 674q6 -34 6 -41q0 -33 -15 -61.5t-39 -40.5q-37 51 -108 77t-148 26q-72 0 -120.5 -21t-49.5 -55q4 -27 47 -60.5t86 -55.5t114 -55q112 -52 154.5 -94.5t42.5 -125.5q0 -105 -68 -174t-180 -69q-48 0 -113 15q-39 -55 -54 -90q19 10 50 18t50 8q9 0 33.5 -20.5
t24.5 -28.5q0 -20 -84 -93t-108 -73q-4 0 -12.5 15t-8.5 21q47 40 71.5 67t50.5 69q-44 -8 -116 -35q-6 3 -8 12q6 19 31.5 60t55.5 77q-98 28 -167.5 80.5t-69.5 110.5q0 56 53 116q3 -33 34.5 -74t86.5 -73q104 -61 223 -61q52 0 90.5 13.5t56.5 35t26.5 38.5t9.5 32
q0 13 -7.5 25.5t-24.5 25.5t-33 23t-45.5 24.5t-49 23l-55.5 24.5q-133 58 -186.5 104.5t-53.5 115.5q0 58 35 107t97 75t140 26q111 0 255 -64z" />
    <glyph glyph-name="uni015F" unicode="&#x15f;" horiz-adv-x="349" 
d="M443 398q-2 -38 -20 -76.5t-34 -38.5q-11 1 -13 15q0 3 8 24t8 30q0 14 -7 23.5t-17 9.5q-82 0 -82 -197q0 -10 1 -12q56 2 70 2q1 -2 1 -8q0 -9 -4 -13q-47 -11 -57 -15.5t-10 -15.5q0 -4 0.5 -15.5t0.5 -20.5q0 -71 -35 -120t-98 -66q-31 -46 -45 -78q19 10 50 18t50 8
q9 0 33.5 -20.5t24.5 -28.5q0 -20 -84 -93t-108 -73q-4 0 -12.5 15t-8.5 21q47 40 71.5 67t50.5 69q-44 -8 -116 -35l-8 12q3 13 63 110q-28 2 -57.5 26t-37.5 52q0 77 59.5 133.5t146.5 62.5q0 36 -15.5 96t-15.5 86q0 53 40 102.5t92 60.5q23 -6 66 -50t49 -67zM113 -58
q48 19 83 71.5t35 104.5q-39 -5 -88.5 -55.5t-49.5 -84.5q0 -22 20 -36z" />
    <glyph glyph-name="Scaron" unicode="&#x160;" horiz-adv-x="702" 
d="M753 674q6 -34 6 -41q0 -33 -15 -61.5t-39 -40.5q-37 51 -108 77t-148 26q-72 0 -120.5 -21t-49.5 -55q4 -27 47 -60.5t86 -55.5t114 -55q112 -52 154.5 -94.5t42.5 -125.5q0 -105 -68 -174t-180 -69q-75 0 -161.5 28.5t-149.5 79.5t-63 105q0 56 53 116q3 -33 34.5 -74
t86.5 -73q104 -61 223 -61q52 0 90.5 13.5t56.5 35t26.5 38.5t9.5 32q0 13 -7.5 25.5t-24.5 25.5t-33 23t-45.5 24.5t-49 23l-55.5 24.5q-133 58 -186.5 104.5t-53.5 115.5q0 58 35 107t97 75t140 26q111 0 255 -64zM562 751q-26 13 -53 13q-23 49 -37 70.5t-41 46.5
q10 2 17 2q29 0 51.5 -18t49.5 -62q60 63 114 80q17 -4 49 -45q-91 -30 -150 -87z" />
    <glyph glyph-name="scaron" unicode="&#x161;" horiz-adv-x="346" 
d="M442 398q-2 -38 -20 -76.5t-34 -38.5q-11 1 -13 15q0 3 8 24t8 30q0 14 -7 23.5t-17 9.5q-82 0 -82 -197q0 -10 1 -12q56 2 70 2q1 -2 1 -8q0 -9 -4 -13q-47 -11 -57 -15.5t-10 -15.5q0 -4 0.5 -15.5t0.5 -20.5q0 -83 -46 -134.5t-126 -59.5q-28 2 -57.5 26t-37.5 52
q0 77 59.5 133.5t146.5 62.5q0 36 -15.5 96t-15.5 86q0 53 40 102.5t92 60.5q23 -6 66 -50t49 -67zM112 -58q48 19 83 71.5t35 104.5q-39 -5 -88.5 -55.5t-49.5 -84.5q0 -22 20 -36zM443 521q-46 12 -65 29q-12 108 -69 179q10 2 17 2q57 0 111 -122q60 76 99 96
q20 -3 54 -49q-71 -30 -147 -135z" />
    <glyph glyph-name="uni0162" unicode="&#x162;" horiz-adv-x="589" 
d="M300 606q-39 0 -61 22t-22 55q0 20 9 38q23 -11 98 -11q81 0 238.5 14t162.5 14q34 0 51.5 -25.5t26.5 -75.5q-57 5 -95 5q-60 0 -130 -8q-55 -110 -122 -313q-79 -240 -105 -405q-34 6 -60 25q-41 -55 -56 -92q19 10 50 18t50 8q9 0 33.5 -20.5t24.5 -28.5
q0 -20 -84 -93t-108 -73q-4 0 -12.5 15t-8.5 21q47 40 71.5 67t50.5 69q-44 -8 -116 -35q-6 3 -8 12q7 21 35 65.5t60 81.5q-20 20 -34 44q29 108 131 390q57 156 76 228q-96 -12 -146 -12z" />
    <glyph glyph-name="uni0163" unicode="&#x163;" horiz-adv-x="352" 
d="M213 383h-57q-4 6 -8.5 25.5t-4.5 33.5q14 -1 46.5 -3t47.5 -3q30 60 67 114t53 63q21 0 57.5 -12.5t46.5 -23.5q-48 -60 -98 -145q45 0 82 4q11 -11 11 -28q-49 -18 -119 -20q-49 -96 -77.5 -187t-28.5 -153q0 -44 33 -49q60 7 105 43q6 -9 7 -15q-11 -17 -51.5 -44
t-57.5 -29q-25 2 -46 10q-43 -58 -58 -96q19 10 50 18t50 8q9 0 33.5 -20.5t24.5 -28.5q0 -20 -84 -93t-108 -73q-4 0 -12.5 15t-8.5 21q47 40 71.5 67t50.5 69q-44 -8 -116 -35q-6 3 -8 12q6 20 33.5 63.5t59.5 81.5q-32 16 -53 40t-21 47q0 49 25 139.5t63 183.5z" />
    <glyph glyph-name="Tcaron" unicode="&#x164;" horiz-adv-x="588" 
d="M299 606q-39 0 -61 22t-22 55q0 20 9 38q23 -11 98 -11q81 0 238.5 14t162.5 14q34 0 51.5 -25.5t26.5 -75.5q-57 5 -95 5q-60 0 -130 -8q-55 -110 -122 -313q-79 -240 -105 -405q-67 10 -112 84q29 108 131 390q57 156 76 228q-96 -12 -146 -12zM550 751q-26 13 -53 13
q-23 49 -37 70.5t-41 46.5q10 2 17 2q29 0 51.5 -18t49.5 -62q60 63 114 80q17 -4 49 -45q-91 -30 -150 -87z" />
    <glyph glyph-name="tcaron" unicode="&#x165;" horiz-adv-x="352" 
d="M213 383h-57q-4 6 -8.5 25.5t-4.5 33.5q14 -1 46.5 -3t47.5 -3q30 60 67 114t53 63q21 0 57.5 -12.5t46.5 -23.5q-48 -60 -98 -145q45 0 82 4q11 -11 11 -28q-49 -18 -119 -20q-49 -96 -77.5 -187t-28.5 -153q0 -44 33 -49q60 7 105 43q6 -9 7 -15q-11 -17 -51.5 -44
t-57.5 -29q-49 1 -95.5 36t-46.5 70q0 49 25 139.5t63 183.5zM508 527q-16 14 -16 38q47 80 47 180q0 40 -6 88q51 -3 93.5 -24.5t48.5 -46.5q-38 -167 -167 -235z" />
    <glyph glyph-name="Tbar" unicode="&#x166;" horiz-adv-x="591" 
d="M303 606q-39 0 -61 22t-22 55q0 20 9 38q23 -11 98 -11q81 0 238.5 14t162.5 14q34 0 51.5 -25.5t26.5 -75.5q-57 5 -95 5q-60 0 -130 -8q-40 -80 -99 -247q53 6 103 15q8 -13 15 -39.5t7 -47.5q-73 -7 -153 -9q-75 -231 -100 -390q-67 10 -112 84q29 108 101 307
q-57 3 -104 12q3 19 3 66q54 -3 128 -3q60 163 79 236q-96 -12 -146 -12z" />
    <glyph glyph-name="tbar" unicode="&#x167;" horiz-adv-x="358" 
d="M218 383h-57q-4 6 -8.5 25.5t-4.5 33.5q14 -1 46.5 -3t47.5 -3q30 60 67 114t53 63q21 0 57.5 -12.5t46.5 -23.5q-48 -60 -98 -145q45 0 82 4q11 -11 11 -28q-49 -18 -119 -20q-27 -53 -51 -110q25 0 109 2q11 -11 11 -29q-54 -11 -136 -17q-39 -112 -39 -186
q0 -44 33 -49q60 7 105 43q6 -9 7 -15q-11 -17 -51.5 -44t-57.5 -29q-49 1 -95.5 36t-46.5 70q0 60 33 168q-7 0 -23 -0.5t-24 -0.5q-13 17 -13 59q49 -4 76 -5q18 51 39 102z" />
    <glyph glyph-name="Utilde" unicode="&#x168;" horiz-adv-x="697" 
d="M485 673q-87 -116 -140.5 -273t-53.5 -285q0 -78 23.5 -113t78.5 -35q62 0 111.5 43.5t94.5 127.5q53 98 79 233t26 268q0 58 -4 86q11 0 46 -8t54 -18q-10 -158 -55 -322.5t-115 -277.5q-112 -183 -275 -183q-93 0 -143.5 54.5t-50.5 161.5q0 124 51 302t120 304
q35 -2 85 -23t68 -42zM418 853q47 -16 92 -16q73 0 171 46q22 -22 34 -80q-67 -32 -154 -32q-60 0 -98 23t-45 59z" />
    <glyph glyph-name="utilde" unicode="&#x169;" horiz-adv-x="494" 
d="M369 22q-32 27 -32 81q0 21 5 36q-5 0 -25.5 -25t-46.5 -60t-33 -43q-28 -29 -43 -31q-35 2 -68 23.5t-41 54.5q0 48 8 85q21 89 71 189t108 142q22 0 49 -8t40 -23q-9 -9 -25 -33t-45.5 -79t-56.5 -119q-12 -27 -27 -79.5t-15 -76.5q0 -11 7 -18q14 6 36.5 31.5
t65.5 84.5q1 2 17.5 23.5t23.5 32l20 30t22 37t15 34.5q33 91 78 134q26 0 56 -10.5t39 -21.5q-14 -33 -51.5 -107.5t-56 -127t-18.5 -99.5q0 -34 11 -62.5t11 -29.5l-4 -4q-14 0 -43 12t-52 27zM297 624q47 -16 92 -16q71 0 171 47q22 -25 34 -90q-84 -30 -154 -30
q-59 0 -97.5 26t-45.5 63z" />
    <glyph glyph-name="Umacron" unicode="&#x16a;" horiz-adv-x="697" 
d="M485 673q-87 -116 -140.5 -273t-53.5 -285q0 -78 23.5 -113t78.5 -35q62 0 111.5 43.5t94.5 127.5q53 98 79 233t26 268q0 58 -4 86q11 0 46 -8t54 -18q-10 -158 -55 -322.5t-115 -277.5q-112 -183 -275 -183q-93 0 -143.5 54.5t-50.5 161.5q0 124 51 302t120 304
q35 -2 85 -23t68 -42zM440 866q45 -3 91 -3q106 0 195 20q18 -30 18 -77q-49 -9 -154 -9q-93 0 -152 13q2 22 2 56z" />
    <glyph glyph-name="umacron" unicode="&#x16b;" horiz-adv-x="494" 
d="M369 22q-32 27 -32 81q0 21 5 36q-5 0 -25.5 -25t-46.5 -60t-33 -43q-28 -29 -43 -31q-35 2 -68 23.5t-41 54.5q0 48 8 85q21 89 71 189t108 142q22 0 49 -8t40 -23q-9 -9 -25 -33t-45.5 -79t-56.5 -119q-12 -27 -27 -79.5t-15 -76.5q0 -11 7 -18q14 6 36.5 31.5
t65.5 84.5q1 2 17.5 23.5t23.5 32l20 30t22 37t15 34.5q33 91 78 134q26 0 56 -10.5t39 -21.5q-14 -33 -51.5 -107.5t-56 -127t-18.5 -99.5q0 -34 11 -62.5t11 -29.5l-4 -4q-14 0 -43 12t-52 27zM319 628q45 -3 91 -3q106 0 195 20q18 -34 18 -87q-74 -9 -154 -9
q-93 0 -152 13q2 26 2 66z" />
    <glyph glyph-name="Ubreve" unicode="&#x16c;" horiz-adv-x="697" 
d="M485 673q-87 -116 -140.5 -273t-53.5 -285q0 -78 23.5 -113t78.5 -35q62 0 111.5 43.5t94.5 127.5q53 98 79 233t26 268q0 58 -4 86q11 0 46 -8t54 -18q-10 -158 -55 -322.5t-115 -277.5q-112 -183 -275 -183q-93 0 -143.5 54.5t-50.5 161.5q0 124 51 302t120 304
q35 -2 85 -23t68 -42zM614 764q-48 4 -88 25t-53 63q23 26 69 31q23 -59 98 -64q68 11 104 61q10 -3 16 -19q-10 -34 -49.5 -60.5t-96.5 -36.5z" />
    <glyph glyph-name="ubreve" unicode="&#x16d;" horiz-adv-x="494" 
d="M369 22q-32 27 -32 81q0 21 5 36q-5 0 -25.5 -25t-46.5 -60t-33 -43q-28 -29 -43 -31q-35 2 -68 23.5t-41 54.5q0 48 8 85q21 89 71 189t108 142q22 0 49 -8t40 -23q-9 -9 -25 -33t-45.5 -79t-56.5 -119q-12 -27 -27 -79.5t-15 -76.5q0 -11 7 -18q14 6 36.5 31.5
t65.5 84.5q1 2 17.5 23.5t23.5 32l20 30t22 37t15 34.5q33 91 78 134q26 0 56 -10.5t39 -21.5q-14 -33 -51.5 -107.5t-56 -127t-18.5 -99.5q0 -34 11 -62.5t11 -29.5l-4 -4q-14 0 -43 12t-52 27zM493 524q-47 4 -87.5 40t-53.5 105q2 5 7 9.5t9.5 7t13.5 5.5t12.5 3.5t14 3
t12.5 2.5q23 -111 98 -120q66 16 104 101q10 -3 16 -19q-10 -49 -49.5 -86.5t-96.5 -51.5z" />
    <glyph glyph-name="Uring" unicode="&#x16e;" horiz-adv-x="697" 
d="M485 673q-87 -116 -140.5 -273t-53.5 -285q0 -78 23.5 -113t78.5 -35q62 0 111.5 43.5t94.5 127.5q53 98 79 233t26 268q0 58 -4 86q11 0 46 -8t54 -18q-10 -158 -55 -322.5t-115 -277.5q-112 -183 -275 -183q-93 0 -143.5 54.5t-50.5 161.5q0 124 51 302t120 304
q35 -2 85 -23t68 -42zM673 766q-34 -55 -95 -55q-40 0 -72 24.5t-32 57.5q0 38 35 64t75 26q41 0 70.5 -23.5t29.5 -55.5q0 -19 -11 -38zM642 813q0 17 -10.5 28.5t-28.5 11.5q-23 0 -47 -22.5t-24 -50.5q0 -46 34 -46q33 0 54.5 25.5t21.5 53.5z" />
    <glyph glyph-name="uring" unicode="&#x16f;" horiz-adv-x="494" 
d="M369 22q-32 27 -32 81q0 21 5 36q-5 0 -25.5 -25t-46.5 -60t-33 -43q-28 -29 -43 -31q-35 2 -68 23.5t-41 54.5q0 48 8 85q21 89 71 189t108 142q22 0 49 -8t40 -23q-9 -9 -25 -33t-45.5 -79t-56.5 -119q-12 -27 -27 -79.5t-15 -76.5q0 -11 7 -18q14 6 36.5 31.5
t65.5 84.5q1 2 17.5 23.5t23.5 32l20 30t22 37t15 34.5q33 91 78 134q26 0 56 -10.5t39 -21.5q-14 -33 -51.5 -107.5t-56 -127t-18.5 -99.5q0 -34 11 -62.5t11 -29.5l-4 -4q-14 0 -43 12t-52 27zM552 583q-35 -59 -95 -59q-40 0 -72 26.5t-32 62.5q0 41 35 69t75 28
q41 0 70.5 -25t29.5 -60q0 -20 -11 -42zM521 634q0 18 -10.5 31t-28.5 13q-23 0 -47 -24t-24 -55q0 -50 34 -50q33 0 54.5 27.5t21.5 57.5z" />
    <glyph glyph-name="Uhungarumlaut" unicode="&#x170;" horiz-adv-x="697" 
d="M485 673q-87 -116 -140.5 -273t-53.5 -285q0 -78 23.5 -113t78.5 -35q62 0 111.5 43.5t94.5 127.5q53 98 79 233t26 268q0 58 -4 86q11 0 46 -8t54 -18q-10 -158 -55 -322.5t-115 -277.5q-112 -183 -275 -183q-93 0 -143.5 54.5t-50.5 161.5q0 124 51 302t120 304
q35 -2 85 -23t68 -42zM551 883q62 -8 83 -32q-28 -38 -60 -62.5t-58 -24.5q-17 0 -36 11q42 36 71 108zM691 883q62 -8 83 -32q-28 -38 -60 -62.5t-58 -24.5q-17 0 -36 11q42 36 71 108z" />
    <glyph glyph-name="uhungarumlaut" unicode="&#x171;" horiz-adv-x="494" 
d="M369 22q-32 27 -32 81q0 21 5 36q-5 0 -25.5 -25t-46.5 -60t-33 -43q-28 -29 -43 -31q-35 2 -68 23.5t-41 54.5q0 48 8 85q21 89 71 189t108 142q22 0 49 -8t40 -23q-9 -9 -25 -33t-45.5 -79t-56.5 -119q-12 -27 -27 -79.5t-15 -76.5q0 -11 7 -18q14 6 36.5 31.5
t65.5 84.5q1 2 17.5 23.5t23.5 32l20 30t22 37t15 34.5q33 91 78 134q26 0 56 -10.5t39 -21.5q-14 -33 -51.5 -107.5t-56 -127t-18.5 -99.5q0 -34 11 -62.5t11 -29.5l-4 -4q-14 0 -43 12t-52 27zM430 717q25 -6 48.5 -22.5t34.5 -39.5q-32 -57 -69.5 -93.5t-68.5 -36.5
q-17 0 -36 11q51 53 91 181zM570 717q25 -6 48.5 -22.5t34.5 -39.5q-32 -57 -69.5 -93.5t-68.5 -36.5q-17 0 -36 11q51 53 91 181z" />
    <glyph glyph-name="Uogonek" unicode="&#x172;" horiz-adv-x="697" 
d="M198 -221q0 41 28 81.5t69 62.5q-134 33 -134 209q0 124 51 302t120 304q35 -2 85 -23t68 -42q-87 -116 -140.5 -273t-53.5 -285q0 -78 23.5 -113t78.5 -35q62 0 111.5 43.5t94.5 127.5q53 98 79 233t26 268q0 58 -4 86q11 0 46 -8t54 -18q-10 -158 -55 -322.5
t-115 -277.5q-109 -176 -263 -183q-38 -9 -70.5 -51.5t-32.5 -97.5q0 -47 39 -47q45 0 107 46l6 -12q-20 -24 -56 -47t-57 -25q-43 3 -74 29.5t-31 67.5z" />
    <glyph glyph-name="uogonek" unicode="&#x173;" horiz-adv-x="494" 
d="M292 -154q0 47 35 91.5t84 61.5q-24 10 -42 23q-32 27 -32 81q0 21 5 36q-5 0 -25.5 -25t-46.5 -60t-33 -43q-28 -29 -43 -31q-35 2 -68 23.5t-41 54.5q0 48 8 85q21 89 71 189t108 142q22 0 49 -8t40 -23q-9 -9 -25 -33t-45.5 -79t-56.5 -119q-12 -27 -27 -79.5
t-15 -76.5q0 -11 7 -18q14 6 36.5 31.5t65.5 84.5q1 2 17.5 23.5t23.5 32l20 30t22 37t15 34.5q33 91 78 134q26 0 56 -10.5t39 -21.5q-14 -33 -51.5 -107.5t-56 -127t-18.5 -99.5q0 -34 11 -62.5t11 -29.5q-42 -11 -76 -53.5t-34 -99.5q0 -47 39 -47q45 0 107 46l6 -12
q-20 -24 -56 -47t-57 -25q-43 3 -74 29.5t-31 67.5z" />
    <glyph glyph-name="Wcircumflex" unicode="&#x174;" horiz-adv-x="953" 
d="M229 -31q-10 90 -10 180q0 99 18.5 286t25.5 302q27 0 87 -24.5t66 -38.5q-32 -74 -52 -234.5t-20 -308.5q0 -75 4 -120q57 85 160 355t126 371q28 0 89 -25t64 -38q-32 -74 -52 -234.5t-20 -308.5q0 -63 3 -109q88 231 195 447.5t143 254.5q51 -7 91 -51
q-78 -61 -208.5 -320t-186.5 -417q-26 -12 -51 -12q-76 9 -101 45q-10 55 -10 154q0 122 24 380q-139 -406 -233 -567q-25 -12 -51 -12q-76 9 -101 45zM812 882q7 -57 18.5 -85.5t33.5 -42.5q-2 -1 -9 -1q-51 0 -99 56q-60 -45 -112 -45q-33 0 -54 22q76 19 137 71
q-2 4 -4 12q20 14 61 14q21 0 28 -1z" />
    <glyph glyph-name="wcircumflex" unicode="&#x175;" horiz-adv-x="635" 
d="M106 41q0 40 16.5 134t36.5 165q27 98 109 98q23 0 44 -7t25 -18q-19 -15 -34 -38.5t-23.5 -43t-17 -55.5t-11.5 -52t-9 -58.5t-7 -50.5q74 98 115 136q29 27 40 45t21 46q21 65 43 86q4 1 17 1q64 0 68 -22q-12 -16 -23.5 -47t-22 -77l-17.5 -79t-16.5 -87.5
l-11.5 -66.5q10 4 51 53t70 93q36 55 52 103.5t36 154.5q6 8 26 13.5t38 5.5q15 0 22 -5q-9 -105 -51 -178.5t-141 -180.5q-127 -137 -154 -137q-23 0 -38 18t-15 46q0 52 11 96q19 74 21 98q-23 -11 -99 -108l-60 -86t-52 -74q-59 18 -59 79zM580 713q7 -91 18.5 -136
t33.5 -68q-2 -1 -9 -1q-26 0 -54.5 29t-49.5 75q-63 -56 -114 -56q-30 0 -54 26q81 29 143 102l-3 16q20 14 61 14q21 0 28 -1z" />
    <glyph glyph-name="Ycircumflex" unicode="&#x176;" horiz-adv-x="613" 
d="M470 345q147 162 245 381q55 -6 88 -39q-211 -253 -311 -400q-72 -247 -72 -360q-22 0 -84.5 15t-69.5 22q10 18 21.5 44t20 47.5t21.5 59.5t18.5 55.5l19 61.5t16.5 52q-58 180 -99 284.5t-75 142.5q20 8 75.5 16.5t95.5 9.5q0 -73 34 -220.5t56 -171.5zM641 882
q7 -57 18.5 -85.5t33.5 -42.5q-2 -1 -9 -1q-51 0 -99 56q-60 -45 -112 -45q-33 0 -54 22q76 19 137 71q-2 4 -4 12q20 14 61 14q21 0 28 -1z" />
    <glyph glyph-name="ycircumflex" unicode="&#x177;" horiz-adv-x="489" 
d="M473 155q-46 -149 -95.5 -246t-121.5 -171q-94 -99 -193 -99q-49 0 -95.5 20.5t-61.5 48.5q0 12 14 21q23 -21 36 -27t35 -6q114 0 214.5 128.5t156.5 344.5q-105 -166 -169 -189q-35 2 -68.5 23.5t-41.5 54.5q0 49 9 85q22 89 72 189t107 142q60 0 91 -31
q-16 -14 -53 -75.5t-77 -155.5q-12 -31 -27 -82t-15 -74q0 -11 7 -18q45 8 116 112q35 52 88.5 151t80.5 144q26 0 57 -10.5t40 -21.5q-72 -154 -106 -258zM508 719q7 -91 18.5 -136t33.5 -68q-2 -1 -9 -1q-26 0 -54.5 29t-49.5 75q-63 -56 -114 -56q-30 0 -54 26
q81 29 143 102l-3 16q20 14 61 14q21 0 28 -1z" />
    <glyph glyph-name="Ydieresis" unicode="&#x178;" horiz-adv-x="613" 
d="M470 345q147 162 245 381q55 -6 88 -39q-211 -253 -311 -400q-72 -247 -72 -360q-22 0 -84.5 15t-69.5 22q10 18 21.5 44t20 47.5t21.5 59.5t18.5 55.5l19 61.5t16.5 52q-58 180 -99 284.5t-75 142.5q20 8 75.5 16.5t95.5 9.5q0 -73 34 -220.5t56 -171.5zM489 788
q0 92 58 95q14 -2 36.5 -15.5t31.5 -28.5q0 -1 -14 -17.5l-30 -35t-21 -22.5q-53 10 -61 24zM620 788q0 93 56 95q13 -1 35.5 -14.5t33.5 -29.5q0 -3 -28.5 -37.5t-38.5 -38.5q-44 6 -58 25z" />
    <glyph glyph-name="Zacute" unicode="&#x179;" horiz-adv-x="698" 
d="M272 564q-9 32 -9 87q0 64 10 87q245 -43 446 -43q74 0 119 6q24 -33 24 -108q-109 -45 -217 -118.5t-189.5 -153t-142 -154.5t-92.5 -135q59 10 189 18q141 10 213 55q10 -20 20 -68.5t10 -83.5q0 -11 -2 -21q-165 11 -181 11q-133 0 -257.5 -28t-179.5 -83
q-3 11 -10 28.5t-11 31.5t-4 29q0 46 39 67q115 166 294 328.5t372 286.5q-60 3 -127 3q-234 0 -314 -42zM722 883q21 -6 39.5 -26t18.5 -38q-134 -55 -190 -55q-32 0 -55 19q97 21 187 100z" />
    <glyph glyph-name="zacute" unicode="&#x17a;" horiz-adv-x="472" 
d="M61 14q0 33 102.5 132.5t232.5 193.5q-78 17 -106 17q-56 0 -97 -34q-46 40 -46 92q0 16 1 19q37 35 90 35q40 0 114 -28.5t96 -28.5q25 0 47 11q9 -7 16.5 -28.5t7.5 -40.5q-62 -24 -163 -111t-158 -166q21 -9 57 -9q46 0 93.5 15t73.5 37q47 -30 47 -88q0 -7 -2 -25
q-46 -29 -100 -29q-39 0 -106.5 17t-89.5 17q-48 0 -78 -45q-29 12 -32 47zM498 729q21 -13 39.5 -49.5t18.5 -64.5q-77 -51 -118 -70.5t-72 -19.5q-32 0 -55 19q44 17 94.5 66.5t92.5 118.5z" />
    <glyph glyph-name="Zdotaccent" unicode="&#x17b;" horiz-adv-x="698" 
d="M272 564q-9 32 -9 87q0 64 10 87q245 -43 446 -43q74 0 119 6q24 -33 24 -108q-109 -45 -217 -118.5t-189.5 -153t-142 -154.5t-92.5 -135q59 10 189 18q141 10 213 55q10 -20 20 -68.5t10 -83.5q0 -11 -2 -21q-165 11 -181 11q-133 0 -257.5 -28t-179.5 -83
q-3 11 -10 28.5t-11 31.5t-4 29q0 46 39 67q115 166 294 328.5t372 286.5q-60 3 -127 3q-234 0 -314 -42zM597 791q0 6 3 18q-15 15 -15 40q0 16 5 34q25 0 64.5 -7t53.5 -16q-14 -10 -41.5 -45t-34.5 -51q-13 2 -24 10.5t-11 16.5z" />
    <glyph glyph-name="zdotaccent" unicode="&#x17c;" horiz-adv-x="472" 
d="M61 14q0 33 102.5 132.5t232.5 193.5q-78 17 -106 17q-56 0 -97 -34q-46 40 -46 92q0 16 1 19q37 35 90 35q40 0 114 -28.5t96 -28.5q25 0 47 11q9 -7 16.5 -28.5t7.5 -40.5q-62 -24 -163 -111t-158 -166q21 -9 57 -9q46 0 93.5 15t73.5 37q47 -30 47 -88q0 -7 -2 -25
q-46 -29 -100 -29q-39 0 -106.5 17t-89.5 17q-48 0 -78 -45q-29 12 -32 47zM344 534q0 6 3 18q-12 12 -12 33q0 18 9.5 59t21.5 72q23 0 64.5 -24t56.5 -46q-23 -21 -64.5 -72t-48.5 -67q-12 2 -21 10.5t-9 16.5z" />
    <glyph glyph-name="Zcaron" unicode="&#x17d;" horiz-adv-x="698" 
d="M272 564q-9 32 -9 87q0 64 10 87q245 -43 446 -43q74 0 119 6q24 -33 24 -108q-109 -45 -217 -118.5t-189.5 -153t-142 -154.5t-92.5 -135q59 10 189 18q141 10 213 55q10 -20 20 -68.5t10 -83.5q0 -11 -2 -21q-165 11 -181 11q-133 0 -257.5 -28t-179.5 -83
q-3 11 -10 28.5t-11 31.5t-4 29q0 46 39 67q115 166 294 328.5t372 286.5q-60 3 -127 3q-234 0 -314 -42zM622 751q-26 13 -53 13q-23 49 -37 70.5t-41 46.5q10 2 17 2q29 0 51.5 -18t49.5 -62q60 63 114 80q17 -4 49 -45q-91 -30 -150 -87z" />
    <glyph glyph-name="zcaron" unicode="&#x17e;" horiz-adv-x="472" 
d="M61 14q0 33 102.5 132.5t232.5 193.5q-78 17 -106 17q-56 0 -97 -34q-46 40 -46 92q0 16 1 19q37 35 90 35q40 0 114 -28.5t96 -28.5q25 0 47 11q9 -7 16.5 -28.5t7.5 -40.5q-62 -24 -163 -111t-158 -166q21 -9 57 -9q46 0 93.5 15t73.5 37q47 -30 47 -88q0 -7 -2 -25
q-46 -29 -100 -29q-39 0 -106.5 17t-89.5 17q-48 0 -78 -45q-29 12 -32 47zM401 505q-46 12 -65 29q-12 108 -69 179q10 2 17 2q57 0 111 -122q60 76 99 96q20 -3 54 -49q-71 -30 -147 -135z" />
    <glyph glyph-name="Schwa" unicode="&#x18f;" horiz-adv-x="604" 
d="M140 18q4 75 23.5 134t50.5 104t82 84t108.5 69.5t139.5 63.5q0 6 0.5 20.5t0.5 21.5q0 37 -6.5 72t-29 65.5t-58.5 30.5q-112 0 -256 -207q-14 12 -24 27q63 94 138.5 158.5t141.5 81.5q108 -13 171 -86.5t63 -178.5q0 -123 -64 -252.5t-164 -214t-197 -84.5
q-62 9 -120 91zM212 35q28 4 42.5 7t38.5 10t39.5 18t37.5 29.5t39.5 45.5t38.5 64t42 88.5t43 115.5q-159 -58 -237 -160.5t-84 -217.5z" />
    <glyph glyph-name="florin" unicode="&#x192;" horiz-adv-x="564" 
d="M491 433l84 3q11 -11 13 -59l-110 6l-93 -284t-74 -201t-63.5 -137.5t-59.5 -78t-63 -40.5t-74 -9q-71 0 -121 48q0 19 13 26q31 -36 85 -36q51 0 89 50t86 180q56 151 152 483q-59 0 -89 -5q-9 9 -9 24q27 10 109 22q47 152 122 240.5t157 88.5q9 0 23 -1.5t17 -1.5
q24 18 50 18q12 0 31 -13q-18 -31 -32 -85q-25 -74 -53 -96q-11 0 -12 29q-1 21 -6 41q-7 17 -7 34q0 11 5 43q-33 0 -80 -80t-90 -209z" />
    <glyph glyph-name="Oogonek" unicode="&#x1ea;" 
d="M203 -215q0 37 22.5 73.5t58.5 60.5q-149 25 -149 228q0 124 49.5 261t136.5 234.5t181 97.5q32 0 60 -12q38 -16 76.5 -46t40.5 -46q-32 7 -65 7q-88 0 -172.5 -80.5t-135.5 -202t-51 -239.5q0 -154 102 -154q49 0 109 36t109 94q69 82 110 207.5t41 249.5q0 43 -8 99
q18 -9 28 -15.5t25 -23t22.5 -45.5t7.5 -69q0 -136 -60.5 -262.5t-157.5 -210.5q-106 -92 -223 -108q-36 -15 -63.5 -55.5t-27.5 -90.5q0 -47 39 -47q45 0 107 46l6 -12q-20 -24 -56 -47t-57 -25q-43 3 -74 29.5t-31 67.5z" />
    <glyph glyph-name="oogonek" unicode="&#x1eb;" horiz-adv-x="441" 
d="M59 -168q0 44 31 86t76 62q-76 38 -76 147q0 80 46 166.5t117 138.5q55 41 103 41q32 -17 63 -71q3 0 9 0.5t9 0.5q53 0 53 -94q0 -125 -77 -221t-196 -122q-36 -14 -64 -54.5t-28 -91.5q0 -47 39 -47q45 0 107 46l6 -12q-20 -24 -56 -47t-57 -25q-43 3 -74 29.5
t-31 67.5zM266 280q-34 -46 -57.5 -104.5t-23.5 -98.5q0 -24 8 -46t18 -25q90 20 148 107t58 203q0 47 -13 67q-76 -22 -138 -103z" />
    <glyph glyph-name="Aringacute" unicode="&#x1fa;" horiz-adv-x="631" 
d="M683 649q-11 -18 -28 -30q20 -11 23 -19q-57 -109 -92 -376q-12 -91 -12 -205q0 -60 2 -93q-3 -1 -12 -1q-28 0 -68.5 15.5t-45.5 28.5q-1 17 -1 52q0 99 10 199q-64 4 -227 10q-87 -157 -98 -306q-48 14 -66.5 28t-18.5 35q0 59 100 245q-20 1 -47 1q9 21 68 37l35 60
q66 99 151 181t162 125q-14 17 -14 38q0 34 31.5 57.5t67.5 23.5q37 0 63.5 -21t26.5 -50q0 -16 -10 -35zM514 541q-52 -18 -120.5 -89t-129.5 -167q87 10 204 12q5 38 10.5 69t16.5 84zM648 692q0 15 -9.5 25.5t-25.5 10.5q-21 0 -42.5 -20t-21.5 -46q0 -41 31 -41
q30 0 49 23t19 48zM736 883q21 -6 39.5 -26t18.5 -38q-86 -31 -116.5 -40t-59.5 -9q-32 0 -55 19q80 18 173 94z" />
    <glyph glyph-name="aringacute" unicode="&#x1fb;" horiz-adv-x="470" 
d="M607 833q48 -28 70 -79q-82 -75 -131 -75q-26 0 -48 14q30 23 52.5 51.5t56.5 88.5zM563 559q0 -34 -29 -62t-65 -28q-37 0 -64.5 24t-27.5 55q0 34 29.5 60.5t67.5 26.5q37 0 63 -22.5t26 -53.5zM526 567q0 17 -9.5 28t-25.5 11q-23 0 -43 -22.5t-20 -47.5q0 -44 30 -44
q27 0 47.5 23t20.5 52zM442 404q21 0 48 -12.5t26 -22.5q-91 -189 -91 -298q0 -59 26 -73q-29 -18 -65 -18q-54 0 -54 74q0 57 38 156q-40 -91 -98.5 -157.5t-105.5 -74.5q-37 1 -60 35t-23 86q0 72 40 156t100 142t112 61q20 -5 46.5 -32.5t28.5 -46.5q-80 -13 -159 -118.5
t-79 -198.5q0 -19 14 -24q55 11 159 184q48 80 97 182z" />
    <glyph glyph-name="AEacute" unicode="&#x1fc;" horiz-adv-x="914" 
d="M777 418q53 0 82.5 -18t29.5 -50q0 -18 -8 -31q-45 5 -107 5q-48 0 -125 -5q-46 -104 -76 -194.5t-32 -121.5q179 36 337 47q26 -38 26 -80q0 -18 -2 -27q-74 2 -140 2q-114 0 -261 -26q-46 18 -89 88q43 89 124 305q-173 -13 -235 -13h-22q-44 -80 -82 -189
q-35 -100 -41 -186q-48 14 -66.5 28t-18.5 35q0 28 41.5 122t103.5 199q-62 14 -83 47q61 3 117 9q98 154 201.5 254.5t196.5 100.5q18 0 55.5 -1.5t55.5 -1.5q50 0 106 5t93.5 10.5t41.5 5.5q23 0 41 -29t27 -78q-58 20 -237 20q-28 0 -43 -1l10 -14q-23 -31 -108 -221
q11 0 41.5 2t45.5 2zM642 640q-80 -12 -164.5 -83t-157.5 -187q69 7 249 30q52 135 73 240zM871 883q21 -6 39.5 -26t18.5 -38q-134 -55 -190 -55q-32 0 -55 19q97 21 187 100z" />
    <glyph glyph-name="aeacute" unicode="&#x1fd;" horiz-adv-x="691" 
d="M464 408q20 0 46 -12q83 71 156 71q29 0 48.5 -11.5t47.5 -43.5q-6 -114 -77.5 -182t-223.5 -109q-4 -24 -4 -40q0 -54 38 -70q116 29 194 98q10 -10 15 -19q-51 -54 -108.5 -88.5t-105.5 -39.5q-77 14 -104 47.5t-27 124.5q-113 -152 -192 -152q-39 0 -58 40.5t-19 95.5
q0 70 30 136.5t72 109.5t84 69.5t70 28.5q19 -5 46.5 -31.5t30.5 -47.5q-86 -14 -168 -124.5t-82 -194.5q0 -19 18 -19q29 0 79 42t100 107q17 75 44 138t50 76zM688 376q-56 -2 -119 -65t-96 -152q85 31 145 91t70 126zM617 729q21 -13 39.5 -49.5t18.5 -64.5
q-77 -51 -118 -70.5t-72 -19.5q-32 0 -55 19q44 17 94.5 66.5t92.5 118.5z" />
    <glyph glyph-name="Oslashacute" unicode="&#x1fe;" 
d="M562 728q38 -16 76.5 -46t40.5 -46q-32 7 -65 7q-88 0 -172.5 -80.5t-135.5 -202t-51 -239.5q0 -16 2 -42q117 96 247 232.5t222 256.5q-1 38 -8 85q32 -16 47 -32q48 69 65 110q52 0 66 -35q-50 -68 -102 -132q7 -32 7 -64q0 -136 -60.5 -262.5t-157.5 -210.5
q-60 -52 -128.5 -81.5t-130.5 -29.5q-90 0 -138 56q-39 -27 -75 -48q-24 5 -26 38q31 15 77 46q-27 54 -27 139q0 124 49.5 261t136.5 234.5t181 97.5q32 0 60 -12zM722 478q-236 -275 -454 -446q24 -65 89 -65q49 0 109 36t109 94q58 69 97 171t50 210zM786 883
q21 -6 39.5 -26t18.5 -38q-134 -55 -190 -55q-32 0 -55 19q97 21 187 100z" />
    <glyph glyph-name="oslashacute" unicode="&#x1ff;" horiz-adv-x="442" 
d="M215 -35q-38 5 -65 24q-51 -40 -92 -65q-24 5 -26 38q34 16 88 58q-30 44 -30 107q0 80 46 166.5t117 138.5q55 41 103 41q32 -17 63 -71q3 0 9 0.5t9 0.5q11 0 18 -3q40 63 52 101q52 0 66 -35q-56 -80 -86 -119q3 -16 3 -38q0 -125 -77.5 -221.5t-197.5 -122.5z
M266 280q-34 -46 -57.5 -104.5t-23.5 -98.5q130 122 231 264q-3 27 -12 42q-76 -22 -138 -103zM412 254q-114 -136 -218 -228q8 -17 17 -20q77 16 132 84t69 164zM580 721q21 -13 39.5 -49.5t18.5 -64.5q-77 -51 -118 -70.5t-72 -19.5q-32 0 -55 19q44 17 94.5 66.5
t92.5 118.5z" />
    <glyph glyph-name="uni0218" unicode="&#x218;" horiz-adv-x="701" 
d="M753 674q6 -34 6 -41q0 -33 -15 -61.5t-39 -40.5q-37 51 -108 77t-148 26q-72 0 -120.5 -21t-49.5 -55q4 -27 47 -60.5t86 -55.5t114 -55q112 -52 154.5 -94.5t42.5 -125.5q0 -105 -68 -174t-180 -69q-75 0 -161.5 28.5t-149.5 79.5t-63 105q0 56 53 116q3 -33 34.5 -74
t86.5 -73q104 -61 223 -61q52 0 90.5 13.5t56.5 35t26.5 38.5t9.5 32q0 13 -7.5 25.5t-24.5 25.5t-33 23t-45.5 24.5t-49 23l-55.5 24.5q-133 58 -186.5 104.5t-53.5 115.5q0 58 35 107t97 75t140 26q111 0 255 -64zM234 -347q-16 14 -16 38q63 74 63 149q0 36 -12 79
q51 -3 94 -24.5t48 -46.5q-14 -49 -64.5 -108t-112.5 -87z" />
    <glyph glyph-name="uni0219" unicode="&#x219;" horiz-adv-x="347" 
d="M443 398q-2 -38 -20 -76.5t-34 -38.5q-11 1 -13 15q0 3 8 24t8 30q0 14 -7 23.5t-17 9.5q-82 0 -82 -197q0 -10 1 -12q56 2 70 2q1 -2 1 -8q0 -9 -4 -13q-47 -11 -57 -15.5t-10 -15.5q0 -4 0.5 -15.5t0.5 -20.5q0 -83 -46 -134.5t-126 -59.5q-28 2 -57.5 26t-37.5 52
q0 77 59.5 133.5t146.5 62.5q0 36 -15.5 96t-15.5 86q0 53 40 102.5t92 60.5q23 -6 66 -50t49 -67zM113 -58q48 19 83 71.5t35 104.5q-39 -5 -88.5 -55.5t-49.5 -84.5q0 -22 20 -36zM-26 -360q-16 14 -16 38q63 74 63 149q0 35 -12 79q51 -3 94 -24.5t48 -46.5
q-14 -49 -64.5 -108t-112.5 -87z" />
    <glyph glyph-name="uni021A" unicode="&#x21a;" horiz-adv-x="589" 
d="M300 606q-39 0 -61 22t-22 55q0 20 9 38q23 -11 98 -11q81 0 238.5 14t162.5 14q34 0 51.5 -25.5t26.5 -75.5q-57 5 -95 5q-60 0 -130 -8q-55 -110 -122 -313q-79 -240 -105 -405q-67 10 -112 84q29 108 131 390q57 156 76 228q-96 -12 -146 -12zM162 -350q-16 14 -16 38
q63 74 63 149q0 35 -12 79q51 -3 94 -24.5t48 -46.5q-14 -49 -64.5 -108t-112.5 -87z" />
    <glyph glyph-name="uni021B" unicode="&#x21b;" horiz-adv-x="352" 
d="M213 383h-57q-4 6 -8.5 25.5t-4.5 33.5q14 -1 46.5 -3t47.5 -3q30 60 67 114t53 63q21 0 57.5 -12.5t46.5 -23.5q-48 -60 -98 -145q45 0 82 4q11 -11 11 -28q-49 -18 -119 -20q-49 -96 -77.5 -187t-28.5 -153q0 -44 33 -49q60 7 105 43q6 -9 7 -15q-11 -17 -51.5 -44
t-57.5 -29q-49 1 -95.5 36t-46.5 70q0 49 25 139.5t63 183.5zM67 -350q-16 14 -16 38q63 74 63 149q0 35 -12 79q51 -3 94 -24.5t48 -46.5q-14 -49 -64.5 -108t-112.5 -87z" />
    <glyph glyph-name="dotlessj" unicode="&#x237;" horiz-adv-x="236" 
d="M119 187q38 148 73 216.5t74 68.5q28 0 67 -27q-59 -105 -75 -163q-86 -303 -132 -427q-44 -118 -88 -167.5t-104 -49.5q-43 0 -84 16.5t-58 41.5q1 7 6.5 13.5t10.5 7.5q33 -34 80 -34q33 0 56 17.5t50 76t54 151t70 259.5z" />
    <glyph glyph-name="schwa" unicode="&#x259;" horiz-adv-x="403" 
d="M88 15q7 117 68.5 179.5t198.5 117.5q0 4 0.5 12.5t0.5 13.5q0 80 -46 80q-33 0 -71.5 -22t-60 -42.5t-51.5 -52.5q-10 9 -17 17q45 59 98.5 99t101.5 51q68 -7 107 -49.5t39 -103.5q0 -80 -42.5 -164t-109 -138.5t-130.5 -54.5q-46 6 -86 57zM157 48q56 8 111.5 71.5
t78.5 154.5q-83 -41 -134.5 -100.5t-55.5 -125.5z" />
    <glyph glyph-name="apostrophe" unicode="&#x2bc;" horiz-adv-x="364" 
d="M324 526q-16 14 -16 38q47 80 47 180q0 40 -6 88q51 -3 93.5 -24.5t48.5 -46.5q-38 -167 -167 -235z" />
    <glyph glyph-name="circumflex" unicode="&#x2c6;" horiz-adv-x="321" 
d="M249 713q7 -91 18.5 -136t33.5 -68q-2 -1 -9 -1q-26 0 -54.5 29t-49.5 75q-63 -56 -114 -56q-30 0 -54 26q81 29 143 102l-3 16q20 14 61 14q21 0 28 -1z" />
    <glyph glyph-name="caron" unicode="&#x2c7;" horiz-adv-x="321" 
d="M154 505q-46 12 -65 29q-12 108 -69 179q10 2 17 2q57 0 111 -122q60 76 99 96q20 -3 54 -49q-71 -30 -147 -135z" />
    <glyph glyph-name="breve" unicode="&#x2d8;" horiz-adv-x="327" 
d="M160 524q-47 4 -87.5 40t-53.5 105q2 5 7 9.5t9.5 7t13.5 5.5t12.5 3.5t14 3t12.5 2.5q23 -111 98 -120q66 16 104 101q10 -3 16 -19q-10 -49 -49.5 -86.5t-96.5 -51.5z" />
    <glyph glyph-name="dotaccent" unicode="&#x2d9;" horiz-adv-x="192" 
d="M30 534q0 6 3 18q-12 12 -12 33q0 18 9.5 59t21.5 72q23 0 64.5 -24t56.5 -46q-23 -21 -64.5 -72t-48.5 -67q-12 2 -21 10.5t-9 16.5z" />
    <glyph glyph-name="ring" unicode="&#x2da;" horiz-adv-x="250" 
d="M219 583q-35 -59 -95 -59q-40 0 -72 26.5t-32 62.5q0 41 35 69t75 28q41 0 70.5 -25t29.5 -60q0 -20 -11 -42zM188 634q0 18 -10.5 31t-28.5 13q-23 0 -47 -24t-24 -55q0 -50 34 -50q33 0 54.5 27.5t21.5 57.5z" />
    <glyph glyph-name="ogonek" unicode="&#x2db;" horiz-adv-x="258" 
d="M40 -151q0 56 48 106t107 54l19 -22q-39 -7 -73.5 -50t-34.5 -100q0 -47 39 -47q45 0 107 46l6 -12q-20 -24 -56 -47t-57 -25q-43 3 -74 29.5t-31 67.5z" />
    <glyph glyph-name="tilde" unicode="&#x2dc;" horiz-adv-x="369" 
d="M36 624q47 -16 92 -16q71 0 171 47q22 -25 34 -90q-84 -30 -154 -30q-59 0 -97.5 26t-45.5 63z" />
    <glyph glyph-name="hungarumlaut" unicode="&#x2dd;" horiz-adv-x="364" 
d="M111 717q25 -6 48.5 -22.5t34.5 -39.5q-32 -57 -69.5 -93.5t-68.5 -36.5q-17 0 -36 11q51 53 91 181zM251 717q25 -6 48.5 -22.5t34.5 -39.5q-32 -57 -69.5 -93.5t-68.5 -36.5q-17 0 -36 11q51 53 91 181z" />
    <glyph glyph-name="uni03BC" unicode="&#x3bc;" horiz-adv-x="492" 
d="M367 22q-32 27 -32 81q0 21 5 36q-5 0 -25.5 -25.5l-46 -59.5t-33.5 -43q-26 -29 -43 -31q-36 2 -42 30q-34 -105 -34 -160q0 -74 52 -87q-2 -14 -7 -23q-65 11 -94 37.5t-29 79.5q0 35 26.5 152t82 262t116.5 203q23 0 53 -8t43 -23q-9 -9 -25 -33t-45.5 -79t-56.5 -119
q-12 -27 -27 -79.5t-15 -76.5q0 -11 7 -18q14 6 36.5 31.5t65.5 84.5q1 2 17.5 23.5t23.5 32l20 30t22 37t15 34.5q33 91 78 134q26 0 56 -10.5t39 -21.5q-14 -33 -51.5 -107.5t-56 -127t-18.5 -99.5q0 -34 11 -62.5t11 -29.5l-4 -4q-14 0 -43 12t-52 27z" />
    <glyph glyph-name="Ndotaccent" unicode="&#x1e44;" horiz-adv-x="683" 
d="M190 -76q-57 17 -77 32.5t-20 42.5q0 88 100.5 343t169.5 352l-7 42q28 0 90 -24.5t66 -37.5q-11 -59 -11 -176q0 -257 48 -426q50 250 114.5 451t100.5 205q22 -4 49 -24t38 -42q-59 -24 -121.5 -174.5t-99.5 -311.5t-39 -247q0 -2 1 -3q-4 -1 -13 -1q-47 0 -82.5 11.5
t-45.5 32.5q-70 282 -82 642q-58 -92 -120 -308.5t-62 -333.5q0 -33 3 -45zM589 791q0 6 3 18q-15 15 -15 40q0 16 5 34q25 0 64.5 -7t53.5 -16q-14 -10 -41.5 -45t-34.5 -51q-13 2 -24 10.5t-11 16.5z" />
    <glyph glyph-name="ndotaccent" unicode="&#x1e45;" horiz-adv-x="540" 
d="M259 485q26 -8 49 -35.5t34 -60.5q-11 -26 -74.5 -133.5t-68.5 -142.5q23 24 73 83t60 70q144 153 210 153q43 0 71 -54q0 -1 -3 -3t-10.5 -7.5t-15.5 -14.5q-33 -43 -68.5 -124t-35.5 -137q0 -23 6 -31t19 -8q8 0 23 5t19 5q9 -5 9 -20q-16 -14 -43 -27.5t-43 -13.5
q-54 0 -74.5 28t-20.5 78q0 53 55 180q-2 0 -13 -6t-30.5 -20t-37.5 -31q-86 -83 -161 -187q-51 -72 -67 -81q-34 20 -46 78q0 39 21 114.5t54 150.5q24 54 48 99.5t39.5 67.5t21.5 25zM431 512q0 6 3 18q-12 12 -12 33q0 18 9.5 59t21.5 72q23 0 64.5 -24t56.5 -46
q-23 -21 -64.5 -72t-48.5 -67q-12 2 -21 10.5t-9 16.5z" />
    <glyph glyph-name="Wgrave" unicode="&#x1e80;" horiz-adv-x="953" 
d="M229 -31q-10 90 -10 180q0 99 18.5 286t25.5 302q27 0 87 -24.5t66 -38.5q-32 -74 -52 -234.5t-20 -308.5q0 -75 4 -120q57 85 160 355t126 371q28 0 89 -25t64 -38q-32 -74 -52 -234.5t-20 -308.5q0 -63 3 -109q88 231 195 447.5t143 254.5q51 -7 91 -51
q-78 -61 -208.5 -320t-186.5 -417q-26 -12 -51 -12q-76 9 -101 45q-10 55 -10 154q0 122 24 380q-139 -406 -233 -567q-25 -12 -51 -12q-76 9 -101 45zM668 883q90 -79 187 -100q-23 -19 -55 -19q-56 0 -190 55q0 18 18.5 38t39.5 26z" />
    <glyph glyph-name="wgrave" unicode="&#x1e81;" horiz-adv-x="635" 
d="M106 41q0 40 16.5 134t36.5 165q27 98 109 98q23 0 44 -7t25 -18q-19 -15 -34 -38.5t-23.5 -43t-17 -55.5t-11.5 -52t-9 -58.5t-7 -50.5q74 98 115 136q29 27 40 45t21 46q21 65 43 86q4 1 17 1q64 0 68 -22q-12 -16 -23.5 -47t-22 -77l-17.5 -79t-16.5 -87.5
l-11.5 -66.5q10 4 51 53t70 93q36 55 52 103.5t36 154.5q6 8 26 13.5t38 5.5q15 0 22 -5q-9 -105 -51 -178.5t-141 -180.5q-127 -137 -154 -137q-23 0 -38 18t-15 46q0 52 11 96q19 74 21 98q-23 -11 -99 -108l-60 -86t-52 -74q-59 18 -59 79zM436 729q42 -69 92.5 -118.5
t94.5 -66.5q-23 -19 -55 -19q-31 0 -72 19.5t-118 70.5q0 28 18.5 64.5t39.5 49.5z" />
    <glyph glyph-name="Wacute" unicode="&#x1e82;" horiz-adv-x="953" 
d="M229 -31q-10 90 -10 180q0 99 18.5 286t25.5 302q27 0 87 -24.5t66 -38.5q-32 -74 -52 -234.5t-20 -308.5q0 -75 4 -120q57 85 160 355t126 371q28 0 89 -25t64 -38q-32 -74 -52 -234.5t-20 -308.5q0 -63 3 -109q88 231 195 447.5t143 254.5q51 -7 91 -51
q-78 -61 -208.5 -320t-186.5 -417q-26 -12 -51 -12q-76 9 -101 45q-10 55 -10 154q0 122 24 380q-139 -406 -233 -567q-25 -12 -51 -12q-76 9 -101 45zM848 883q21 -6 39.5 -26t18.5 -38q-134 -55 -190 -55q-32 0 -55 19q97 21 187 100z" />
    <glyph glyph-name="wacute" unicode="&#x1e83;" horiz-adv-x="635" 
d="M106 41q0 40 16.5 134t36.5 165q27 98 109 98q23 0 44 -7t25 -18q-19 -15 -34 -38.5t-23.5 -43t-17 -55.5t-11.5 -52t-9 -58.5t-7 -50.5q74 98 115 136q29 27 40 45t21 46q21 65 43 86q4 1 17 1q64 0 68 -22q-12 -16 -23.5 -47t-22 -77l-17.5 -79t-16.5 -87.5
l-11.5 -66.5q10 4 51 53t70 93q36 55 52 103.5t36 154.5q6 8 26 13.5t38 5.5q15 0 22 -5q-9 -105 -51 -178.5t-141 -180.5q-127 -137 -154 -137q-23 0 -38 18t-15 46q0 52 11 96q19 74 21 98q-23 -11 -99 -108l-60 -86t-52 -74q-59 18 -59 79zM616 729q21 -13 39.5 -49.5
t18.5 -64.5q-77 -51 -118 -70.5t-72 -19.5q-32 0 -55 19q44 17 94.5 66.5t92.5 118.5z" />
    <glyph glyph-name="Wdieresis" unicode="&#x1e84;" horiz-adv-x="953" 
d="M229 -31q-10 90 -10 180q0 99 18.5 286t25.5 302q27 0 87 -24.5t66 -38.5q-32 -74 -52 -234.5t-20 -308.5q0 -75 4 -120q57 85 160 355t126 371q28 0 89 -25t64 -38q-32 -74 -52 -234.5t-20 -308.5q0 -63 3 -109q88 231 195 447.5t143 254.5q51 -7 91 -51
q-78 -61 -208.5 -320t-186.5 -417q-26 -12 -51 -12q-76 9 -101 45q-10 55 -10 154q0 122 24 380q-139 -406 -233 -567q-25 -12 -51 -12q-76 9 -101 45zM660 788q0 92 58 95q14 -2 36.5 -15.5t31.5 -28.5q0 -1 -14 -17.5l-30 -35t-21 -22.5q-53 10 -61 24zM791 788
q0 93 56 95q13 -1 35.5 -14.5t33.5 -29.5q0 -3 -28.5 -37.5t-38.5 -38.5q-44 6 -58 25z" />
    <glyph glyph-name="wdieresis" unicode="&#x1e85;" horiz-adv-x="635" 
d="M106 41q0 40 16.5 134t36.5 165q27 98 109 98q23 0 44 -7t25 -18q-19 -15 -34 -38.5t-23.5 -43t-17 -55.5t-11.5 -52t-9 -58.5t-7 -50.5q74 98 115 136q29 27 40 45t21 46q21 65 43 86q4 1 17 1q64 0 68 -22q-12 -16 -23.5 -47t-22 -77l-17.5 -79t-16.5 -87.5
l-11.5 -66.5q10 4 51 53t70 93q36 55 52 103.5t36 154.5q6 8 26 13.5t38 5.5q15 0 22 -5q-9 -105 -51 -178.5t-141 -180.5q-127 -137 -154 -137q-23 0 -38 18t-15 46q0 52 11 96q19 74 21 98q-23 -11 -99 -108l-60 -86t-52 -74q-59 18 -59 79zM428 605q0 92 58 95
q14 -2 36.5 -15.5t31.5 -28.5q0 -1 -16 -25.5l-34.5 -52t-24.5 -32.5q-41 17 -51 59zM559 583q0 93 56 95q13 -1 35.5 -14.5t33.5 -29.5q0 -4 -33 -53t-44 -55q-35 13 -48 57z" />
    <glyph glyph-name="Etilde" unicode="&#x1ebc;" horiz-adv-x="609" 
d="M514 426q33 0 51.5 -18t18.5 -50q0 -18 -5 -31q-28 5 -67 5q-26 0 -54 -3t-66 -9l-51 -8q-44 -103 -73 -190.5t-31 -118.5q179 36 337 47q26 -38 26 -80q0 -18 -2 -27q-74 2 -140 2q-114 0 -261 -26q-46 18 -89 88q42 87 125 306q-45 14 -59 50q9 9 88 28q53 141 71 226
q-34 1 -54.5 19t-20.5 46q0 18 8 38q33 -5 87 -5q99 0 217.5 11t125.5 11q23 0 41 -24t27 -68q-51 5 -85 5q-71 0 -188 -17q-20 -30 -105 -220q81 13 128 13zM363 853q47 -16 92 -16q73 0 171 46q22 -22 34 -80q-67 -32 -154 -32q-60 0 -98 23t-45 59z" />
    <glyph glyph-name="etilde" unicode="&#x1ebd;" horiz-adv-x="404" 
d="M455 414q-7 -117 -68.5 -179.5t-198.5 -117.5q0 -4 -0.5 -12.5t-0.5 -13.5q0 -80 46 -80q33 0 71.5 22t60 42.5t51.5 52.5q10 -9 17 -17q-45 -59 -98.5 -99t-101.5 -51q-68 7 -107 49.5t-39 103.5q0 80 42.5 164t109 138.5t130.5 54.5q46 -6 86 -57zM386 381
q-56 -8 -111.5 -71.5t-78.5 -154.5q83 41 134.5 100.5t55.5 125.5zM279 624q47 -16 92 -16q71 0 171 47q22 -25 34 -90q-84 -30 -154 -30q-59 0 -97.5 26t-45.5 63z" />
    <glyph glyph-name="Ygrave" unicode="&#x1ef2;" horiz-adv-x="613" 
d="M470 345q147 162 245 381q55 -6 88 -39q-211 -253 -311 -400q-72 -247 -72 -360q-22 0 -84.5 15t-69.5 22q10 18 21.5 44t20 47.5t21.5 59.5t18.5 55.5l19 61.5t16.5 52q-58 180 -99 284.5t-75 142.5q20 8 75.5 16.5t95.5 9.5q0 -73 34 -220.5t56 -171.5zM497 883
q90 -79 187 -100q-23 -19 -55 -19q-56 0 -190 55q0 18 18.5 38t39.5 26z" />
    <glyph glyph-name="ygrave" unicode="&#x1ef3;" horiz-adv-x="489" 
d="M473 155q-46 -149 -95.5 -246t-121.5 -171q-94 -99 -193 -99q-49 0 -95.5 20.5t-61.5 48.5q0 12 14 21q23 -21 36 -27t35 -6q114 0 214.5 128.5t156.5 344.5q-105 -166 -169 -189q-35 2 -68.5 23.5t-41.5 54.5q0 49 9 85q22 89 72 189t107 142q60 0 91 -31
q-16 -14 -53 -75.5t-77 -155.5q-12 -31 -27 -82t-15 -74q0 -11 7 -18q45 8 116 112q35 52 88.5 151t80.5 144q26 0 57 -10.5t40 -21.5q-72 -154 -106 -258zM364 735q42 -69 92.5 -118.5t94.5 -66.5q-23 -19 -55 -19q-31 0 -72 19.5t-118 70.5q0 28 18.5 64.5t39.5 49.5z" />
    <glyph glyph-name="Ytilde" unicode="&#x1ef8;" horiz-adv-x="613" 
d="M470 345q147 162 245 381q55 -6 88 -39q-211 -253 -311 -400q-72 -247 -72 -360q-22 0 -84.5 15t-69.5 22q10 18 21.5 44t20 47.5t21.5 59.5t18.5 55.5l19 61.5t16.5 52q-58 180 -99 284.5t-75 142.5q20 8 75.5 16.5t95.5 9.5q0 -73 34 -220.5t56 -171.5zM406 853
q47 -16 92 -16q73 0 171 46q22 -22 34 -80q-67 -32 -154 -32q-60 0 -98 23t-45 59z" />
    <glyph glyph-name="ytilde" unicode="&#x1ef9;" horiz-adv-x="489" 
d="M473 155q-46 -149 -95.5 -246t-121.5 -171q-94 -99 -193 -99q-49 0 -95.5 20.5t-61.5 48.5q0 12 14 21q23 -21 36 -27t35 -6q114 0 214.5 128.5t156.5 344.5q-105 -166 -169 -189q-35 2 -68.5 23.5t-41.5 54.5q0 49 9 85q22 89 72 189t107 142q60 0 91 -31
q-16 -14 -53 -75.5t-77 -155.5q-12 -31 -27 -82t-15 -74q0 -11 7 -18q45 8 116 112q35 52 88.5 151t80.5 144q26 0 57 -10.5t40 -21.5q-72 -154 -106 -258zM273 630q47 -16 92 -16q71 0 171 47q22 -25 34 -90q-84 -30 -154 -30q-59 0 -97.5 26t-45.5 63z" />
    <glyph glyph-name="endash" unicode="&#x2013;" horiz-adv-x="591" 
d="M214 186q-36 0 -57.5 17.5t-21.5 48.5q0 6 7 31q31 -5 82 -5q93 0 204.5 10t118.5 10q22 0 39 -23.5t25 -65.5q-49 5 -80 5q-72 0 -174 -14t-143 -14z" />
    <glyph glyph-name="emdash" unicode="&#x2014;" horiz-adv-x="624" 
d="M220 186q-38 0 -61 17.5t-23 48.5q0 6 7 31q35 -5 88 -5q99 0 219 10t126 10q24 0 42 -23.5t26 -65.5q-51 5 -85 5q-77 0 -185.5 -14t-153.5 -14z" />
    <glyph glyph-name="quoteleft" unicode="&#x2018;" horiz-adv-x="227" 
d="M394 832q16 -14 16 -38q-47 -80 -47 -180q0 -40 6 -88q-51 3 -93.5 24.5t-48.5 46.5q38 167 167 235z" />
    <glyph glyph-name="quoteright" unicode="&#x2019;" horiz-adv-x="195" 
d="M240 526q-16 14 -16 38q47 80 47 180q0 40 -6 88q51 -3 93.5 -24.5t48.5 -46.5q-38 -167 -167 -235z" />
    <glyph glyph-name="quotesinglbase" unicode="&#x201a;" horiz-adv-x="240" 
d="M17 -169q-16 14 -16 38q93 80 93 167q0 52 -12 101q51 -3 94 -24.5t48 -46.5q-47 -166 -207 -235z" />
    <glyph glyph-name="quotedblleft" unicode="&#x201c;" horiz-adv-x="423" 
d="M631 833q16 -14 16 -38q-93 -80 -93 -167q0 -52 12 -101q-51 3 -94 24.5t-48 46.5q47 166 207 235zM431 833q16 -14 16 -38q-93 -80 -93 -167q0 -52 12 -101q-51 3 -94 24.5t-48 46.5q47 166 207 235z" />
    <glyph glyph-name="quotedblright" unicode="&#x201d;" horiz-adv-x="412" 
d="M227 527q-16 14 -16 38q93 80 93 167q0 52 -12 101q51 -3 94 -24.5t48 -46.5q-47 -166 -207 -235zM427 527q-16 14 -16 38q93 80 93 167q0 52 -12 101q51 -3 94 -24.5t48 -46.5q-47 -166 -207 -235z" />
    <glyph glyph-name="quotedblbase" unicode="&#x201e;" horiz-adv-x="440" 
d="M17 -169q-16 14 -16 38q93 80 93 167q0 52 -12 101q51 -3 94 -24.5t48 -46.5q-47 -166 -207 -235zM217 -169q-16 14 -16 38q93 80 93 167q0 52 -12 101q51 -3 94 -24.5t48 -46.5q-47 -166 -207 -235z" />
    <glyph glyph-name="dagger" unicode="&#x2020;" horiz-adv-x="481" 
d="M317 77q17 58 25.5 129.5t9.5 114.5t2 130q-78 -6 -132 -40q-33 28 -33 70q0 8 2 16q7 0 71 -3.5t92 -4.5q2 99 10 162q14 18 49 18q47 0 73 -24q-17 -55 -33 -147q75 24 104 46q11 -1 18 -26.5t7 -49.5q-47 -8 -137 -13q-7 -43 -17 -118t-17 -120t-17.5 -95.5
t-22.5 -79.5q-36 0 -54 35z" />
    <glyph glyph-name="daggerdbl" unicode="&#x2021;" horiz-adv-x="522" 
d="M323 77q21 72 30 175q-89 -5 -145 -41q-33 28 -33 70q0 8 2 16q8 0 82 -4t97 -4q4 54 4 162q-78 -6 -132 -40q-33 28 -33 70q0 8 2 16q7 0 71 -3.5t92 -4.5q2 99 10 162q14 18 49 18q47 0 73 -24q-17 -55 -33 -147q75 24 104 46q11 -1 18 -26.5t7 -49.5q-47 -8 -137 -13
l-23 -160q85 25 115 49q11 -1 18 -26.5t7 -49.5q-55 -9 -146 -14q-21 -155 -45 -212q-36 0 -54 35z" />
    <glyph glyph-name="bullet" unicode="&#x2022;" horiz-adv-x="338" 
d="M248 230q-18 2 -37.5 15.5t-23.5 27.5q0 27 32 146q28 0 77 -25.5t68 -55.5q-18 -41 -56 -74.5t-60 -33.5z" />
    <glyph glyph-name="ellipsis" unicode="&#x2026;" horiz-adv-x="705" 
d="M125 -38q-16 2 -34 14t-22 25q0 11 4 32t8 37.5t10 38t7 25.5q25 0 69.5 -23.5t62.5 -50.5q-16 -38 -51 -68t-54 -30zM357 -38q-16 2 -34 14t-22 25q0 11 4 32t8 37.5t10 38t7 25.5q25 0 69.5 -23.5t62.5 -50.5q-16 -38 -51 -68t-54 -30zM589 -38q-16 2 -34 14t-22 25
q0 11 4 32t8 37.5t10 38t7 25.5q25 0 69.5 -23.5t62.5 -50.5q-16 -38 -51 -68t-54 -30z" />
    <glyph glyph-name="perthousand" unicode="&#x2030;" horiz-adv-x="844" 
d="M525 239q36 0 55.5 -28.5t19.5 -65.5q0 -28 -24.5 -49.5t-49.5 -21.5q-28 0 -53.5 25t-25.5 56q0 26 24.5 55t53.5 29zM312 649q36 0 55.5 -29t19.5 -66q0 -28 -24.5 -49t-49.5 -21q-29 0 -54 24.5t-25 56.5q0 27 24.5 55.5t53.5 28.5zM785 239q36 0 55.5 -28.5
t19.5 -65.5q0 -28 -24.5 -49.5t-49.5 -21.5q-28 0 -53.5 25t-25.5 56q0 26 24.5 55t53.5 29zM746 713q-142 -211 -319.5 -427.5t-290.5 -324.5q-12 2 -25 16t-17 30q115 104 288.5 340.5t267.5 413.5q24 0 56.5 -16t39.5 -32z" />
    <glyph glyph-name="guilsinglleft" unicode="&#x2039;" horiz-adv-x="564" 
d="M470 52q-86 20 -142.5 38.5t-111.5 50.5q-51 30 -79 73q-21 33 -22 64q9 10 31 19.5t42 15t54.5 14t49.5 12.5q70 20 124 47t154 89q27 -12 51.5 -43t24.5 -52q0 -25 -31 -63q-7 13 -22 13t-50 -8q-51 -12 -182.5 -56t-139.5 -47q9 -17 28 -31t70 -41q46 -24 139 -54
q5 -2 20.5 -6t17.5 -5q-1 -8 -9.5 -17.5t-16.5 -12.5z" />
    <glyph glyph-name="guilsinglright" unicode="&#x203a;" horiz-adv-x="563" 
d="M193 437q57 0 116 -14.5t97 -30.5t101 -46q97 -58 101 -137q-9 -10 -31 -19.5t-42 -15t-54.5 -14t-49.5 -12.5q-70 -20 -124 -47t-154 -89q-56 45 -56 82q0 44 83 71q179 60 322 103q-9 17 -28 31t-70 41q-118 63 -237 65q1 9 9.5 19t16.5 13z" />
    <glyph glyph-name="fraction" unicode="&#x2044;" horiz-adv-x="414" 
d="M645 713q-142 -211 -319.5 -427.5t-290.5 -324.5q-12 2 -25 16t-17 30q115 104 288.5 340.5t267.5 413.5q24 0 56.5 -16t39.5 -32z" />
    <glyph glyph-name="foursuperior" unicode="&#x2074;" horiz-adv-x="357" 
d="M469 694q54 -3 78 -30q-55 -55 -97 -113q8 2 15 2q10 -7 13 -18l-47 -13q-35 -54 -57 -119q-56 2 -77 20q18 43 43 83q-58 0 -88.5 6t-67.5 27q86 68 151 167q56 -14 88 -34q-111 -91 -147 -127q21 -4 46 -4q27 0 41 1q83 121 106 152z" />
    <glyph glyph-name="oneinferior" unicode="&#x2081;" horiz-adv-x="300" 
d="M215 5q48 0 48 -29q0 -1 -2 -9t-3 -11q-5 0 -14.5 1t-16.5 1.5t-13 0.5q-22 0 -65 -5t-62 -5q-53 0 -68 30q9 7 93 18q22 69 71 175q-26 -11 -53 -29q-18 5 -18 19q15 14 60 45.5t60 54.5q79 -15 92 -30q-24 -12 -61.5 -78.5t-72.5 -149.5q5 0 13.5 0.5t11.5 0.5z" />
    <glyph glyph-name="twoinferior" unicode="&#x2082;" horiz-adv-x="359" 
d="M368 189q0 -18 -10.5 -35.5t-38 -39.5t-47.5 -35l-65 -42q-44 -28 -59 -46q85 6 149 48q26 -23 26 -48q0 -26 -42.5 -31t-102.5 -5t-85 -13q-39 12 -50 38q8 22 32.5 40.5t90.5 56.5q66 39 99 67t33 54q0 16 -11 25.5t-29 9.5q-28 0 -50.5 -18t-22.5 -42q0 -16 23 -36
q-20 -4 -29 -4q-30 0 -50 13.5t-20 33.5q0 31 46 55.5t102 24.5q50 0 80.5 -19.5t30.5 -51.5z" />
    <glyph glyph-name="threeinferior" unicode="&#x2083;" horiz-adv-x="352" 
d="M130 232q18 10 56 16.5t67 6.5q47 0 70 -16.5t23 -39.5q0 -42 -64 -79q58 -8 58 -53q0 -30 -23.5 -53.5t-60.5 -36.5t-77 -19.5t-79 -6.5q-49 8 -49 53l1 5v6q34 -6 53 -6q60 0 116.5 18t56.5 48q0 19 -36 25q-33 -12 -57 -12q-17 0 -28.5 11.5t-11.5 32.5q60 0 108 18
t50 57q-7 10 -27 10q-25 0 -58 -11t-55 -28q-35 14 -35 44q0 6 2 10z" />
    <glyph glyph-name="fourinferior" unicode="&#x2084;" horiz-adv-x="372" 
d="M332 244q54 -3 78 -30q-55 -55 -97 -113q8 2 15 2q10 -7 13 -18l-47 -13q-35 -54 -57 -119q-56 2 -77 20q18 43 43 83q-58 0 -88.5 6t-67.5 27q86 68 151 167q56 -14 88 -34q-111 -91 -147 -127q21 -4 46 -4q27 0 41 1q83 121 106 152z" />
    <glyph glyph-name="Euro" unicode="&#x20ac;" horiz-adv-x="727" 
d="M241 350q-33 0 -49.5 16t-16.5 43q0 16 4 29q44 -6 71 -6h45q58 135 166 220.5t230 85.5q68 0 107 -29t39 -81q0 -39 -21.5 -83t-55.5 -72q-26 4 -45 23.5t-24 45.5q76 61 76 118q0 44 -55 44q-45 0 -96.5 -35.5t-92.5 -94.5q-44 -63 -75 -130q74 8 80 8q42 0 55 -78
q-41 5 -69 5q-37 0 -95 -6q-13 -37 -24 -93q58 9 85 9q42 0 55 -78q-41 5 -69 5q-39 0 -81 -5q-1 -15 -1 -46q0 -73 22.5 -118.5t61.5 -53.5q91 21 253 172q10 -10 12 -21q-57 -77 -121.5 -137.5t-114.5 -84.5q-122 2 -186.5 70t-65.5 198q-27 -3 -52 -3q-33 0 -49.5 16
t-16.5 43q0 16 4 29q44 -6 71 -6h48q4 36 16 81h-25z" />
    <glyph glyph-name="trademark" unicode="&#x2122;" horiz-adv-x="589" 
d="M308 651q-15 0 -24 7.5t-9 19.5q0 2 6 18q14 -6 34 -6q23 0 69 4t49 4q25 0 32 -39q-20 2 -37 2q-23 0 -32 -1q-50 -98 -66 -213q-33 5 -48 30q0 1 20.5 57t39.5 118q-12 -1 -34 -1zM559 451q-45 0 -53 17q0 24 7 55t17 70t15 62q-30 -42 -63 -105.5t-36 -102.5
q-41 12 -41 26q0 22 55 114.5t85 110.5q10 0 30 -9.5t22 -14.5q-20 -39 -31 -99q50 95 89 123q10 0 31 -9.5t23 -14.5q-38 -68 -38 -223q-13 0 -31 5t-22 11q0 77 35 190q-25 -27 -56.5 -95t-37.5 -111z" />
    <glyph glyph-name="onethird" unicode="&#x2153;" horiz-adv-x="806" 
d="M828 713q-142 -211 -319.5 -427.5t-290.5 -324.5q-12 2 -25 16t-17 30q115 104 288.5 340.5t267.5 413.5q24 0 56.5 -16t39.5 -32zM374 455q48 0 48 -29q0 -1 -2 -9t-3 -11q-5 0 -14.5 1t-16.5 1.5t-13 0.5q-22 0 -65 -5t-62 -5q-53 0 -68 30q9 7 93 18q22 69 71 175
q-26 -11 -53 -29q-18 5 -18 19q15 14 60 45.5t60 54.5q79 -15 92 -30q-24 -12 -61.5 -78.5t-72.5 -149.5q5 0 13.5 0.5t11.5 0.5zM584 232q18 10 56 16.5t67 6.5q47 0 70 -16.5t23 -39.5q0 -42 -64 -79q58 -8 58 -53q0 -30 -23.5 -53.5t-60.5 -36.5t-77 -19.5t-79 -6.5
q-49 8 -49 53l1 5v6q34 -6 53 -6q60 0 116.5 18t56.5 48q0 19 -36 25q-33 -12 -57 -12q-17 0 -28.5 11.5t-11.5 32.5q60 0 108 18t50 57q-7 10 -27 10q-25 0 -58 -11t-55 -28q-35 14 -35 44q0 6 2 10z" />
    <glyph glyph-name="twothirds" unicode="&#x2154;" horiz-adv-x="814" 
d="M846 713q-142 -211 -319.5 -427.5t-290.5 -324.5q-12 2 -25 16t-17 30q115 104 288.5 340.5t267.5 413.5q24 0 56.5 -16t39.5 -32zM512 639q0 -18 -10.5 -35.5t-38 -39.5t-47.5 -35l-65 -42q-44 -28 -59 -46q85 6 149 48q26 -23 26 -48q0 -26 -42.5 -31t-102.5 -5
t-85 -13q-39 12 -50 38q8 22 32.5 40.5t90.5 56.5q66 39 99 67t33 54q0 16 -11 25.5t-29 9.5q-28 0 -50.5 -18t-22.5 -42q0 -16 23 -36q-20 -4 -29 -4q-30 0 -50 13.5t-20 33.5q0 31 46 55.5t102 24.5q50 0 80.5 -19.5t30.5 -51.5zM592 232q18 10 56 16.5t67 6.5
q47 0 70 -16.5t23 -39.5q0 -42 -64 -79q58 -8 58 -53q0 -30 -23.5 -53.5t-60.5 -36.5t-77 -19.5t-79 -6.5q-49 8 -49 53l1 5v6q34 -6 53 -6q60 0 116.5 18t56.5 48q0 19 -36 25q-33 -12 -57 -12q-17 0 -28.5 11.5t-11.5 32.5q60 0 108 18t50 57q-7 10 -27 10q-25 0 -58 -11
t-55 -28q-35 14 -35 44q0 6 2 10z" />
    <glyph glyph-name="minus" unicode="&#x2212;" horiz-adv-x="634" 
d="M235 186q-36 0 -57.5 17.5t-21.5 48.5q0 6 7 31q31 -5 82 -5q93 0 204.5 10t118.5 10q22 0 39 -23.5t25 -65.5q-49 5 -80 5q-72 0 -174 -14t-143 -14z" />
    <glyph glyph-name="uni2215" unicode="&#x2215;" horiz-adv-x="402" 
d="M640 713q-142 -211 -319.5 -427.5t-290.5 -324.5q-12 2 -25 16t-17 30q115 104 288.5 340.5t267.5 413.5q24 0 56.5 -16t39.5 -32z" />
    <glyph glyph-name="uni2219" unicode="&#x2219;" horiz-adv-x="227" 
d="M184 191q-14 2 -28.5 12t-18.5 21q0 15 25 110q21 0 58 -19.5t51 -41.5q-13 -31 -42 -56.5t-45 -25.5z" />
    <glyph glyph-name="notequal" unicode="&#x2260;" horiz-adv-x="524" 
d="M237 288q-31 0 -49.5 17.5t-18.5 46.5q0 9 6 33q44 -6 71 -6q58 0 140 6q62 103 101 185q22 0 52 -13.5t36 -26.5l-88 -134q23 3 37 3q41 0 55 -87q-41 5 -69 5q-40 0 -83 -5l-88 -119q23 2 51.5 5t45.5 4.5t26 1.5q19 0 33 -23t21 -64q-44 4 -68 4q-58 0 -181 -19
q-72 -88 -123 -141q-9 2 -20 13.5t-14 24.5q35 35 80 94q-85 0 -85 61q0 21 8 38q44 -6 70 -6q28 0 76 2l73 109q-59 -9 -95 -9z" />
    <glyph glyph-name="lessequal" unicode="&#x2264;" horiz-adv-x="615" 
d="M549 191q-141 -33 -224 -33q-151 0 -195 82q4 13 20 31t31 31.5t43 36.5t39 33q54 48 91 96.5t100 147.5q46 0 80.5 -25.5t34.5 -54.5q0 -17 -6 -43q-6 5 -14 5q-18 0 -70.5 -45.5t-135 -128l-91.5 -91.5q30 -22 126 -22q75 0 181 19q1 -3 1 -8q0 -18 -11 -31zM203 16
q-36 0 -57.5 17.5t-21.5 48.5q0 7 7 31q31 -5 82 -5q93 0 204.5 10t118.5 10q22 0 39 -23.5t25 -65.5q-49 5 -80 5q-72 0 -174 -14t-143 -14z" />
    <glyph glyph-name="greaterequal" unicode="&#x2265;" horiz-adv-x="656" 
d="M313 550q80 -23 144.5 -66t131.5 -109q62 -62 62 -131q0 -14 -3 -28q-22 -13 -79 -13q-19 0 -59.5 1.5t-58.5 1.5q-68 0 -127 -11t-168 -42q-33 46 -33 79q0 58 101 61q213 7 338 9q-4 18 -18 36t-56 60q-99 95 -209 129q3 8 14 15t20 8zM236 16q-36 0 -57.5 17.5
t-21.5 48.5q0 7 7 31q31 -5 82 -5q93 0 204.5 10t118.5 10q22 0 39 -23.5t25 -65.5q-49 5 -80 5q-72 0 -174 -14t-143 -14z" />
    <glyph glyph-name="commaaccent" unicode="&#xf6c3;" horiz-adv-x="232" 
d="M-26 -350q-16 14 -16 38q63 74 63 149q0 35 -12 79q51 -3 94 -24.5t48 -46.5q-14 -49 -64.5 -108t-112.5 -87z" />
    <glyph glyph-name="acute.cap" horiz-adv-x="285" 
d="M207 883q21 -6 39.5 -26t18.5 -38q-134 -55 -190 -55q-32 0 -55 19q97 21 187 100z" />
    <glyph glyph-name="breve.cap" horiz-adv-x="327" 
d="M160 764q-48 4 -88 25t-53 63q23 26 69 31q23 -59 98 -64q68 11 104 61q10 -3 16 -19q-10 -34 -49.5 -60.5t-96.5 -36.5z" />
    <glyph glyph-name="caron.alt" horiz-adv-x="223" 
d="M36 526q-16 14 -16 38q47 80 47 180q0 40 -6 88q51 -3 93.5 -24.5t48.5 -46.5q-38 -167 -167 -235z" />
    <glyph glyph-name="caron.cap" horiz-adv-x="321" 
d="M151 751q-26 13 -53 13q-23 49 -37 70.5t-41 46.5q10 2 17 2q29 0 51.5 -18t49.5 -62q60 63 114 80q17 -4 49 -45q-91 -30 -150 -87z" />
    <glyph glyph-name="circumflex.cap" horiz-adv-x="321" 
d="M249 882q7 -57 18.5 -85.5t33.5 -42.5q-2 -1 -9 -1q-51 0 -99 56q-60 -45 -112 -45q-33 0 -54 22q76 19 137 71q-2 4 -4 12q20 14 61 14q21 0 28 -1z" />
    <glyph glyph-name="dieresis.cap" horiz-adv-x="305" 
d="M20 788q0 92 58 95q14 -2 36.5 -15.5t31.5 -28.5q0 -1 -14 -17.5l-30 -35t-21 -22.5q-53 10 -61 24zM151 788q0 93 56 95q13 -1 35.5 -14.5t33.5 -29.5q0 -3 -28.5 -37.5t-38.5 -38.5q-44 6 -58 25z" />
    <glyph glyph-name="dotaccent.cap" horiz-adv-x="192" 
d="M59 791q0 6 3 18q-15 15 -15 40q0 16 5 34q25 0 64.5 -7t53.5 -16q-14 -10 -41.5 -45t-34.5 -51q-13 2 -24 10.5t-11 16.5z" />
    <glyph glyph-name="grave.cap" horiz-adv-x="285" 
d="M78 883q90 -79 187 -100q-23 -19 -55 -19q-56 0 -190 55q0 18 18.5 38t39.5 26z" />
    <glyph glyph-name="hungarumlaut.cap" horiz-adv-x="364" 
d="M111 883q62 -8 83 -32q-28 -38 -60 -62.5t-58 -24.5q-17 0 -36 11q42 36 71 108zM251 883q62 -8 83 -32q-28 -38 -60 -62.5t-58 -24.5q-17 0 -36 11q42 36 71 108z" />
    <glyph glyph-name="macron.cap" horiz-adv-x="346" 
d="M22 866q45 -3 91 -3q106 0 195 20q18 -30 18 -77q-49 -9 -154 -9q-93 0 -152 13q2 22 2 56z" />
    <glyph glyph-name="ring.cap" horiz-adv-x="250" 
d="M219 766q-34 -55 -95 -55q-40 0 -72 24.5t-32 57.5q0 38 35 64t75 26q41 0 70.5 -23.5t29.5 -55.5q0 -19 -11 -38zM188 813q0 17 -10.5 28.5t-28.5 11.5q-23 0 -47 -22.5t-24 -50.5q0 -46 34 -46q33 0 54.5 25.5t21.5 53.5z" />
    <glyph glyph-name="tilde.cap" horiz-adv-x="369" 
d="M36 853q47 -16 92 -16q73 0 171 46q22 -22 34 -80q-67 -32 -154 -32q-60 0 -98 23t-45 59z" />
    <glyph glyph-name="z.alt" horiz-adv-x="434" 
d="M43 -17q2 9 5.5 17t7 14l11 18l12.5 20q-7 10 -7 15q0 3 1 5.5t3.5 6t5.5 6.5t8.5 8l11 10l15 13l18.5 16q34 29 86.5 80l94 92l46.5 46q-7 12 -41.5 25t-50.5 13q-18 0 -38.5 -20.5t-24.5 -32.5q-58 19 -66 75q25 41 47 60t52 24q97 -40 164 -104l17.5 10t22.5 11.5
t22 6.5q24 -12 34 -50q-13 -26 -58 -49t-57 -33q-144 -127 -183 -185q20 -2 45 -17.5t42 -15.5q27 0 56.5 21t30.5 35q24 -5 40 -24t20 -32t9 -34q-10 -27 -43.5 -45.5t-68.5 -18.5q-32 0 -64.5 18t-57.5 36.5t-39 18.5q-21 0 -44 -30q-6 -6 -19.5 -23.5t-25 -29.5
t-17.5 -14q-18 11 -23 37z" />
    <glyph glyph-name="zacute.alt" horiz-adv-x="439" 
d="M43 -17q2 9 5.5 17t7 14l11 18l12.5 20q-7 10 -7 15q0 3 1 5.5t3.5 6t5.5 6.5t8.5 8l11 10l15 13l18.5 16q34 29 86.5 80l94 92l46.5 46q-7 12 -41.5 25t-50.5 13q-18 0 -38.5 -20.5t-24.5 -32.5q-58 19 -66 75q25 41 47 60t52 24q97 -40 164 -104l17.5 10t22.5 11.5
t22 6.5q24 -12 34 -50q-13 -26 -58 -49t-57 -33q-144 -127 -183 -185q20 -2 45 -17.5t42 -15.5q27 0 56.5 21t30.5 35q24 -5 40 -24t20 -32t9 -34q-10 -27 -43.5 -45.5t-68.5 -18.5q-32 0 -64.5 18t-57.5 36.5t-39 18.5q-21 0 -44 -30q-6 -6 -19.5 -23.5t-25 -29.5
t-17.5 -14q-18 11 -23 37zM505 729q21 -13 39.5 -49.5t18.5 -64.5q-77 -51 -118 -70.5t-72 -19.5q-32 0 -55 19q44 17 94.5 66.5t92.5 118.5z" />
    <glyph glyph-name="zcaron.alt" horiz-adv-x="439" 
d="M43 -17q2 9 5.5 17t7 14l11 18l12.5 20q-7 10 -7 15q0 3 1 5.5t3.5 6t5.5 6.5t8.5 8l11 10l15 13l18.5 16q34 29 86.5 80l94 92l46.5 46q-7 12 -41.5 25t-50.5 13q-18 0 -38.5 -20.5t-24.5 -32.5q-58 19 -66 75q25 41 47 60t52 24q97 -40 164 -104l17.5 10t22.5 11.5
t22 6.5q24 -12 34 -50q-13 -26 -58 -49t-57 -33q-144 -127 -183 -185q20 -2 45 -17.5t42 -15.5q27 0 56.5 21t30.5 35q24 -5 40 -24t20 -32t9 -34q-10 -27 -43.5 -45.5t-68.5 -18.5q-32 0 -64.5 18t-57.5 36.5t-39 18.5q-21 0 -44 -30q-6 -6 -19.5 -23.5t-25 -29.5
t-17.5 -14q-18 11 -23 37zM408 505q-46 12 -65 29q-12 108 -69 179q10 2 17 2q57 0 111 -122q60 76 99 96q20 -3 54 -49q-71 -30 -147 -135z" />
    <glyph glyph-name="zdotaccent.alt" horiz-adv-x="439" 
d="M43 -17q2 9 5.5 17t7 14l11 18l12.5 20q-7 10 -7 15q0 3 1 5.5t3.5 6t5.5 6.5t8.5 8l11 10l15 13l18.5 16q34 29 86.5 80l94 92l46.5 46q-7 12 -41.5 25t-50.5 13q-18 0 -38.5 -20.5t-24.5 -32.5q-58 19 -66 75q25 41 47 60t52 24q97 -40 164 -104l17.5 10t22.5 11.5
t22 6.5q24 -12 34 -50q-13 -26 -58 -49t-57 -33q-144 -127 -183 -185q20 -2 45 -17.5t42 -15.5q27 0 56.5 21t30.5 35q24 -5 40 -24t20 -32t9 -34q-10 -27 -43.5 -45.5t-68.5 -18.5q-32 0 -64.5 18t-57.5 36.5t-39 18.5q-21 0 -44 -30q-6 -6 -19.5 -23.5t-25 -29.5
t-17.5 -14q-18 11 -23 37zM351 534q0 6 3 18q-12 12 -12 33q0 18 9.5 59t21.5 72q23 0 64.5 -24t56.5 -46q-23 -21 -64.5 -72t-48.5 -67q-12 2 -21 10.5t-9 16.5z" />
    </font>
</defs>
</svg>
